<svg width="70" height="70" viewBox="0 0 70 70" fill="none" xmlns="http://www.w3.org/2000/svg">
<path d="M34.9998 5.59595C18.7613 5.59595 5.59595 18.7609 5.59595 35C5.59595 51.2391 18.7613 64.4043 34.9998 64.4043C51.2396 64.4043 64.4044 51.2391 64.4044 35C64.4044 18.7609 51.2396 5.59595 34.9998 5.59595Z" fill="#EDF3FC"/>
<path d="M34.9997 0.136719C15.7761 0.136719 0.136719 15.7764 0.136719 35C0.136719 54.2236 15.7761 69.8633 34.9997 69.8633C54.2236 69.8633 69.8633 54.2236 69.8633 35C69.8633 15.7764 54.2236 0.136719 34.9997 0.136719ZM34.9997 68.7464C16.392 68.7464 1.25344 53.6077 1.25344 35C1.25344 16.3922 16.3922 1.25357 34.9997 1.25357C53.6077 1.25357 68.7463 16.3922 68.7463 35C68.7463 53.6077 53.6077 68.7464 34.9997 68.7464Z" fill="#EDF3FC"/>
<path d="M48.4658 13.4197H21.5346C20.2638 13.4197 19.2334 14.45 19.2334 15.7205V23.0201C19.2334 24.291 20.2638 25.3213 21.5346 25.3213H28.1408V20.941H42.2883V25.3213H48.4659C49.7364 25.3213 50.7666 24.291 50.7666 23.0201V15.7205C50.7665 14.45 49.7363 13.4197 48.4658 13.4197Z" fill="#FFBE1B"/>
<path d="M22.0985 20.9408C21.7083 20.9408 21.3921 21.2572 21.3921 21.6472V22.839C21.3921 23.2292 21.7085 23.5454 22.0985 23.5454H28.1407V20.9407H22.0985V20.9408Z" fill="white"/>
<path d="M48.0565 20.9407H42.2883V23.5454H48.0565C48.4466 23.5454 48.7628 23.2291 48.7628 22.839V21.6472C48.7628 21.257 48.4466 20.9407 48.0565 20.9407Z" fill="white"/>
<path d="M35.2758 48.1684C33.6907 47.7711 32.4525 46.5325 32.055 44.9476L31.9869 44.677L31.9195 44.9476C31.522 46.5324 30.2837 47.7709 28.6987 48.1684L28.4277 48.2363L28.6987 48.3043C30.2836 48.7013 31.522 49.9396 31.9195 51.5248L31.9869 51.7957L32.055 51.5248C32.4523 49.9397 33.6906 48.7015 35.2758 48.3043L35.5468 48.2363L35.2758 48.1684Z" fill="#FFBE1B"/>
<path d="M28.0331 45.4161C26.9701 45.15 26.1401 44.3201 25.8739 43.2574L25.8288 43.0759L25.7828 43.2574C25.5169 44.3201 24.6871 45.15 23.6239 45.4161L23.4429 45.4617L23.6239 45.5069C24.6871 45.773 25.5169 46.603 25.7828 47.6661L25.8288 47.847L25.8739 47.6661C26.1401 46.603 26.9701 45.773 28.0331 45.5069L28.2141 45.4617L28.0331 45.4161Z" fill="#FFBE1B"/>
<path d="M56.8709 28.7073C55.1921 28.2866 53.881 26.9754 53.4599 25.2967L53.3885 25.0103L53.3159 25.2967C52.8957 26.9756 51.5851 28.2866 49.9062 28.7073L49.6199 28.7792L49.9062 28.851C51.5849 29.2711 52.8955 30.582 53.3159 32.2614L53.3885 32.5478L53.4599 32.2614C53.881 30.582 55.1921 29.2711 56.8709 28.851L57.1575 28.7792L56.8709 28.7073Z" fill="#330D84"/>
<path d="M17.6604 25.2732C16.5322 24.9904 15.651 24.1093 15.368 22.9811L15.32 22.7886L15.2712 22.9811C14.9889 24.1093 14.108 24.9903 12.98 25.2732L12.7876 25.3213L12.98 25.3697C14.108 25.6521 14.9888 26.5329 15.2712 27.6615L15.32 27.854L15.368 27.6615C15.6509 26.5329 16.5322 25.6521 17.6604 25.3697L17.8529 25.3213L17.6604 25.2732Z" fill="#5D8EF9"/>
<path d="M29.438 20.9407V37.422C31.1572 37.6986 32.5144 39.0558 32.791 40.7749H37.2007C37.1493 39.163 36.6559 36.6957 36.6559 36.6957C36.6559 36.6957 36.434 35.2506 37.4828 34.8749C38.4375 34.5327 39.2156 35.5133 39.457 35.9883C39.5982 36.2664 39.7977 36.7728 40.1816 37.6436C40.4402 37.5438 40.7099 37.4671 40.9909 37.422V20.9407H29.438Z" fill="#6857E5"/>
<path d="M35.2143 24.0894C32.5144 24.0894 30.3257 26.2781 30.3257 28.9781C30.3257 31.6782 32.5144 33.8671 35.2143 33.8671C37.9147 33.8671 40.1034 31.6782 40.1034 28.9781C40.1034 26.2782 37.9147 24.0894 35.2143 24.0894Z" fill="#FFBE1B"/>
<path d="M35.2145 25.3081C33.1878 25.3081 31.5447 26.9513 31.5447 28.978C31.5447 31.0048 33.1878 32.6479 35.2145 32.6479C37.2412 32.6479 38.8842 31.0048 38.8842 28.978C38.8842 26.9513 37.2413 25.3081 35.2145 25.3081Z" fill="#FFE37B"/>
<path d="M37.4043 28.6111V27.9862H36.9948V27.8115V27.3022H36.3227V27.8115H34.1069V27.3022H33.4347V27.8115V27.9862H33.0249V28.6111H33.4347V29.0298H33.0249V29.6545H33.4497C33.4863 29.9938 33.5906 30.2431 33.7655 30.3991C33.9554 30.5689 34.1746 30.6538 34.4226 30.6538C34.6468 30.6538 34.8341 30.5884 34.9856 30.4577C35.1365 30.327 35.2361 30.1513 35.2836 29.9305C35.3106 29.9916 35.33 30.0342 35.3423 30.0578C35.3539 30.0817 35.3837 30.1241 35.4313 30.1854C35.5671 30.3653 35.7743 30.4553 36.0527 30.4553C36.2837 30.4553 36.4905 30.3755 36.6738 30.2159C36.7724 30.1277 36.8503 29.9962 36.9084 29.8212C36.9255 29.7689 36.9394 29.7127 36.9513 29.6546H37.4043V29.03H36.9948V28.6112H37.4043V28.6111ZM34.9268 29.0748C34.9268 29.3396 34.9004 29.5323 34.8479 29.653C34.7951 29.7734 34.6864 29.8337 34.5218 29.8337C34.3572 29.8337 34.2469 29.777 34.191 29.6631C34.1348 29.5494 34.1068 29.3786 34.1068 29.1512V28.6063H34.9268V29.0748ZM36.3227 28.9883C36.3227 29.2226 36.297 29.3887 36.2461 29.4873C36.1953 29.5857 36.0908 29.6351 35.9329 29.6351C35.7751 29.6351 35.6722 29.5816 35.6249 29.4747C35.5773 29.3677 35.5535 29.2039 35.5535 28.9832V28.6063H36.3227V28.9883Z" fill="white"/>
<path d="M40.9909 20.9407V37.422C40.7099 37.4671 40.4402 37.544 40.1816 37.6436C40.4536 38.2604 40.8179 39.0596 41.3205 40.0914C41.5122 40.4849 41.6824 40.8974 41.8335 41.3132C41.8909 41.2425 41.9422 41.1669 41.99 41.0888C42.0031 41.0673 42.0168 41.0463 42.0291 41.0243C42.0444 40.9969 42.0581 40.9686 42.0722 40.9405C42.0861 40.9127 42.0999 40.885 42.1127 40.8565C42.1246 40.8297 42.1354 40.8024 42.1462 40.775C42.1585 40.7434 42.1704 40.7117 42.1812 40.6793C42.1899 40.6531 42.1984 40.6266 42.2063 40.5998C42.2164 40.5644 42.2256 40.5285 42.2339 40.4923C42.2398 40.4671 42.2458 40.4421 42.2507 40.4166C42.2587 40.3754 42.2646 40.3336 42.2699 40.2915C42.2728 40.27 42.2763 40.2487 42.2785 40.2269C42.2847 40.1627 42.2883 40.0976 42.2883 40.0318V27.787V20.9404H40.9909V20.9407Z" fill="#330D84"/>
<path d="M37.201 40.7749H32.7912C32.5146 39.0558 31.1574 37.6984 29.4382 37.422V20.9407H28.1409V40.0321C28.1409 41.157 29.0562 42.0723 30.1811 42.0723H37.142C37.1755 41.7495 37.2016 41.4285 37.2051 41.1035C37.2061 40.9991 37.2046 40.889 37.201 40.7749Z" fill="#330D84"/>
<path d="M48.5481 51.8477H38.3979C37.8059 51.8477 37.3259 52.3278 37.3259 52.9197V56.2954C37.3259 56.8874 37.8059 57.3673 38.3979 57.3673H48.5481C49.1398 57.3673 49.6199 56.8872 49.6199 56.2954V52.9198C49.6199 52.3278 49.1398 51.8477 48.5481 51.8477Z" fill="#330D84"/>
<path d="M48.8818 38.2097C47.8 35.3361 45.1969 30.8634 43.5451 28.7792C43.1312 28.257 42.6947 27.9554 42.2884 27.7874V40.0322C42.2884 40.5175 42.1177 40.9632 41.8336 41.3132C41.6827 40.8976 41.5123 40.4851 41.3207 40.0915C40.1088 37.6031 39.6986 36.4635 39.4572 35.9883C39.2156 35.5132 38.4377 34.5328 37.483 34.8749C36.4342 35.2506 36.6561 36.6957 36.6561 36.6957C36.6561 36.6957 37.2221 39.5249 37.2052 41.1033C37.1881 42.6819 36.6527 44.1597 37.1935 46.2699C37.3078 46.7162 37.4787 47.0842 37.6767 47.3886C37.7676 47.5908 37.8714 47.8082 37.9917 48.0407C38.6773 49.3664 40.1517 50.9166 40.1517 50.9166L40.1542 51.8475H47.9899C47.9553 50.8943 47.9692 49.7631 48.1019 48.5776C48.5666 44.4316 49.7573 40.5346 48.8818 38.2097Z" fill="#8AC9F9"/>
<path d="M47.5574 54.6646C48.0104 54.6646 48.3777 54.2973 48.3777 53.8442C48.3777 53.3912 48.0104 53.0239 47.5574 53.0239C47.1043 53.0239 46.7371 53.3912 46.7371 53.8442C46.7371 54.2973 47.1043 54.6646 47.5574 54.6646Z" fill="white"/>
<path d="M26.368 38.6174C26.101 38.3505 25.6682 38.3505 25.4012 38.6174L24.2803 39.7385V27.3774C24.2803 27 23.9742 26.6938 23.5967 26.6938C23.2192 26.6938 22.9131 27 22.9131 27.3774V39.7385L21.792 38.6174C21.525 38.3505 21.0923 38.3505 20.8253 38.6174C20.5582 38.8844 20.5582 39.3172 20.8253 39.5841L23.1132 41.8721C23.2415 42.0003 23.4154 42.0722 23.5967 42.0722C23.778 42.0722 23.9519 42.0002 24.0801 41.8721L26.3681 39.5841C26.635 39.3172 26.635 38.8844 26.368 38.6174Z" fill="#330D84"/>
</svg>
