<svg width="30" height="31" viewBox="0 0 30 31" fill="none" xmlns="http://www.w3.org/2000/svg">
<path fill-rule="evenodd" clip-rule="evenodd" d="M11.0972 8.17492C11.0972 10.5083 9.17357 12.3995 6.79859 12.3995C4.42499 12.3995 2.5 10.5083 2.5 8.17492C2.5 5.84295 4.42499 3.95172 6.79859 3.95172C9.17357 3.95172 11.0972 5.84295 11.0972 8.17492ZM25.8888 6.32469C26.9277 6.32469 27.7721 7.15432 27.7721 8.17498C27.7721 9.19701 26.9277 10.0266 25.8888 10.0266H17.6694C16.6291 10.0266 15.7847 9.19701 15.7847 8.17498C15.7847 7.15432 16.6291 6.32469 17.6694 6.32469H25.8888ZM4.38471 20.4475H12.6041C13.6444 20.4475 14.4888 21.2771 14.4888 22.2991C14.4888 23.3198 13.6444 24.1508 12.6041 24.1508H4.38471C3.34444 24.1508 2.5 23.3198 2.5 22.2991C2.5 21.2771 3.34444 20.4475 4.38471 20.4475ZM23.4749 26.4722C25.8499 26.4722 27.7735 24.5809 27.7735 22.249C27.7735 19.9156 25.8499 18.0244 23.4749 18.0244C21.1013 18.0244 19.1763 19.9156 19.1763 22.249C19.1763 24.5809 21.1013 26.4722 23.4749 26.4722Z" fill="#6CE1F5"/>
</svg>
