<svg width="68" height="68" viewBox="0 0 68 68" fill="none" xmlns="http://www.w3.org/2000/svg">
<circle cx="34" cy="34" r="34" fill="url(#paint0_linear_3229_690)"/>
<path fill-rule="evenodd" clip-rule="evenodd" d="M33.5242 51.3489C33.718 51.4502 33.9347 51.5016 34.1514 51.4999C34.3681 51.4982 34.583 51.445 34.7786 51.342L41.0224 48.0043C42.7929 47.0605 44.1795 46.0051 45.2612 44.7764C47.6132 42.0994 48.8976 38.6827 48.8747 35.1596L48.8007 23.5385C48.7936 22.1999 47.9145 21.0056 46.6143 20.5714L34.9988 16.6742C34.2994 16.4374 33.533 16.4426 32.8459 16.6862L21.2744 20.7224C19.9813 21.1737 19.118 22.3767 19.125 23.7169L19.199 35.3295C19.2219 38.8577 20.5503 42.2589 22.9411 44.9085C24.0334 46.1201 25.4323 47.16 27.2222 48.0884L33.5242 51.3489ZM31.8713 37.6906C32.132 37.9412 32.4703 38.0647 32.8085 38.0613C33.1468 38.0596 33.4833 37.9326 33.7405 37.6786L40.5639 30.9517C41.0766 30.4454 41.0713 29.632 40.5534 29.1327C40.0337 28.6333 39.1968 28.6367 38.6841 29.1429L32.7892 34.9535L30.3755 32.6334C29.8558 32.134 29.0207 32.1392 28.5063 32.6454C27.9936 33.1517 27.9989 33.9651 28.5186 34.4644L31.8713 37.6906Z" fill="white"/>
<defs>
<linearGradient id="paint0_linear_3229_690" x1="34" y1="0" x2="34" y2="68" gradientUnits="userSpaceOnUse">
<stop stop-color="#5E8BFF"/>
<stop offset="1" stop-color="#9541FF"/>
</linearGradient>
</defs>
</svg>
