<svg width="96" height="96" viewBox="0 0 96 96" fill="none" xmlns="http://www.w3.org/2000/svg">
<path d="M48.0005 7.67407C25.7291 7.67407 7.67493 25.7292 7.67493 48.0004C7.67493 70.2709 25.7291 88.3257 48.0005 88.3257C70.2707 88.3257 88.3256 70.2709 88.3256 48.0004C88.3256 25.7292 70.2707 7.67407 48.0005 7.67407Z" fill="#EDF3FC"/>
<path d="M48.0006 0.1875C21.6364 0.1875 0.1875 21.6364 0.1875 48.0004C0.1875 74.3644 21.6364 95.8125 48.0006 95.8125C74.3646 95.8125 95.8125 74.3644 95.8125 48.0004C95.8125 21.6364 74.3646 0.1875 48.0006 0.1875ZM48.0006 94.281C22.4811 94.281 1.71994 73.5195 1.71994 48.0004C1.71994 22.4807 22.4811 1.71938 48.0006 1.71938C73.5197 1.71938 94.2803 22.4809 94.2803 48.0004C94.2803 73.5195 73.5197 94.281 48.0006 94.281Z" fill="#EDF3FC"/>
<path d="M84.0043 48.8592C82.0003 48.3574 80.4368 46.7929 79.9346 44.7899L79.8486 44.4482L79.7629 44.7899C79.2608 46.7931 77.6966 48.3574 75.6924 48.8592L75.3516 48.9452L75.6924 49.0309C77.6966 49.5327 79.2608 51.0972 79.7629 53.1006L79.8486 53.4422L79.9346 53.1006C80.4368 51.0972 82.0005 49.5327 84.0043 49.0309L84.3463 48.9452L84.0043 48.8592Z" fill="#FFBE1B"/>
<path d="M44.9023 73.3875C42.4862 72.7822 40.6007 70.8956 39.9954 68.4806L39.8916 68.0688L39.7881 68.4806C39.183 70.8956 37.2967 72.782 34.8801 73.3875L34.4689 73.4908L34.8801 73.5943C37.2967 74.1997 39.183 76.0856 39.7881 78.5019L39.8916 78.9144L39.9954 78.5019C40.6007 76.0856 42.4862 74.1997 44.9023 73.5943L45.315 73.4908L44.9023 73.3875Z" fill="#330D84"/>
<path d="M33.5683 26.167C31.3366 25.608 29.5953 23.8658 29.0362 21.6349L28.9404 21.2546L28.8448 21.6349C28.286 23.8658 26.5438 25.6078 24.3116 26.167L23.9319 26.2626L24.3116 26.358C26.5436 26.9173 28.2858 28.6592 28.8448 30.8912L28.9404 31.2715L29.0362 30.8912C29.5953 28.6594 31.3368 26.9175 33.5683 26.358L33.9494 26.2626L33.5683 26.167Z" fill="#5D8EF9"/>
<path d="M42.0647 28.8685C40.6408 28.5117 39.5295 27.3998 39.1728 25.9769L39.1115 25.7339L39.0506 25.9769C38.694 27.3998 37.5823 28.5115 36.158 28.8685L35.9158 28.93L36.158 28.9904C37.5823 29.3474 38.694 30.4585 39.0506 31.8826L39.1115 32.1256L39.1728 31.8826C39.5295 30.4585 40.6408 29.3476 42.0647 28.9904L42.3078 28.93L42.0647 28.8685Z" fill="#5D8EF9"/>
<path d="M60.3431 33.2847L27.8349 38.2686C27.8349 38.2714 27.8347 38.274 27.8347 38.2769H65.1654C62.919 37.4607 61.1034 35.6447 60.3431 33.2847Z" fill="#8AC9F9"/>
<path d="M69.5138 33.3423C69.1817 31.1768 67.15 29.6853 64.9846 30.0172L22.4279 36.5418C20.2624 36.8737 18.7709 38.9056 19.1027 41.0708L22.0737 60.4501C22.0969 60.602 22.1294 60.7497 22.1687 60.8943V42.2498C22.1687 40.0591 23.9511 38.2769 26.1419 38.2769H27.8348C27.835 38.2741 27.835 38.2715 27.835 38.2687L60.3432 33.2847C61.1035 35.645 62.919 37.4607 65.1655 38.2769H69.1956C69.5772 38.2769 69.945 38.3341 70.2945 38.4348L69.5138 33.3423Z" fill="#5D8EF9"/>
<path d="M64.1128 40.8032H31.2248C30.6863 44.1514 28.0431 46.7944 24.6951 47.3327V56.7722C28.0433 57.3105 30.6863 59.9539 31.2248 63.3023H57.093C57.2394 62.4647 58.0931 61.8212 59.1274 61.8212C57.9904 61.8212 57.0686 61.044 57.0686 60.0857V59.3485C57.0686 58.3905 57.9904 57.6132 59.1274 57.6132C57.9904 57.6132 57.0686 56.8363 57.0686 55.8777V55.1406C57.0686 54.1821 57.9904 53.4049 59.1274 53.4049H70.6425V47.3325C67.2945 46.7944 64.6513 44.1516 64.1128 40.8032Z" fill="#6857E5"/>
<path d="M47.6688 43.4202C42.9011 43.4202 39.0361 47.2849 39.0361 52.0525C39.0361 56.8206 42.9011 60.6854 47.6688 60.6854C52.4366 60.6854 56.3013 56.8206 56.3013 52.0525C56.3011 47.2849 52.4366 43.4202 47.6688 43.4202Z" fill="#330D84"/>
<path d="M69.1956 38.2769H26.1418C23.9511 38.2769 22.1687 40.0592 22.1687 42.2498V61.8553C22.1687 64.0461 23.9511 65.8287 26.1418 65.8287H58.167C58.0886 65.7934 58.0136 65.7539 57.9416 65.7111C57.9328 65.7059 57.9246 65.7002 57.9159 65.6948C57.8546 65.6571 57.7958 65.6164 57.7399 65.5733C57.7296 65.5654 57.7191 65.5577 57.7089 65.5497C57.5867 65.4518 57.4791 65.3408 57.3883 65.22C57.3778 65.2063 57.3681 65.1923 57.3581 65.178C57.3219 65.1267 57.2886 65.0734 57.2586 65.0187C57.2528 65.0078 57.2458 64.9975 57.24 64.9862C57.2066 64.9221 57.1781 64.8552 57.1541 64.7867C57.1489 64.7717 57.1448 64.7562 57.1401 64.741C57.1226 64.686 57.1086 64.63 57.0975 64.5732C57.0936 64.5535 57.0896 64.5334 57.0866 64.5135C57.0758 64.4413 57.0683 64.3682 57.0683 64.2936V63.5565C57.0683 63.5097 57.0722 63.4634 57.0767 63.4174C57.0806 63.379 57.0861 63.3411 57.0926 63.3034C57.0928 63.3029 57.0928 63.3025 57.093 63.3021H31.2248C30.6863 59.9537 28.0431 57.3103 24.6951 56.772V47.3325C28.0433 46.7942 30.6863 44.1512 31.2248 40.803H64.1128C64.6511 44.1512 67.2945 46.7942 70.6423 47.3325V53.4049H73.1689V42.2496C73.1689 40.059 71.3865 38.2769 69.1956 38.2769Z" fill="#330D84"/>
<path d="M50.8066 52.1478C50.2786 51.6985 49.4523 51.3413 48.3285 51.0773H48.2846V48.3209C49.0372 48.4287 49.7362 48.7122 50.3816 49.1714L51.3345 47.8223C50.3765 47.1678 49.3599 46.801 48.2846 46.7227V45.9751H47.3461V46.7082C46.3978 46.7573 45.6281 47.0504 45.0369 47.5878C44.4451 48.1255 44.1496 48.8172 44.1496 49.6625C44.1496 50.5083 44.4061 51.1462 44.9193 51.5757C45.4325 52.0062 46.2412 52.3531 47.346 52.6173V55.4617C46.4758 55.3248 45.6303 54.8995 44.8095 54.1857L43.739 55.4617C44.8044 56.3907 46.0066 56.9236 47.346 57.0597V58.1305H48.2844V57.0743C49.2811 57.0258 50.0829 56.7327 50.6893 56.1948C51.2949 55.6576 51.5983 54.961 51.5983 54.1055C51.5983 53.2499 51.3343 52.598 50.8066 52.1478ZM47.346 50.8137C46.7986 50.6377 46.4272 50.4545 46.2315 50.2636C46.0357 50.0731 45.9386 49.8144 45.9386 49.4866C45.9386 49.159 46.0629 48.8855 46.3125 48.6653C46.5616 48.4452 46.9065 48.3162 47.3461 48.2769V50.8137H47.346ZM49.3985 55.0951C49.125 55.3201 48.7539 55.457 48.2846 55.5055V52.8667C48.8709 53.0425 49.272 53.2306 49.4868 53.431C49.7019 53.6313 49.8095 53.903 49.8095 54.2448C49.8093 54.5873 49.6725 54.8703 49.3985 55.0951Z" fill="white"/>
<path d="M74.8847 61.8213H59.1274C57.9904 61.8213 57.0686 62.5987 57.0686 63.557V64.294C57.0686 65.2522 57.9904 66.0294 59.1274 66.0294H74.8847C76.0217 66.0294 76.9434 65.2522 76.9434 64.294V63.557C76.9434 62.5985 76.0217 61.8213 74.8847 61.8213Z" fill="#FFBE1B"/>
<path d="M74.8847 57.6133H59.1274C57.9904 57.6133 57.0686 58.3905 57.0686 59.3486V60.0858C57.0686 61.0442 57.9904 61.8213 59.1274 61.8213H74.8847C76.0217 61.8213 76.9434 61.0442 76.9434 60.0858V59.3486C76.9434 58.3905 76.0217 57.6133 74.8847 57.6133Z" fill="#FFCA45"/>
<path d="M74.8847 53.405H59.1274C57.9904 53.405 57.0686 54.1822 57.0686 55.1407V55.8778C57.0686 56.8363 57.9904 57.6133 59.1274 57.6133H74.8847C76.0217 57.6133 76.9434 56.8365 76.9434 55.8778V55.1407C76.9434 54.1822 76.0217 53.405 74.8847 53.405Z" fill="#FFE37B"/>
</svg>
