<svg width="68" height="68" viewBox="0 0 68 68" fill="none" xmlns="http://www.w3.org/2000/svg">
<circle cx="34" cy="34" r="34" fill="url(#paint0_linear_3229_691)"/>
<path d="M33.895 16.8674L29.6775 26.6849H25.46C24.76 26.6849 24.0775 26.7374 23.4125 26.8774L25.1625 22.6774L25.2325 22.5199L25.3375 22.2399C25.39 22.1174 25.425 22.0124 25.4775 21.9249C27.5075 17.2174 29.7825 15.7474 33.895 16.8674Z" fill="white"/>
<path d="M45.7775 27.1574L45.7425 27.1399C44.6925 26.8424 43.625 26.6849 42.54 26.6849H31.585L35.5225 17.5324L35.575 17.4099C35.82 17.4974 36.0825 17.6199 36.345 17.7074L40.2125 19.3349C42.365 20.2274 43.87 21.1549 44.7975 22.2749C44.955 22.4849 45.095 22.6774 45.235 22.9049C45.3925 23.1499 45.515 23.3949 45.585 23.6574C45.655 23.8149 45.7075 23.9549 45.7425 24.1124C46.005 25.0049 46.0225 26.0199 45.7775 27.1574Z" fill="white"/>
<path d="M34.91 43.9051H35.3475C35.8725 43.9051 36.31 43.4326 36.31 42.8551C36.31 42.1201 36.1 42.0151 35.645 41.8401L34.91 41.5776V43.9051Z" fill="white"/>
<path d="M45.0075 29.6601C44.22 29.4326 43.3975 29.3101 42.54 29.3101H25.46C24.27 29.3101 23.15 29.5376 22.1 29.9926C19.055 31.3051 16.92 34.3326 16.92 37.8501V41.2626C16.92 41.6826 16.955 42.0851 17.0075 42.5051C17.3925 48.0701 20.3675 51.0451 25.9325 51.4126C26.335 51.4651 26.7375 51.5001 27.175 51.5001H40.825C47.3 51.5001 50.7125 48.4201 51.045 42.2951C51.0625 41.9626 51.08 41.6126 51.08 41.2626V37.8501C51.08 33.9826 48.5075 30.7276 45.0075 29.6601ZM36.24 40.1251C37.045 40.4051 38.13 41.0001 38.13 42.8551C38.13 44.4476 36.8875 45.7251 35.3475 45.7251H34.91V46.1101C34.91 46.6176 34.5075 47.0201 34 47.0201C33.4925 47.0201 33.09 46.6176 33.09 46.1101V45.7251H32.9325C31.2525 45.7251 29.87 44.3076 29.87 42.5576C29.87 42.0501 30.2725 41.6476 30.78 41.6476C31.2875 41.6476 31.69 42.0501 31.69 42.5576C31.69 43.2926 32.25 43.9051 32.9325 43.9051H33.09V40.9476L31.76 40.4751C30.955 40.1951 29.87 39.6001 29.87 37.7451C29.87 36.1526 31.1125 34.8751 32.6525 34.8751H33.09V34.4901C33.09 33.9826 33.4925 33.5801 34 33.5801C34.5075 33.5801 34.91 33.9826 34.91 34.4901V34.8751H35.0675C36.7475 34.8751 38.13 36.2926 38.13 38.0426C38.13 38.5501 37.7275 38.9526 37.22 38.9526C36.7125 38.9526 36.31 38.5501 36.31 38.0426C36.31 37.3076 35.75 36.6951 35.0675 36.6951H34.91V39.6526L36.24 40.1251Z" fill="white"/>
<path d="M31.69 37.7451C31.69 38.4801 31.9 38.5851 32.355 38.7601L33.09 39.0226V36.6951H32.6525C32.11 36.6951 31.69 37.1676 31.69 37.7451Z" fill="white"/>
<defs>
<linearGradient id="paint0_linear_3229_691" x1="34" y1="0" x2="34" y2="68" gradientUnits="userSpaceOnUse">
<stop stop-color="#5E8BFF"/>
<stop offset="1" stop-color="#9541FF"/>
</linearGradient>
</defs>
</svg>
