<svg width="72" height="72" viewBox="0 0 72 72" fill="none" xmlns="http://www.w3.org/2000/svg">
<circle cx="36" cy="36" r="36" fill="#0D3EFF"/>
<circle cx="36" cy="36" r="36" fill="white" fill-opacity="0.15"/>
<path d="M30.7266 37.0547C28.9818 37.0547 27.5625 38.474 27.5625 40.2188V45.4922C27.5625 50.152 31.34 54 36 54C40.66 54 44.4375 50.152 44.4375 45.4922V41.739C44.4375 40.3753 43.5682 39.1692 42.2745 38.7376L38.1094 37.3492V30.6562C38.1094 29.4912 37.165 28.5469 36 28.5469C34.835 28.5469 33.8906 29.4912 33.8906 30.6562V43.3828C33.8906 43.9653 33.4184 44.4375 32.8359 44.4375C32.2535 44.4375 31.7812 43.9653 31.7812 43.3828V37.0547H30.7266Z" fill="white"/>
<path d="M25.3828 32.7656H31.7812V30.6562C31.7812 28.3295 33.6733 26.4375 36 26.4375C38.3267 26.4375 40.2188 28.3295 40.2188 30.6562V32.7656H46.5469C50.6173 32.7656 54 29.4533 54 25.3828C54 21.3124 50.6173 18 46.5469 18H25.3828C21.3124 18 18 21.3124 18 25.3828C18 29.4533 21.3124 32.7656 25.3828 32.7656ZM29.4988 26.1058C30.7915 23.7081 33.2829 22.2188 36 22.2188C38.7171 22.2188 41.2076 23.7081 42.5012 26.1058C42.7782 26.6177 42.5867 27.2584 42.0737 27.5344C41.5729 27.8075 40.9257 27.627 40.6452 27.1069C39.7202 25.3931 37.9405 24.3281 36 24.3281C34.0595 24.3281 32.2798 25.3931 31.3549 27.1069C31.0778 27.6188 30.4403 27.8135 29.9263 27.5344C29.4133 27.2584 29.2218 26.6188 29.4988 26.1058V26.1058Z" fill="white"/>
</svg>
