<svg width="45" height="44" viewBox="0 0 45 44" fill="none" xmlns="http://www.w3.org/2000/svg">
<rect x="0.5" y="0.000610352" width="44" height="44" rx="22" fill="url(#paint0_linear_21_203)"/>
<path d="M26.74 12.0006H18.26C15.5 12.0006 14.5 13.0006 14.5 15.8106V28.1906C14.5 31.0006 15.5 32.0006 18.26 32.0006H26.73C29.5 32.0006 30.5 31.0006 30.5 28.1906V15.8106C30.5 13.0006 29.5 12.0006 26.74 12.0006ZM22.5 29.3006C21.54 29.3006 20.75 28.5106 20.75 27.5506C20.75 26.5906 21.54 25.8006 22.5 25.8006C23.46 25.8006 24.25 26.5906 24.25 27.5506C24.25 28.5106 23.46 29.3006 22.5 29.3006ZM24.5 16.2506H20.5C20.09 16.2506 19.75 15.9106 19.75 15.5006C19.75 15.0906 20.09 14.7506 20.5 14.7506H24.5C24.91 14.7506 25.25 15.0906 25.25 15.5006C25.25 15.9106 24.91 16.2506 24.5 16.2506Z" fill="white"/>
<defs>
<linearGradient id="paint0_linear_21_203" x1="22.688" y1="0.000610331" x2="22.688" y2="44.0006" gradientUnits="userSpaceOnUse">
<stop stop-color="#5270FC"/>
<stop offset="1" stop-color="#3859F2"/>
</linearGradient>
</defs>
</svg>
