<svg width="44" height="44" viewBox="0 0 44 44" fill="none" xmlns="http://www.w3.org/2000/svg">
<rect width="44" height="44" rx="22" fill="url(#paint0_linear_90_1391)"/>
<path d="M29 25C26.79 25 25 26.79 25 29C25 29.75 25.21 30.46 25.58 31.06C26.27 32.22 27.54 33 29 33C30.46 33 31.73 32.22 32.42 31.06C32.79 30.46 33 29.75 33 29C33 26.79 31.21 25 29 25ZM31.07 28.57L28.94 30.54C28.8 30.67 28.61 30.74 28.43 30.74C28.24 30.74 28.05 30.67 27.9 30.52L26.91 29.53C26.62 29.24 26.62 28.76 26.91 28.47C27.2 28.18 27.68 28.18 27.97 28.47L28.45 28.95L30.05 27.47C30.35 27.19 30.83 27.21 31.11 27.51C31.39 27.81 31.37 28.28 31.07 28.57Z" fill="white"/>
<path d="M32 17.55V18C32 18.55 31.55 19 31 19H13C12.45 19 12 18.55 12 18V17.54C12 15.25 13.85 13.4 16.14 13.4H27.85C30.14 13.4 32 15.26 32 17.55Z" fill="white"/>
<path d="M12 21.5V26.46C12 28.75 13.85 30.6 16.14 30.6H22.4C22.98 30.6 23.48 30.11 23.43 29.53C23.29 28 23.78 26.34 25.14 25.02C25.7 24.47 26.39 24.05 27.14 23.81C28.39 23.41 29.6 23.46 30.67 23.82C31.32 24.04 32 23.57 32 22.88V21.49C32 20.94 31.55 20.49 31 20.49H13C12.45 20.5 12 20.95 12 21.5ZM18 27.25H16C15.59 27.25 15.25 26.91 15.25 26.5C15.25 26.09 15.59 25.75 16 25.75H18C18.41 25.75 18.75 26.09 18.75 26.5C18.75 26.91 18.41 27.25 18 27.25Z" fill="white"/>
<defs>
<linearGradient id="paint0_linear_90_1391" x1="22" y1="0" x2="22" y2="44" gradientUnits="userSpaceOnUse">
<stop stop-color="#5E8BFF"/>
<stop offset="1" stop-color="#9541FF"/>
</linearGradient>
</defs>
</svg>
