<svg width="45" height="44" viewBox="0 0 45 44" fill="none" xmlns="http://www.w3.org/2000/svg">
<rect x="0.5" y="0.000610352" width="44" height="44" rx="22" fill="url(#paint0_linear_21_181)"/>
<path d="M26.69 12.0006H18.31C14.67 12.0006 12.5 14.1706 12.5 17.8106V26.1806C12.5 29.8306 14.67 32.0006 18.31 32.0006H26.68C30.32 32.0006 32.49 29.8306 32.49 26.1906V17.8106C32.5 14.1706 30.33 12.0006 26.69 12.0006ZM18.13 28.1506C18.13 28.5606 17.79 28.9006 17.38 28.9006C16.97 28.9006 16.63 28.5606 16.63 28.1506V26.0806C16.63 25.6706 16.97 25.3306 17.38 25.3306C17.79 25.3306 18.13 25.6706 18.13 26.0806V28.1506ZM23.25 28.1506C23.25 28.5606 22.91 28.9006 22.5 28.9006C22.09 28.9006 21.75 28.5606 21.75 28.1506V24.0006C21.75 23.5906 22.09 23.2506 22.5 23.2506C22.91 23.2506 23.25 23.5906 23.25 24.0006V28.1506ZM28.37 28.1506C28.37 28.5606 28.03 28.9006 27.62 28.9006C27.21 28.9006 26.87 28.5606 26.87 28.1506V21.9306C26.87 21.5206 27.21 21.1806 27.62 21.1806C28.03 21.1806 28.37 21.5206 28.37 21.9306V28.1506ZM28.37 18.7706C28.37 19.1806 28.03 19.5206 27.62 19.5206C27.21 19.5206 26.87 19.1806 26.87 18.7706V17.8006C24.32 20.4206 21.13 22.2706 17.56 23.1606C17.5 23.1806 17.44 23.1806 17.38 23.1806C17.04 23.1806 16.74 22.9506 16.65 22.6106C16.55 22.2106 16.79 21.8006 17.2 21.7006C20.57 20.8606 23.57 19.0906 25.95 16.5906H24.7C24.29 16.5906 23.95 16.2506 23.95 15.8406C23.95 15.4306 24.29 15.0906 24.7 15.0906H27.63C27.67 15.0906 27.7 15.1106 27.74 15.1106C27.79 15.1206 27.84 15.1206 27.89 15.1406C27.94 15.1606 27.98 15.1906 28.03 15.2206C28.06 15.2406 28.09 15.2506 28.12 15.2706C28.13 15.2806 28.13 15.2906 28.14 15.2906C28.18 15.3306 28.21 15.3706 28.24 15.4106C28.27 15.4506 28.3 15.4806 28.31 15.5206C28.33 15.5606 28.33 15.6006 28.34 15.6506C28.35 15.7006 28.37 15.7506 28.37 15.8106C28.37 15.8206 28.38 15.8306 28.38 15.8406V18.7706H28.37Z" fill="white"/>
<defs>
<linearGradient id="paint0_linear_21_181" x1="22.688" y1="0.000610331" x2="22.688" y2="44.0006" gradientUnits="userSpaceOnUse">
<stop stop-color="#5270FC"/>
<stop offset="1" stop-color="#3859F2"/>
</linearGradient>
</defs>
</svg>
