<svg width="80" height="80" viewBox="0 0 80 80" fill="none" xmlns="http://www.w3.org/2000/svg">
<rect width="80" height="80" rx="11" fill="#0EB564"/>
<path fill-rule="evenodd" clip-rule="evenodd" d="M39.5016 58.1751C39.7046 58.2812 39.9316 58.3351 40.1587 58.3333C40.3857 58.3315 40.6108 58.2758 40.8157 58.1679L47.3568 54.6713C49.2117 53.6825 50.6643 52.5769 51.7976 51.2896C54.2615 48.4851 55.607 44.9057 55.5831 41.2149L55.5055 29.0404C55.4982 27.6381 54.5772 26.3869 53.215 25.932L41.0464 21.8493C40.3137 21.6012 39.5108 21.6066 38.791 21.8619L26.6685 26.0902C25.3138 26.563 24.4094 27.8233 24.4168 29.2274L24.4943 41.3929C24.5183 45.0891 25.91 48.6523 28.4145 51.4281C29.5589 52.6973 31.0243 53.7868 32.8996 54.7594L39.5016 58.1751ZM37.77 43.8665C38.0431 44.1289 38.3975 44.2584 38.7519 44.2548C39.1063 44.253 39.4588 44.1199 39.7283 43.8539L46.8766 36.8066C47.4137 36.2762 47.4082 35.4241 46.8655 34.901C46.3211 34.3778 45.4443 34.3814 44.9073 34.9117L38.7316 40.999L36.203 38.5684C35.6585 38.0453 34.7837 38.0507 34.2447 38.581C33.7076 39.1113 33.7132 39.9635 34.2576 40.4866L37.77 43.8665Z" fill="white"/>
</svg>
