<svg width="96" height="96" viewBox="0 0 96 96" fill="none" xmlns="http://www.w3.org/2000/svg">
<path d="M48.0007 7.67383C25.7292 7.67383 7.67505 25.729 7.67505 48.0004C7.67505 70.2707 25.7292 88.3255 48.0007 88.3255C70.2706 88.3255 88.3256 70.2707 88.3256 48.0004C88.3256 25.729 70.2706 7.67383 48.0007 7.67383Z" fill="#EDF3FC"/>
<path d="M48.0007 0.1875C21.6364 0.1875 0.1875 21.6362 0.1875 48.0004C0.1875 74.3642 21.6364 95.8125 48.0007 95.8125C74.3646 95.8125 95.8125 74.3642 95.8125 48.0004C95.8125 21.6362 74.3646 0.1875 48.0007 0.1875ZM48.0007 94.2808C22.4811 94.2808 1.71994 73.5193 1.71994 48.0004C1.71994 22.4805 22.4812 1.71919 48.0007 1.71919C73.5199 1.71919 94.2803 22.4807 94.2803 48.0004C94.2803 73.5193 73.5197 94.2808 48.0007 94.2808Z" fill="#EDF3FC"/>
<path d="M75.9416 28.2847C73.9378 27.783 72.3742 26.2188 71.8721 24.2154L71.7861 23.8738L71.7004 24.2154C71.1982 26.219 69.6341 27.783 67.6299 28.2847L67.2891 28.3708L67.6299 28.4565C69.6341 28.9582 71.1982 30.5227 71.7004 32.5262L71.7861 32.8678L71.8721 32.5262C72.3742 30.5225 73.938 28.9582 75.9416 28.4565L76.2838 28.3708L75.9416 28.2847Z" fill="#FFBE1B"/>
<path d="M29.1568 64.5051C26.5376 63.8489 24.4937 61.8036 23.8376 59.1859L23.7249 58.7395L23.6126 59.1859C22.9566 61.8036 20.9121 63.8489 18.2921 64.5051L17.8464 64.6176L18.2921 64.7294C20.9121 65.3856 22.9566 67.4303 23.6126 70.0493L23.7249 70.4961L23.8376 70.0493C24.4937 67.4303 26.5376 65.3856 29.1568 64.7294L29.6042 64.6176L29.1568 64.5051Z" fill="#330D84"/>
<path d="M28.3946 33.2832C26.163 32.724 24.4217 30.982 23.8624 28.7509L23.7666 28.3708L23.6709 28.7509C23.1122 30.9818 21.3699 32.7238 19.1377 33.2832L18.7581 33.3788L19.1377 33.474C21.3697 34.0335 23.112 35.7752 23.6709 38.007L23.7666 38.3875L23.8624 38.007C24.4215 35.7754 26.163 34.0337 28.3946 33.474L28.7758 33.3788L28.3946 33.2832Z" fill="#5D8EF9"/>
<path d="M30.7281 23.8066C29.1782 23.4185 27.9688 22.2083 27.5805 20.6594L27.514 20.395L27.4476 20.6594C27.0595 22.2085 25.8495 23.4185 24.2993 23.8066L24.0356 23.8731L24.2993 23.9391C25.8495 24.328 27.0595 25.5376 27.4476 27.0875L27.514 27.3518L27.5805 27.0875C27.9688 25.5376 29.1782 24.328 30.7281 23.9391L30.9928 23.8731L30.7281 23.8066Z" fill="#5D8EF9"/>
<path d="M49.9032 34.0137H62.5574V24.9613C62.5574 22.9849 60.9547 21.3816 58.9773 21.3816H37.0233C35.0458 21.3816 33.4426 22.9849 33.4426 24.9613V70.0997C33.4426 72.0777 35.0458 73.6806 37.0233 73.6806H58.9775C60.9549 73.6806 62.5576 72.0777 62.5576 70.0997V54.5974H59.7427L53.2976 60.933V54.5974H49.9032C47.3105 54.5974 45.2084 52.495 45.2084 49.9026V38.7094C45.2084 36.1165 47.3105 34.0137 49.9032 34.0137Z" fill="#330D84"/>
<path d="M75.8251 34.0137H49.9031C47.3103 34.0137 45.2083 36.1165 45.2083 38.7094V49.9026C45.2083 52.495 47.3103 54.5974 49.9031 54.5974H53.2974V60.9331L59.7425 54.5974H75.8251C78.4169 54.5974 80.5201 52.495 80.5201 49.9026V38.7094C80.5201 36.1165 78.4171 34.0137 75.8251 34.0137Z" fill="#FFBE1B"/>
<path d="M50.9217 68.0693H45.0785C44.5218 68.0693 44.0703 68.5208 44.0703 69.0771V71.1155C44.0703 71.6723 44.5218 72.1237 45.0785 72.1237H50.9217C51.4786 72.1237 51.9299 71.6723 51.9299 71.1155V69.0771C51.9299 68.5208 51.4786 68.0693 50.9217 68.0693Z" fill="#5932AE"/>
<path d="M51.3755 22.448H44.6246C44.4288 22.448 44.27 22.607 44.27 22.8022V23.5192C44.27 23.7151 44.4288 23.8737 44.6246 23.8737H51.3755C51.5713 23.8737 51.7299 23.7151 51.7299 23.5192V22.8022C51.7299 22.6068 51.5713 22.448 51.3755 22.448Z" fill="#5932AE"/>
<path d="M49.9031 34.0137H60.4994V28.6088C60.4994 26.632 58.8965 25.0291 56.9193 25.0291H39.0811C37.1036 25.0291 35.5002 26.632 35.5002 28.6088V63.3677C35.5002 65.3453 37.1036 66.9486 39.0811 66.9486H56.9193C58.8965 66.9486 60.4994 65.3453 60.4994 63.3677V54.5976H59.7425L53.2974 60.9332V54.5976H49.9031C47.3103 54.5976 45.2082 52.4952 45.2082 49.9028V38.7094C45.2082 36.1165 47.3103 34.0137 49.9031 34.0137Z" fill="#8AC9F9"/>
<path d="M51.4056 43.7646H49.8452V42.399H51.4934C51.9128 42.399 52.2638 42.0478 52.2638 41.6092C52.2638 41.1898 51.9128 40.8386 51.4934 40.8386H49.0551C48.6359 40.8386 48.2847 41.1898 48.2847 41.6092V47.2854C48.2847 47.7047 48.6359 48.0559 49.0551 48.0559C49.494 48.0559 49.8452 47.7047 49.8452 47.2854V45.1299H51.4056C51.7858 45.1299 52.0883 44.8275 52.0883 44.4473C52.0883 44.0766 51.7858 43.7646 51.4056 43.7646Z" fill="#330D84"/>
<path d="M56.8568 40.78C54.838 40.78 53.1897 42.4184 53.1897 44.4473C53.1897 46.4757 54.838 48.1143 56.8568 48.1143C58.8856 48.1143 60.5241 46.4759 60.5241 44.4473C60.5241 42.4184 58.8858 40.78 56.8568 40.78ZM56.8473 46.5636C55.6771 46.5636 54.7504 45.6177 54.7504 44.4473C54.7504 43.277 55.6769 42.3307 56.8473 42.3307C57.9981 42.3307 58.9636 43.2963 58.9636 44.4473C58.9636 45.598 57.9979 46.5636 56.8473 46.5636Z" fill="#330D84"/>
<path d="M68.1599 40.8386C67.7502 40.8386 67.5162 41.1214 67.3602 41.4433C67.3015 41.5701 66.0921 44.0276 65.3412 45.5788C64.5805 44.0278 63.3809 41.5601 63.3224 41.4433C63.1566 41.1214 62.9224 40.8386 62.5129 40.8386C62.0937 40.8386 61.7427 41.1898 61.7427 41.6186V47.2755C61.7427 47.7047 62.0937 48.0559 62.5129 48.0559C62.9519 48.0559 63.303 47.7047 63.303 47.2755V44.5155L64.7269 47.412C64.8439 47.6561 65.0879 47.802 65.3414 47.802C65.5853 47.802 65.8292 47.6653 65.9558 47.412L67.3697 44.5155V47.2755C67.3697 47.7047 67.7209 48.0559 68.1599 48.0559C68.5889 48.0559 68.94 47.7047 68.94 47.2755V41.6186C68.94 41.1898 68.5889 40.8386 68.1599 40.8386Z" fill="#330D84"/>
<path d="M73.7765 40.78C71.7577 40.78 70.1094 42.4184 70.1094 44.4473C70.1094 46.4757 71.7577 48.1143 73.7765 48.1143C75.8051 48.1143 77.4438 46.4759 77.4438 44.4473C77.4436 42.4184 75.8051 40.78 73.7765 40.78ZM73.7668 46.5636C72.5966 46.5636 71.6699 45.6177 71.6699 44.4473C71.6699 43.277 72.5964 42.3307 73.7668 42.3307C74.9176 42.3307 75.8831 43.2963 75.8831 44.4473C75.8831 45.598 74.9174 46.5636 73.7668 46.5636Z" fill="#330D84"/>
</svg>
