<svg width="44" height="44" viewBox="0 0 44 44" fill="none" xmlns="http://www.w3.org/2000/svg">
<rect width="44" height="44" rx="22" fill="url(#paint0_linear_90_1392)"/>
<path d="M26.19 12H17.81C14.17 12 12 14.17 12 17.81V26.18C12 29.83 14.17 32 17.81 32H26.18C29.82 32 31.99 29.83 31.99 26.19V17.81C32 14.17 29.83 12 26.19 12ZM17.63 28.15C17.63 28.56 17.29 28.9 16.88 28.9C16.47 28.9 16.13 28.56 16.13 28.15V26.08C16.13 25.67 16.47 25.33 16.88 25.33C17.29 25.33 17.63 25.67 17.63 26.08V28.15ZM22.75 28.15C22.75 28.56 22.41 28.9 22 28.9C21.59 28.9 21.25 28.56 21.25 28.15V24C21.25 23.59 21.59 23.25 22 23.25C22.41 23.25 22.75 23.59 22.75 24V28.15ZM27.87 28.15C27.87 28.56 27.53 28.9 27.12 28.9C26.71 28.9 26.37 28.56 26.37 28.15V21.93C26.37 21.52 26.71 21.18 27.12 21.18C27.53 21.18 27.87 21.52 27.87 21.93V28.15ZM27.87 18.77C27.87 19.18 27.53 19.52 27.12 19.52C26.71 19.52 26.37 19.18 26.37 18.77V17.8C23.82 20.42 20.63 22.27 17.06 23.16C17 23.18 16.94 23.18 16.88 23.18C16.54 23.18 16.24 22.95 16.15 22.61C16.05 22.21 16.29 21.8 16.7 21.7C20.07 20.86 23.07 19.09 25.45 16.59H24.2C23.79 16.59 23.45 16.25 23.45 15.84C23.45 15.43 23.79 15.09 24.2 15.09H27.13C27.17 15.09 27.2 15.11 27.24 15.11C27.29 15.12 27.34 15.12 27.39 15.14C27.44 15.16 27.48 15.19 27.53 15.22C27.56 15.24 27.59 15.25 27.62 15.27C27.63 15.28 27.63 15.29 27.64 15.29C27.68 15.33 27.71 15.37 27.74 15.41C27.77 15.45 27.8 15.48 27.81 15.52C27.83 15.56 27.83 15.6 27.84 15.65C27.85 15.7 27.87 15.75 27.87 15.81C27.87 15.82 27.88 15.83 27.88 15.84V18.77H27.87Z" fill="white"/>
<defs>
<linearGradient id="paint0_linear_90_1392" x1="22" y1="0" x2="22" y2="44" gradientUnits="userSpaceOnUse">
<stop stop-color="#5E8BFF"/>
<stop offset="1" stop-color="#9541FF"/>
</linearGradient>
</defs>
</svg>
