<svg width="52" height="52" viewBox="0 0 52 52" fill="none" xmlns="http://www.w3.org/2000/svg">
<path d="M35.1867 4.33337H16.8134C10.8334 4.33337 8.66675 6.50004 8.66675 12.5884V39.4117C8.66675 45.5 10.8334 47.6667 16.8134 47.6667H35.1651C41.1667 47.6667 43.3334 45.5 43.3334 39.4117V12.5884C43.3334 6.50004 41.1667 4.33337 35.1867 4.33337ZM26.0001 41.8167C23.9201 41.8167 22.2084 40.105 22.2084 38.025C22.2084 35.945 23.9201 34.2334 26.0001 34.2334C28.0801 34.2334 29.7917 35.945 29.7917 38.025C29.7917 40.105 28.0801 41.8167 26.0001 41.8167ZM30.3334 13.5417H21.6667C20.7784 13.5417 20.0417 12.805 20.0417 11.9167C20.0417 11.0284 20.7784 10.2917 21.6667 10.2917H30.3334C31.2217 10.2917 31.9584 11.0284 31.9584 11.9167C31.9584 12.805 31.2217 13.5417 30.3334 13.5417Z" fill="#6CE1F5"/>
</svg>
