<svg width="72" height="72" viewBox="0 0 72 72" fill="none" xmlns="http://www.w3.org/2000/svg">
<circle cx="36" cy="36" r="36" fill="#0D3EFF"/>
<circle cx="36" cy="36" r="36" fill="white" fill-opacity="0.15"/>
<path d="M18.5831 51.1274L24.3984 54.0001V46.2146L18 43.0505V50.184C18 50.5836 18.2255 50.9483 18.5831 51.1274V51.1274Z" fill="white"/>
<path d="M26.5078 46.2144V53.9999L32.2531 51.1273C32.6104 50.9482 32.8359 50.5837 32.8359 50.1838V47.6718H39.1641V50.1838C39.1641 50.5837 39.3896 50.9482 39.7472 51.1273L45.4922 53.9999V46.2144L39.1641 43.0504V45.5624H37.0547V39.2417C36.7149 39.3623 36.3609 39.4452 36 39.4452C35.6391 39.4452 35.2853 39.3623 34.9453 39.2417V45.5624H32.8359V43.0501L26.5078 46.2144Z" fill="white"/>
<path d="M32.7111 40.754L25.9248 37.2364C25.6276 37.0879 25.2783 37.0879 24.9814 37.2364L18.1245 40.754L25.4529 44.383L32.7111 40.754Z" fill="white"/>
<path d="M47.6016 54.0001L53.4172 51.1274C53.7745 50.9484 54 50.5839 54 50.184V43.0503L47.6016 46.2146V54.0001Z" fill="white"/>
<path d="M47.0186 37.2364C46.7214 37.0879 46.372 37.0879 46.0751 37.2364L39.2886 40.754L46.5467 44.383L53.8751 40.754L47.0186 37.2364Z" fill="white"/>
<path d="M26.5078 34.3636C26.5078 34.7633 26.7333 35.128 27.0909 35.3071L34.9453 39.2344V28.1443L26.5078 23.9255V34.3636Z" fill="white"/>
<path d="M37.0547 39.2344L44.9094 35.3071C45.2667 35.128 45.4922 34.7635 45.4922 34.3636V23.9258L37.0547 28.1443V39.2344Z" fill="white"/>
<path d="M35.5717 18.0908L27.1982 21.9119L36.0002 26.3127L44.8022 21.9119L36.4287 18.0908C36.1559 17.9697 35.8445 17.9697 35.5717 18.0908V18.0908Z" fill="white"/>
</svg>
