<svg width="70" height="70" viewBox="0 0 70 70" fill="none" xmlns="http://www.w3.org/2000/svg">
<path d="M35.0005 5.5957C18.761 5.5957 5.59644 18.7608 5.59644 35.0002C5.59644 51.2391 18.761 64.4039 35.0005 64.4039C51.239 64.4039 64.4041 51.2391 64.4041 35.0002C64.4041 18.7608 51.239 5.5957 35.0005 5.5957Z" fill="#EDF3FC"/>
<path d="M35.0005 0.136719C15.7765 0.136719 0.136719 15.7764 0.136719 35.0003C0.136719 54.2239 15.7765 69.8633 35.0005 69.8633C54.2242 69.8633 69.8633 54.2239 69.8633 35.0003C69.8633 15.7764 54.2242 0.136719 35.0005 0.136719ZM35.0005 68.7464C16.3924 68.7464 1.25412 53.608 1.25412 35.0003C1.25412 16.3923 16.3926 1.25357 35.0005 1.25357C53.6082 1.25357 68.746 16.3923 68.746 35.0003C68.746 53.608 53.6081 68.7464 35.0005 68.7464Z" fill="#EDF3FC"/>
<path d="M28.1784 14.9185C26.5189 14.5026 25.2236 13.2067 24.8068 11.547L24.7362 11.2642L24.6653 11.547C24.2501 13.2068 22.9536 14.5028 21.2933 14.9185L21.0115 14.9896L21.2933 15.0612C22.9536 15.4766 24.2501 16.772 24.6653 18.4316L24.7362 18.7148L24.8068 18.4316C25.2236 16.772 26.5189 15.4766 28.1784 15.0612L28.4618 14.9896L28.1784 14.9185Z" fill="#FFBE1B"/>
<path d="M58.1002 37.7265C56.8567 37.4149 55.8863 36.4439 55.5739 35.2003L55.5208 34.9883L55.4678 35.2003C55.1567 36.4438 54.1852 37.4148 52.9412 37.7265L52.73 37.7797L52.9412 37.8334C54.1852 38.1446 55.1566 39.1153 55.4678 40.3589L55.5208 40.5711L55.5739 40.3589C55.8861 39.1153 56.8567 38.1447 58.1002 37.8334L58.3125 37.7797L58.1002 37.7265Z" fill="#5D8EF9"/>
<path d="M49.3944 22.6485L47.6475 21.128C47.1253 20.6736 46.3334 20.7284 45.8787 21.2507L44.3723 22.9818C45.7009 23.906 46.887 25.0208 47.8898 26.2874L49.517 24.4171C49.9719 23.8948 49.9167 23.1029 49.3944 22.6485Z" fill="#330D84"/>
<path d="M24.1215 21.2507C23.667 20.7283 22.8751 20.6736 22.3527 21.1281L20.6058 22.6485C20.0836 23.1031 20.0283 23.895 20.4832 24.4171L22.1104 26.2874C23.1134 25.0207 24.2994 23.9061 25.628 22.9819L24.1215 21.2507Z" fill="#330D84"/>
<path d="M38.244 15.9756H31.7564C31.0639 15.9756 30.5027 16.5368 30.5027 17.2292V20.6708C31.9321 20.265 33.4408 20.0478 35.0002 20.0478C36.5596 20.0478 38.0683 20.265 39.4978 20.6708V17.2292C39.4977 16.5368 38.9363 15.9756 38.244 15.9756Z" fill="#330D84"/>
<path d="M34.9999 20.0476C25.9241 20.0476 18.5669 27.405 18.5669 36.4809C18.5669 45.5567 25.9243 52.9141 34.9999 52.9141C36.0732 52.9141 37.122 52.8103 38.1375 52.6137V51.5509C38.1375 50.6755 38.8471 49.9658 39.7223 49.9658H41.9834C41.6685 49.5087 41.5307 48.9482 41.5995 48.3718C41.6994 47.5379 42.3226 46.8993 42.969 46.4539C43.5431 46.0583 43.5888 45.2739 43.0609 44.8254C41.2878 43.3218 39.7895 40.6055 39.7895 38.5359C39.7895 34.8964 42.003 33.3334 44.6403 33.1536C44.6649 33.152 44.6893 33.152 44.714 33.1536C47.351 33.3334 49.5643 34.8964 49.5643 38.5359C49.5643 40.6055 48.0657 43.3216 46.2935 44.8254C45.765 45.2737 45.811 46.0583 46.3848 46.4539C46.733 46.6938 47.0737 46.9904 47.3303 47.3427C49.8834 44.4467 51.433 40.645 51.433 36.4807C51.433 27.4051 44.0762 20.0476 34.9999 20.0476Z" fill="#6857E5"/>
<path d="M35 23.2317C27.6824 23.2317 21.7507 29.1635 21.7507 36.4811C21.7507 43.7987 27.6825 49.7304 35 49.7304C37.4514 49.7304 39.7466 49.0639 41.716 47.9034C41.946 47.295 42.4497 46.8122 42.9691 46.4542C43.5432 46.0587 43.5888 45.2742 43.0609 44.8257C41.2878 43.3221 39.7895 40.6058 39.7895 38.5363C39.7895 34.8967 42.003 33.3337 44.6403 33.1539C44.6649 33.1523 44.6894 33.1523 44.714 33.1539C46.0215 33.2431 47.2243 33.6728 48.1055 34.5266C47.1606 28.1359 41.6533 23.2317 35 23.2317Z" fill="#330D84"/>
<path d="M35.9913 34.5099L35.2085 26.5293C35.1822 26.2611 34.791 26.2615 34.7653 26.5299L34.0032 34.5123C33.285 34.8767 32.792 35.6203 32.792 36.4809C32.792 37.7006 33.7805 38.6891 35 38.6891C36.2193 38.6891 37.2081 37.7008 37.2081 36.4809C37.2081 35.6183 36.7124 34.8733 35.9913 34.5099Z" fill="#FFBE1B"/>
<path d="M25.9823 52.9866C24.2483 52.5703 22.8948 51.2729 22.4592 49.6127L22.385 49.3289L22.3114 49.6127C21.8762 51.2729 20.5221 52.5703 18.7875 52.9866L18.4922 53.0573L18.7875 53.1283C20.5222 53.5444 21.8762 54.8415 22.3114 56.5022L22.385 56.7858L22.4592 56.5022C22.8948 54.8415 24.2482 53.5444 25.9823 53.1283L26.2789 53.0573L25.9823 52.9866Z" fill="#330D84"/>
<path d="M18.9876 48.7107C17.7715 48.4059 16.822 47.4555 16.5165 46.2394L16.4646 46.0317L16.4128 46.2394C16.1076 47.4555 15.1577 48.4059 13.941 48.7107L13.7339 48.7626L13.941 48.8145C15.1577 49.1193 16.1076 50.0692 16.4128 51.2856L16.4646 51.4932L16.5165 51.2856C16.822 50.0692 17.7715 49.1191 18.9876 48.8145L19.1958 48.7626L18.9876 48.7107Z" fill="#330D84"/>
<path d="M46.3849 46.4541C45.811 46.0586 45.7651 45.2741 46.2935 44.8256C48.0658 43.322 49.5644 40.6057 49.5644 38.5362C49.5644 34.8966 47.3512 33.3336 44.714 33.1538C44.6894 33.1522 44.6649 33.1522 44.6403 33.1538C42.0029 33.3336 39.7896 34.8966 39.7896 38.5362C39.7896 40.6057 41.2878 43.3219 43.061 44.8256C43.5888 45.2739 43.5432 46.0586 42.9691 46.4541C42.3227 46.8995 41.6996 47.5381 41.5996 48.372C41.5307 48.9484 41.6686 49.5089 41.9835 49.966H47.3706C47.6855 49.5089 47.8234 48.9484 47.7545 48.372C47.6547 47.538 47.0314 46.8995 46.3849 46.4541Z" fill="#5D8EF9"/>
<path d="M38.9111 53.7585V54.1251C38.9111 54.4625 39.1847 54.7361 39.522 54.7361H49.832C50.1692 54.7361 50.4428 54.4625 50.4428 54.1251V53.7585H38.9111Z" fill="#8AC9F9"/>
<path d="M49.6314 49.9661H39.7223C38.8472 49.9661 38.1375 50.6756 38.1375 51.5512V53.7586H51.2162V51.5512C51.2162 50.6758 50.5067 49.9661 49.6314 49.9661Z" fill="#FFBE1B"/>
</svg>
