<svg width="56" height="56" viewBox="0 0 56 56" fill="none" xmlns="http://www.w3.org/2000/svg">
<circle cx="28" cy="28" r="28" fill="white"/>
<path fill-rule="evenodd" clip-rule="evenodd" d="M24.0972 20.675C24.0972 23.0083 22.1736 24.8995 19.7986 24.8995C17.425 24.8995 15.5 23.0083 15.5 20.675C15.5 18.343 17.425 16.4518 19.7986 16.4518C22.1736 16.4518 24.0972 18.343 24.0972 20.675ZM38.8888 18.8248C39.9277 18.8248 40.7721 19.6544 40.7721 20.675C40.7721 21.6971 39.9277 22.5267 38.8888 22.5267H30.6694C29.6291 22.5267 28.7847 21.6971 28.7847 20.675C28.7847 19.6544 29.6291 18.8248 30.6694 18.8248H38.8888ZM17.3847 32.9475H25.6041C26.6444 32.9475 27.4888 33.7771 27.4888 34.7992C27.4888 35.8198 26.6444 36.6508 25.6041 36.6508H17.3847C16.3444 36.6508 15.5 35.8198 15.5 34.7992C15.5 33.7771 16.3444 32.9475 17.3847 32.9475ZM36.4749 38.9722C38.8499 38.9722 40.7735 37.081 40.7735 34.749C40.7735 32.4157 38.8499 30.5245 36.4749 30.5245C34.1013 30.5245 32.1763 32.4157 32.1763 34.749C32.1763 37.081 34.1013 38.9722 36.4749 38.9722Z" fill="url(#paint0_linear_28_120)"/>
<defs>
<linearGradient id="paint0_linear_28_120" x1="28.2448" y1="16.4518" x2="28.2448" y2="38.9722" gradientUnits="userSpaceOnUse">
<stop stop-color="#5270FC"/>
<stop offset="1" stop-color="#3859F2"/>
</linearGradient>
</defs>
</svg>
