<svg width="68" height="68" viewBox="0 0 68 68" fill="none" xmlns="http://www.w3.org/2000/svg">
<circle cx="34" cy="34" r="34" fill="url(#paint0_linear_3229_689)"/>
<path fill-rule="evenodd" clip-rule="evenodd" d="M28.536 24.1625C28.536 27.4292 25.843 30.0769 22.518 30.0769C19.195 30.0769 16.5 27.4292 16.5 24.1625C16.5 20.8977 19.195 18.25 22.518 18.25C25.843 18.25 28.536 20.8977 28.536 24.1625ZM48.8633 21.5721C50.3178 21.5721 51.5 22.7335 51.5 24.1625C51.5 25.5933 50.3178 26.7548 48.8633 26.7548H37.3562C35.8998 26.7548 34.7176 25.5933 34.7176 24.1625C34.7176 22.7335 35.8998 21.5721 37.3562 21.5721H48.8633ZM19.1386 40.9265H30.6458C32.1021 40.9265 33.2843 42.0879 33.2843 43.5188C33.2843 44.9477 32.1021 46.1111 30.6458 46.1111H19.1386C17.6822 46.1111 16.5 44.9477 16.5 43.5188C16.5 42.0879 17.6822 40.9265 19.1386 40.9265ZM45.482 49.3611C48.807 49.3611 51.5 46.7134 51.5 43.4486C51.5 40.1819 48.807 37.5342 45.482 37.5342C42.1589 37.5342 39.4639 40.1819 39.4639 43.4486C39.4639 46.7134 42.1589 49.3611 45.482 49.3611Z" fill="white"/>
<defs>
<linearGradient id="paint0_linear_3229_689" x1="34" y1="0" x2="34" y2="68" gradientUnits="userSpaceOnUse">
<stop stop-color="#5E8BFF"/>
<stop offset="1" stop-color="#9541FF"/>
</linearGradient>
</defs>
</svg>
