<svg width="72" height="72" viewBox="0 0 72 72" fill="none" xmlns="http://www.w3.org/2000/svg">
<circle cx="36" cy="36" r="36" fill="#0D3EFF"/>
<circle cx="36" cy="36" r="36" fill="white" fill-opacity="0.15"/>
<g clip-path="url(#clip0_91_9)">
<path d="M53.8652 52.335L45.9902 38.085C45.7802 37.71 45.4502 37.53 44.9852 37.5C44.5652 37.5 44.1902 37.74 43.9952 38.115L42.7202 40.605L48.6902 51.225C49.1702 52.065 49.2452 53.085 48.9152 54H52.8752C53.2802 54 53.6402 53.79 53.8502 53.445C54.0452 53.1 54.0452 52.68 53.8652 52.335V52.335Z" fill="white"/>
<path d="M46.7251 52.3201L39.5401 39.5251L36.6751 41.9551C36.0751 42.4651 35.2951 42.7501 34.5001 42.7501C33.6601 42.7501 32.8651 42.4501 32.2501 41.8951C31.6351 42.4501 30.8401 42.7501 30.0001 42.7501C29.2051 42.7501 28.4251 42.4651 27.8101 41.9401L25.0801 39.6301L18.1351 52.3351C17.9401 52.6801 17.9551 53.1001 18.1501 53.4451C18.3601 53.7901 18.7351 54.0001 19.1251 54.0001H45.7501C46.1551 54.0001 46.5151 53.7901 46.7251 53.4451C46.9201 53.1001 46.9201 52.6651 46.7251 52.3201Z" fill="white"/>
<path d="M40.875 25.5H32.25C31.629 25.5 31.125 24.996 31.125 24.375V19.125C31.125 18.504 31.629 18 32.25 18H40.875C41.3145 18 41.7135 18.255 41.8965 18.6555C42.081 19.0545 42.015 19.524 41.7285 19.8585L40.107 21.75L41.73 23.643C42.0165 23.9775 42.081 24.447 41.898 24.846C41.7135 25.245 41.3145 25.5 40.875 25.5V25.5Z" fill="white"/>
<path d="M32.25 30C31.629 30 31.125 29.496 31.125 28.875V19.125C31.125 18.504 31.629 18 32.25 18C32.871 18 33.375 18.504 33.375 19.125V28.875C33.375 29.496 32.871 30 32.25 30Z" fill="white"/>
<path d="M38.4148 37.53L35.2198 40.23C35.0098 40.41 34.7548 40.5 34.4998 40.5C34.2148 40.5 33.9298 40.395 33.7048 40.17L32.2498 38.715L30.7948 40.17C30.3748 40.59 29.7148 40.605 29.2798 40.23L26.1748 37.62L27.2848 35.61L31.2598 28.335C31.4548 27.975 31.8298 27.75 32.2498 27.75C32.6248 27.705 33.0298 27.96 33.2248 28.32L37.2898 35.535L38.4148 37.53Z" fill="white"/>
</g>
<defs>
<clipPath id="clip0_91_9">
<rect width="36" height="36" fill="white" transform="translate(18 18)"/>
</clipPath>
</defs>
</svg>
