<svg width="56" height="56" viewBox="0 0 56 56" fill="none" xmlns="http://www.w3.org/2000/svg">
<circle cx="28" cy="28" r="28" fill="white"/>
<path fill-rule="evenodd" clip-rule="evenodd" d="M27.6601 40.3921C27.7986 40.4644 27.9534 40.5012 28.1081 40.4999C28.2629 40.4987 28.4165 40.4607 28.5561 40.3872L33.016 38.0031C34.2807 37.3289 35.2711 36.5751 36.0438 35.6974C37.7237 33.7853 38.6411 31.3448 38.6248 28.8283L38.5719 20.5275C38.5669 19.5714 37.9389 18.7183 37.0102 18.4081L28.7134 15.6245C28.2138 15.4553 27.6664 15.459 27.1756 15.633L18.9103 18.516C17.9866 18.8384 17.37 19.6976 17.3751 20.655L17.4279 28.9496C17.4443 31.4698 18.3931 33.8992 20.1008 35.7918C20.881 36.6572 21.8802 37.4 23.1588 38.0631L27.6601 40.3921ZM26.4795 30.6362C26.6657 30.8151 26.9074 30.9034 27.149 30.9009C27.3906 30.8997 27.631 30.809 27.8147 30.6276L32.6886 25.8226C33.0548 25.461 33.051 24.88 32.681 24.5233C32.3098 24.1666 31.712 24.1691 31.3458 24.5307L27.1351 28.6811L25.4111 27.0239C25.0399 26.6672 24.4434 26.6709 24.0759 27.0325C23.7097 27.3941 23.7135 27.9751 24.0847 28.3318L26.4795 30.6362Z" fill="url(#paint0_linear_28_119)"/>
<defs>
<linearGradient id="paint0_linear_28_119" x1="28.0908" y1="15.5" x2="28.0908" y2="40.5" gradientUnits="userSpaceOnUse">
<stop stop-color="#5270FC"/>
<stop offset="1" stop-color="#3859F2"/>
</linearGradient>
</defs>
</svg>
