<svg width="45" height="44" viewBox="0 0 45 44" fill="none" xmlns="http://www.w3.org/2000/svg">
<rect x="0.5" y="0.000610352" width="44" height="44" rx="22" fill="url(#paint0_linear_21_190)"/>
<path d="M31.4098 21.1206V16.7306C31.4098 15.9106 30.7898 14.9806 30.0198 14.6706L24.4498 12.3906C23.1998 11.8806 21.7898 11.8806 20.5398 12.3906L14.9698 14.6706C14.2098 14.9806 13.5898 15.9106 13.5898 16.7306V21.1206C13.5898 26.0106 17.1398 30.5906 21.9898 31.9306C22.3198 32.0206 22.6798 32.0206 23.0098 31.9306C27.8598 30.5906 31.4098 26.0106 31.4098 21.1206ZM23.2498 22.8706V25.5006C23.2498 25.9106 22.9098 26.2506 22.4998 26.2506C22.0898 26.2506 21.7498 25.9106 21.7498 25.5006V22.8706C20.7398 22.5506 19.9998 21.6106 19.9998 20.5006C19.9998 19.1206 21.1198 18.0006 22.4998 18.0006C23.8798 18.0006 24.9998 19.1206 24.9998 20.5006C24.9998 21.6206 24.2598 22.5506 23.2498 22.8706Z" fill="white"/>
<defs>
<linearGradient id="paint0_linear_21_190" x1="22.688" y1="0.000610331" x2="22.688" y2="44.0006" gradientUnits="userSpaceOnUse">
<stop stop-color="#5270FC"/>
<stop offset="1" stop-color="#3859F2"/>
</linearGradient>
</defs>
</svg>
