<svg width="52" height="52" viewBox="0 0 52 52" fill="none" xmlns="http://www.w3.org/2000/svg">
<path d="M45.3051 24.0934V14.5817C45.3051 12.805 43.9617 10.79 42.2934 10.1184L30.2251 5.17836C27.5167 4.07336 24.4617 4.07336 21.7534 5.17836L9.68507 10.1184C8.0384 10.79 6.69507 12.805 6.69507 14.5817V24.0934C6.69507 34.6884 14.3867 44.6117 24.8951 47.515C25.6101 47.71 26.3901 47.71 27.1051 47.515C37.6134 44.6117 45.3051 34.6884 45.3051 24.0934ZM27.6251 27.885V33.5834C27.6251 34.4717 26.8884 35.2084 26.0001 35.2084C25.1117 35.2084 24.3751 34.4717 24.3751 33.5834V27.885C22.1867 27.1917 20.5834 25.155 20.5834 22.75C20.5834 19.76 23.0101 17.3334 26.0001 17.3334C28.9901 17.3334 31.4167 19.76 31.4167 22.75C31.4167 25.1767 29.8134 27.1917 27.6251 27.885Z" fill="#6CE1F5"/>
</svg>
