<svg width="68" height="68" viewBox="0 0 68 68" fill="none" xmlns="http://www.w3.org/2000/svg">
<circle cx="34" cy="34" r="34" fill="url(#paint0_linear_3229_692)"/>
<g clip-path="url(#clip0_3229_692)">
<path d="M53.25 34C53.25 40.272 48.147 45.375 41.875 45.375C35.603 45.375 30.5 40.272 30.5 34C30.5 27.728 35.603 22.625 41.875 22.625C48.147 22.625 53.25 27.728 53.25 34ZM41 31.9682C41 31.5447 41.2695 31.2507 41.511 31.2507H44.0625C44.787 31.2507 45.375 30.6628 45.375 29.9382C45.375 29.2137 44.787 28.6257 44.0625 28.6257H43.1875V28.3125C43.1875 27.588 42.5995 27 41.875 27C41.1505 27 40.5625 27.588 40.5625 28.3125V28.799C39.299 29.2295 38.375 30.479 38.375 31.9682C38.375 33.8127 39.782 35.3125 41.511 35.3125H42.2408C42.4823 35.3125 42.7517 35.6083 42.7517 36.0318C42.7517 36.4553 42.4823 36.7493 42.2408 36.7493H39.6875C38.963 36.7493 38.375 37.3372 38.375 38.0618C38.375 38.7863 38.963 39.3743 39.6875 39.3743H40.5625V39.6875C40.5625 40.412 41.1505 41 41.875 41C42.5995 41 43.1875 40.412 43.1875 39.6875V39.201C44.451 38.7705 45.375 37.521 45.375 36.0318C45.375 34.1873 43.968 32.6875 42.239 32.6875H41.5093C41.2695 32.6875 41 32.3917 41 31.9682Z" fill="white"/>
<path d="M39.25 19.37V18.25C39.25 17.2875 38.4625 16.5 37.5 16.5H36.625C35.6625 16.5 34.875 17.2875 34.875 18.25C34.875 19.2125 34.0875 20 33.125 20H24.375C23.4125 20 22.625 19.2125 22.625 18.25C22.625 17.2875 21.8375 16.5 20.875 16.5H20C19.0375 16.5 18.25 17.2875 18.25 18.25V49.75C18.25 50.7125 19.0375 51.5 20 51.5H37.5C38.4625 51.5 39.25 50.7125 39.25 49.75V48.6475C40.1075 48.7875 40.9825 48.875 41.875 48.875C42.1725 48.875 42.4525 48.875 42.75 48.8575V49.75C42.75 52.6375 40.3875 55 37.5 55H20C17.1125 55 14.75 52.6375 14.75 49.75V18.25C14.75 15.3625 17.1125 13 20 13H37.5C40.3875 13 42.75 15.3625 42.75 18.25V19.1425C42.4525 19.125 42.1725 19.125 41.875 19.125C40.9825 19.125 40.1075 19.2125 39.25 19.37Z" fill="white"/>
</g>
<defs>
<linearGradient id="paint0_linear_3229_692" x1="34" y1="0" x2="34" y2="68" gradientUnits="userSpaceOnUse">
<stop stop-color="#5E8BFF"/>
<stop offset="1" stop-color="#9541FF"/>
</linearGradient>
<clipPath id="clip0_3229_692">
<rect width="42" height="42" fill="white" transform="translate(13 13)"/>
</clipPath>
</defs>
</svg>
