<svg width="56" height="56" viewBox="0 0 56 56" fill="none" xmlns="http://www.w3.org/2000/svg">
<circle cx="28" cy="28" r="28" fill="white"/>
<path d="M27.925 15.7625L24.9125 22.775H21.9C21.4 22.775 20.9125 22.8125 20.4375 22.9125L21.6875 19.9125L21.7375 19.8L21.8125 19.6C21.85 19.5125 21.875 19.4375 21.9125 19.375C23.3625 16.0125 24.9875 14.9625 27.925 15.7625Z" fill="url(#paint0_linear_28_107)"/>
<path d="M36.4124 23.1125L36.3874 23.1C35.6374 22.8875 34.8749 22.775 34.0999 22.775H26.2749L29.0874 16.2375L29.1249 16.15C29.2999 16.2125 29.4874 16.3 29.6749 16.3625L32.4374 17.525C33.9749 18.1625 35.0499 18.825 35.7124 19.625C35.8249 19.775 35.9249 19.9125 36.0249 20.075C36.1374 20.25 36.2249 20.425 36.2749 20.6125C36.3249 20.725 36.3624 20.825 36.3874 20.9375C36.5749 21.575 36.5874 22.3 36.4124 23.1125Z" fill="url(#paint1_linear_28_107)"/>
<path d="M28.6499 35.0751H28.9624C29.3374 35.0751 29.6499 34.7376 29.6499 34.3251C29.6499 33.8001 29.4999 33.7251 29.1749 33.6001L28.6499 33.4126V35.0751Z" fill="url(#paint2_linear_28_107)"/>
<path d="M35.8623 24.9C35.2998 24.7375 34.7123 24.65 34.0998 24.65H21.8998C21.0498 24.65 20.2498 24.8125 19.4998 25.1375C17.3248 26.075 15.7998 28.2375 15.7998 30.75V33.1875C15.7998 33.4875 15.8248 33.775 15.8623 34.075C16.1373 38.05 18.2623 40.175 22.2373 40.4375C22.5248 40.475 22.8123 40.5 23.1248 40.5H32.8748C37.4998 40.5 39.9373 38.3 40.1748 33.925C40.1873 33.6875 40.1998 33.4375 40.1998 33.1875V30.75C40.1998 27.9875 38.3623 25.6625 35.8623 24.9ZM29.5998 32.375C30.1748 32.575 30.9498 33 30.9498 34.325C30.9498 35.4625 30.0623 36.375 28.9623 36.375H28.6498V36.65C28.6498 37.0125 28.3623 37.3 27.9998 37.3C27.6373 37.3 27.3498 37.0125 27.3498 36.65V36.375H27.2373C26.0373 36.375 25.0498 35.3625 25.0498 34.1125C25.0498 33.75 25.3373 33.4625 25.6998 33.4625C26.0623 33.4625 26.3498 33.75 26.3498 34.1125C26.3498 34.6375 26.7498 35.075 27.2373 35.075H27.3498V32.9625L26.3998 32.625C25.8248 32.425 25.0498 32 25.0498 30.675C25.0498 29.5375 25.9373 28.625 27.0373 28.625H27.3498V28.35C27.3498 27.9875 27.6373 27.7 27.9998 27.7C28.3623 27.7 28.6498 27.9875 28.6498 28.35V28.625H28.7623C29.9623 28.625 30.9498 29.6375 30.9498 30.8875C30.9498 31.25 30.6623 31.5375 30.2998 31.5375C29.9373 31.5375 29.6498 31.25 29.6498 30.8875C29.6498 30.3625 29.2498 29.925 28.7623 29.925H28.6498V32.0375L29.5998 32.375Z" fill="url(#paint3_linear_28_107)"/>
<path d="M26.3501 30.6751C26.3501 31.2001 26.5001 31.2751 26.8251 31.4001L27.3501 31.5876V29.925H27.0376C26.6501 29.925 26.3501 30.2626 26.3501 30.6751Z" fill="url(#paint4_linear_28_107)"/>
<defs>
<linearGradient id="paint0_linear_28_107" x1="24.2132" y1="15.5076" x2="24.2132" y2="22.9125" gradientUnits="userSpaceOnUse">
<stop stop-color="#5270FC"/>
<stop offset="1" stop-color="#3859F2"/>
</linearGradient>
<linearGradient id="paint1_linear_28_107" x1="31.4494" y1="16.15" x2="31.4494" y2="23.1125" gradientUnits="userSpaceOnUse">
<stop stop-color="#5270FC"/>
<stop offset="1" stop-color="#3859F2"/>
</linearGradient>
<linearGradient id="paint2_linear_28_107" x1="29.1542" y1="33.4126" x2="29.1542" y2="35.0751" gradientUnits="userSpaceOnUse">
<stop stop-color="#5270FC"/>
<stop offset="1" stop-color="#3859F2"/>
</linearGradient>
<linearGradient id="paint3_linear_28_107" x1="28.1041" y1="24.65" x2="28.1041" y2="40.5" gradientUnits="userSpaceOnUse">
<stop stop-color="#5270FC"/>
<stop offset="1" stop-color="#3859F2"/>
</linearGradient>
<linearGradient id="paint4_linear_28_107" x1="26.8544" y1="29.925" x2="26.8544" y2="31.5876" gradientUnits="userSpaceOnUse">
<stop stop-color="#5270FC"/>
<stop offset="1" stop-color="#3859F2"/>
</linearGradient>
</defs>
</svg>
