<svg width="52" height="52" viewBox="0 0 52 52" fill="none" xmlns="http://www.w3.org/2000/svg">
<path d="M35.0783 4.33337H16.9216C9.03492 4.33337 4.33325 9.03504 4.33325 16.9217V35.0567C4.33325 42.965 9.03492 47.6667 16.9216 47.6667H35.0566C42.9433 47.6667 47.6449 42.965 47.6449 35.0784V16.9217C47.6666 9.03504 42.9649 4.33337 35.0783 4.33337ZM16.5316 39.325C16.5316 40.2134 15.7949 40.95 14.9066 40.95C14.0183 40.95 13.2816 40.2134 13.2816 39.325V34.84C13.2816 33.9517 14.0183 33.215 14.9066 33.215C15.7949 33.215 16.5316 33.9517 16.5316 34.84V39.325ZM27.6249 39.325C27.6249 40.2134 26.8883 40.95 25.9999 40.95C25.1116 40.95 24.3749 40.2134 24.3749 39.325V30.3334C24.3749 29.445 25.1116 28.7084 25.9999 28.7084C26.8883 28.7084 27.6249 29.445 27.6249 30.3334V39.325ZM38.7183 39.325C38.7183 40.2134 37.9816 40.95 37.0933 40.95C36.2049 40.95 35.4683 40.2134 35.4683 39.325V25.8484C35.4683 24.96 36.2049 24.2234 37.0933 24.2234C37.9816 24.2234 38.7183 24.96 38.7183 25.8484V39.325ZM38.7183 19.0017C38.7183 19.89 37.9816 20.6267 37.0933 20.6267C36.2049 20.6267 35.4683 19.89 35.4683 19.0017V16.9C29.9433 22.5767 23.0316 26.585 15.2966 28.5134C15.1666 28.5567 15.0366 28.5567 14.9066 28.5567C14.1699 28.5567 13.5199 28.0584 13.3249 27.3217C13.1083 26.455 13.6283 25.5667 14.5166 25.35C21.8183 23.53 28.3183 19.695 33.4749 14.2784H30.7666C29.8783 14.2784 29.1416 13.5417 29.1416 12.6534C29.1416 11.765 29.8783 11.0284 30.7666 11.0284H37.1149C37.2016 11.0284 37.2666 11.0717 37.3533 11.0717C37.4616 11.0934 37.5699 11.0934 37.6783 11.1367C37.7866 11.18 37.8733 11.245 37.9816 11.31C38.0466 11.3534 38.1116 11.375 38.1766 11.4184C38.1983 11.44 38.1983 11.4617 38.2199 11.4617C38.3066 11.5484 38.3716 11.635 38.4366 11.7217C38.5016 11.8084 38.5666 11.8734 38.5883 11.96C38.6316 12.0467 38.6316 12.1334 38.6533 12.2417C38.6749 12.35 38.7183 12.4584 38.7183 12.5884C38.7183 12.61 38.7399 12.6317 38.7399 12.6534V19.0017H38.7183Z" fill="#6CE1F5"/>
</svg>
