<svg width="52" height="52" viewBox="0 0 52 52" fill="none" xmlns="http://www.w3.org/2000/svg">
<path d="M41.1667 32.5C36.3783 32.5 32.5 36.3783 32.5 41.1667C32.5 42.7917 32.955 44.33 33.7567 45.63C35.2517 48.1433 38.0033 49.8333 41.1667 49.8333C44.33 49.8333 47.0817 48.1433 48.5767 45.63C49.3783 44.33 49.8333 42.7917 49.8333 41.1667C49.8333 36.3783 45.955 32.5 41.1667 32.5ZM45.6517 40.235L41.0367 44.5033C40.7333 44.785 40.3217 44.9367 39.9317 44.9367C39.52 44.9367 39.1083 44.785 38.7833 44.46L36.6383 42.315C36.01 41.6867 36.01 40.6467 36.6383 40.0183C37.2667 39.39 38.3067 39.39 38.935 40.0183L39.975 41.0583L43.4417 37.8517C44.0917 37.245 45.1317 37.2883 45.7383 37.9383C46.345 38.5883 46.3017 39.6067 45.6517 40.235Z" fill="#6CE1F5"/>
<path d="M47.6666 16.3584V17.3334C47.6666 18.525 46.6916 19.5 45.4999 19.5H6.49992C5.30825 19.5 4.33325 18.525 4.33325 17.3334V16.3367C4.33325 11.375 8.34159 7.3667 13.3033 7.3667H38.6749C43.6366 7.3667 47.6666 11.3967 47.6666 16.3584Z" fill="#6CE1F5"/>
<path d="M4.33325 24.9166V35.6633C4.33325 40.6249 8.34159 44.6333 13.3033 44.6333H26.8666C28.1233 44.6333 29.2066 43.5716 29.0983 42.3149C28.7949 38.9999 29.8566 35.4033 32.8033 32.5433C34.0166 31.3516 35.5116 30.4416 37.1366 29.9216C39.8449 29.0549 42.4666 29.1633 44.7849 29.9433C46.1933 30.4199 47.6666 29.4016 47.6666 27.9066V24.8949C47.6666 23.7033 46.6916 22.7283 45.4999 22.7283H6.49992C5.30825 22.7499 4.33325 23.7249 4.33325 24.9166ZM17.3333 37.3749H12.9999C12.1116 37.3749 11.3749 36.6383 11.3749 35.7499C11.3749 34.8616 12.1116 34.1249 12.9999 34.1249H17.3333C18.2216 34.1249 18.9583 34.8616 18.9583 35.7499C18.9583 36.6383 18.2216 37.3749 17.3333 37.3749Z" fill="#6CE1F5"/>
</svg>
