<svg width="80" height="80" viewBox="0 0 80 80" fill="none" xmlns="http://www.w3.org/2000/svg">
<rect width="80" height="80" rx="11" fill="#E031CA"/>
<path fill-rule="evenodd" clip-rule="evenodd" d="M50.384 33.2874H58.0001C58.0001 27.1724 54.336 23.6001 48.128 23.6001H31.872C25.664 23.6001 22 27.1724 22 33.2094V46.3909C22 52.4279 25.664 56.0001 31.872 56.0001H48.128C54.336 56.0001 58.0001 52.4279 58.0001 46.3909V45.8293H50.384C46.8494 45.8293 43.984 43.0357 43.984 39.5895C43.984 36.1434 46.8494 33.3498 50.384 33.3498V33.2874ZM50.3841 35.9705H56.6561C57.3983 35.9705 58.0001 36.5572 58.0001 37.2809V41.8359C57.9914 42.5561 57.3947 43.1378 56.6561 43.1463H50.5281C48.7387 43.1697 47.1739 41.9753 46.768 40.276C46.5648 39.2211 46.8501 38.1326 47.5476 37.3022C48.245 36.4717 49.2833 35.9843 50.3841 35.9705ZM50.6561 40.7596H51.2481C52.008 40.7596 52.6241 40.159 52.6241 39.4181C52.6241 38.6772 52.008 38.0765 51.2481 38.0765H50.6561C50.2926 38.0724 49.9426 38.2102 49.684 38.4593C49.4255 38.7084 49.28 39.0481 49.2801 39.4025C49.28 40.146 49.8935 40.7511 50.6561 40.7596ZM30.528 33.2874H40.688C41.448 33.2874 42.064 32.6867 42.064 31.9458C42.064 31.2049 41.448 30.6043 40.688 30.6043H30.528C29.7743 30.6042 29.1608 31.1954 29.152 31.9302C29.152 32.6737 29.7655 33.2788 30.528 33.2874Z" fill="white"/>
</svg>
