<svg width="96" height="96" viewBox="0 0 96 96" fill="none" xmlns="http://www.w3.org/2000/svg">
<path d="M47.9999 88.3256C70.2712 88.3256 88.3256 70.2712 88.3256 47.9999C88.3256 25.7287 70.2712 7.67432 47.9999 7.67432C25.7287 7.67432 7.67432 25.7287 7.67432 47.9999C7.67432 70.2712 25.7287 88.3256 47.9999 88.3256Z" fill="#EDF3FC"/>
<path d="M48 0.1875C21.6366 0.1875 0.1875 21.6362 0.1875 47.9998C0.1875 74.3638 21.6366 95.8125 48 95.8125C74.3638 95.8125 95.8125 74.3638 95.8125 47.9998C95.8125 21.6362 74.3638 0.1875 48 0.1875ZM48 94.2803C22.4812 94.2803 1.72012 73.5189 1.72012 47.9998C1.72012 22.4807 22.4812 1.71919 48 1.71919C73.5191 1.71919 94.2803 22.4809 94.2803 48C94.2803 73.5189 73.5191 94.2803 48 94.2803Z" fill="#EDF3FC"/>
<path d="M41.2822 22.8845C41.2822 22.0297 41.3962 21.2017 41.6072 20.4134C40.3764 19.835 39.0032 19.5103 37.5534 19.5103C32.283 19.5103 28.0114 23.7821 28.0114 29.0525C28.0114 31.673 29.0683 34.0462 30.7783 35.7708H44.3286C45.4809 34.6089 46.335 33.1516 46.7705 31.5236C43.5279 29.9994 41.2822 26.705 41.2822 22.8845Z" fill="#FFBE1B"/>
<path d="M41.2836 22.9376C40.197 22.2734 38.92 21.8904 37.5537 21.8904C33.5978 21.8904 30.391 25.097 30.391 29.0527C30.391 32.1335 32.3367 34.7598 35.0661 35.771H40.0412C42.4422 34.8815 44.2365 32.7421 44.6339 30.1432C42.5961 28.4038 41.2994 25.8232 41.2836 22.9376Z" fill="#FFE37B"/>
<path d="M40.4411 29.4996C40.187 29.205 39.8433 29.0107 39.4128 28.9176C39.5323 28.8651 39.615 28.827 39.6607 28.8034C39.708 28.7809 39.7899 28.7224 39.9097 28.6296C40.2613 28.3646 40.4368 27.9606 40.4368 27.4172C40.4368 26.9659 40.2811 26.562 39.9691 26.2046C39.797 26.0119 39.54 25.8598 39.1987 25.7469C39.0976 25.713 38.9874 25.6862 38.874 25.6627V24.7791H37.6545V25.5776H36.8375V24.7791H35.618V25.5776H35.2775H34.2828V26.8901H35.2775V31.2144H34.2828V32.5269H35.2775H35.618V33.3264H36.8375V32.5269H37.6545V33.3264H38.874V32.4971C39.5368 32.4257 40.0231 32.2222 40.3271 31.8812C40.6586 31.5101 40.8247 31.0824 40.8247 30.5983C40.8243 30.1609 40.6959 29.7949 40.4411 29.4996ZM36.828 26.8901H37.5736C38.0304 26.8901 38.3563 26.9402 38.5473 27.039C38.7395 27.1386 38.8359 27.3422 38.8359 27.6506C38.8359 27.9585 38.7315 28.1593 38.5231 28.2519C38.3148 28.3447 37.994 28.3912 37.5633 28.3912H36.828V26.8901ZM38.8908 31.0502C38.6688 31.1601 38.3353 31.2144 37.8911 31.2144H36.828V29.6143H37.7428C38.2588 29.6143 38.6353 29.6657 38.8708 29.7681C39.1059 29.8708 39.2238 30.0831 39.2238 30.4046C39.2236 30.7256 39.1128 30.9411 38.8908 31.0502Z" fill="white"/>
<path d="M21.6336 39.5753C19.6986 39.0901 18.186 37.5775 17.7004 35.6416L17.6177 35.311L17.535 35.6416C17.0494 37.5775 15.537 39.0901 13.6005 39.5753L13.2705 39.6586L13.6005 39.7415C15.537 40.2265 17.0496 41.7391 17.535 43.6752L17.6177 44.006L17.7004 43.6752C18.186 41.7391 19.6984 40.2267 21.6336 39.7415L21.9651 39.6586L21.6336 39.5753Z" fill="#FFBE1B"/>
<path d="M23.3737 30.6058C21.9906 30.2591 20.9102 29.1783 20.5631 27.7955L20.5044 27.5591L20.4456 27.7955C20.0983 29.1783 19.0181 30.2589 17.6342 30.6058L17.3987 30.6654L17.6342 30.7243C19.0181 31.071 20.0985 32.1517 20.4456 33.5347L20.5044 33.7711L20.5631 33.5347C20.9104 32.1517 21.9906 31.0708 23.3737 30.7243L23.61 30.6654L23.3737 30.6058Z" fill="#FFBE1B"/>
<path d="M80.1428 49.8708C78.6846 49.5058 77.5463 48.3674 77.1808 46.9102L77.1178 46.6614L77.0552 46.9102C76.6909 48.3674 75.5526 49.5056 74.0948 49.8708L73.8477 49.9334L74.0948 49.9949C75.5526 50.3604 76.6909 51.4989 77.0552 52.9569L77.1178 53.2046L77.1808 52.9569C77.5463 51.4989 78.6846 50.3604 80.1428 49.9949L80.3895 49.9334L80.1428 49.8708Z" fill="#5D8EF9"/>
<path d="M69.7061 20.9011C68.0852 20.4947 66.8194 19.2287 66.4129 17.6078L66.3429 17.3311L66.273 17.6078C65.868 19.2287 64.6027 20.4947 62.9795 20.9011L62.7041 20.9704L62.9795 21.04C64.6025 21.4456 65.8678 22.7114 66.273 24.3329L66.3429 24.6096L66.4129 24.3329C66.8194 22.7114 68.0854 21.4456 69.7061 21.04L69.9823 20.9704L69.7061 20.9011Z" fill="#330D84"/>
<path d="M55.8413 37.5416C55.8413 36.9363 55.9001 36.3449 56.0079 35.771H29.1617C26.5958 35.771 24.5096 37.8202 24.4478 40.3702C24.4759 40.5736 24.7461 42.1044 26.6098 43.0779C27.8505 43.7278 29.8658 43.7202 30.8169 43.7202H58.1151C56.6983 42.0552 55.8413 39.899 55.8413 37.5416Z" fill="#6857E5"/>
<path d="M65.383 27.9985C60.1135 27.9985 55.8413 32.2707 55.8413 37.5413C55.8413 39.899 56.6982 42.0552 58.1151 43.72H66.8382C68.3558 43.72 69.7045 44.437 70.5672 45.55C73.1888 43.8494 74.9249 40.8991 74.9249 37.5413C74.9251 32.2709 70.6529 27.9985 65.383 27.9985Z" fill="#5D8EF9"/>
<path d="M65.3829 30.3787C61.4278 30.3787 58.2209 33.5855 58.2209 37.5413C58.2209 40.1754 59.6441 42.476 61.7621 43.72H66.8383C67.4099 43.72 67.9578 43.8219 68.4648 44.008C70.8781 42.856 72.5458 40.3934 72.5458 37.5413C72.5456 33.5855 69.3391 30.3787 65.3829 30.3787Z" fill="#8AC9F9"/>
<path d="M65.3829 32.7256L62.4456 37.2072L65.3829 39.3725L68.3207 37.2074L65.3829 32.7256Z" fill="white"/>
<path d="M65.3829 40.1107L62.4456 37.7971L65.3829 42.356L68.3207 37.7971L65.3829 40.1107Z" fill="white"/>
<path d="M66.8383 43.72H30.8169C29.8659 43.72 27.8506 43.7275 26.6098 43.0776C24.6103 42.0334 24.4447 40.3467 24.4447 40.3467V71.4392C24.4447 74.0434 26.5567 76.1549 29.1615 76.1549H66.8379C69.4428 76.1549 71.5535 74.0432 71.5535 71.4392V48.4349C71.5539 45.8305 69.443 43.72 66.8383 43.72Z" fill="#8C7BFD"/>
<path d="M58.8123 55.229C57.6455 55.229 56.7 56.1751 56.7 57.3425V62.4266C56.7 63.5934 57.6455 64.5401 58.8123 64.5401H71.5539V55.229H58.8123Z" fill="#8AC9F9"/>
<path d="M60.7972 57.7876C59.6392 57.7876 58.6995 58.7266 58.6995 59.8848C58.6995 61.043 59.6392 61.9825 60.7972 61.9825C61.9556 61.9825 62.8938 61.0428 62.8938 59.8848C62.8938 58.7266 61.9556 57.7876 60.7972 57.7876Z" fill="#FFE37B"/>
<path d="M50.8249 13.343C45.5545 13.343 41.2821 17.6148 41.2821 22.8845C41.2821 28.155 45.5543 32.4268 50.8249 32.4268C56.094 32.4268 60.3662 28.155 60.3662 22.8845C60.3662 17.6148 56.094 13.343 50.8249 13.343Z" fill="#330D84"/>
<path d="M50.8249 15.7227C46.869 15.7227 43.6622 18.9291 43.6622 22.8848C43.6622 26.8407 46.8692 30.0475 50.8249 30.0475C54.78 30.0475 57.9869 26.8407 57.9869 22.8848C57.987 18.9291 54.78 15.7227 50.8249 15.7227Z" fill="#5932AE"/>
<path d="M54.7927 24.7862V19.6917L50.8249 23.7593L46.857 19.6917V24.7862H45.6566V26.0783H48.1487V22.8664L50.8249 25.6065L53.5012 22.8664V26.0783H55.9926V24.7862H54.7927Z" fill="white"/>
<path d="M47.1375 57.8095C45.8796 57.8095 44.8269 58.6998 44.574 59.8833H39.7671L36.1611 55.7776H24.4449V56.8745H35.6642L39.2698 60.9801H44.5742C44.8271 62.1629 45.8796 63.0531 47.1375 63.0531C48.5826 63.0531 49.7582 61.8771 49.7582 60.4319C49.7582 58.9855 48.5826 57.8095 47.1375 57.8095ZM47.1375 61.9561C46.4899 61.9561 45.9369 61.5499 45.7161 60.98H46.245C46.4297 61.2796 46.7599 61.4798 47.1375 61.4798C47.7165 61.4798 48.1856 61.0105 48.1856 60.4315C48.1856 59.8525 47.7165 59.3826 47.1375 59.3826C46.7597 59.3826 46.4295 59.5833 46.2448 59.8831H45.7159C45.9368 59.3125 46.4899 58.9062 47.1375 58.9062C47.9779 58.9062 48.6613 59.5902 48.6613 60.4315C48.6613 61.2719 47.9781 61.9561 47.1375 61.9561Z" fill="white"/>
<path d="M65.8001 68.5732L63.9724 67.4763H42.6174L39.7427 71.5822H34.9729C34.7199 70.3989 33.6675 69.5086 32.4094 69.5086C30.9643 69.5086 29.7887 70.6844 29.7887 72.1303C29.7887 73.5757 30.9643 74.7515 32.4094 74.7515C33.6673 74.7515 34.7198 73.8616 34.9727 72.6787H40.314L43.1888 68.5728H63.6681L65.4958 69.6697H71.5541V68.5728H65.8001V68.5732ZM32.4094 73.1791C32.7874 73.1791 33.1176 72.9789 33.3023 72.6793H33.8308C33.6098 73.2493 33.0568 73.6552 32.4094 73.6552C31.569 73.6552 30.8856 72.9712 30.8856 72.1306C30.8856 71.2895 31.569 70.6053 32.4094 70.6053C33.0572 70.6053 33.6103 71.0116 33.8312 71.5824H33.3026C33.1179 71.2826 32.7876 71.0818 32.4096 71.0818C31.8306 71.0818 31.3614 71.5516 31.3614 72.1306C31.3613 72.71 31.8304 73.1791 32.4094 73.1791Z" fill="white"/>
<path d="M37.2663 62.6731C36.8887 62.6731 36.5585 62.8737 36.3736 63.1735H31.1355L30.0885 65.2829H24.4447V66.3798H30.7681L31.8151 64.2704H36.3736C36.5583 64.57 36.8885 64.7703 37.2663 64.7703C37.8453 64.7703 38.3148 64.3012 38.3148 63.7222C38.3148 63.1432 37.8453 62.6731 37.2663 62.6731Z" fill="white"/>
<path d="M51.8903 46.9524C51.5124 46.9524 51.1823 47.153 50.9976 47.4528H47.1324L44.9389 46.356H29.673L28.6264 48.4653H24.4449V49.5622H29.3061L30.3531 47.4528H44.6803L46.8739 48.5497H50.9976C51.1823 48.8493 51.5126 49.0496 51.8903 49.0496C52.4693 49.0496 52.9384 48.5803 52.9384 48.0013C52.9384 47.4223 52.4693 46.9524 51.8903 46.9524Z" fill="white"/>
<path d="M56.54 49.7573L54.4695 53.7786H45.6523L42.0463 50.9384H35.1303C34.9457 50.6386 34.6153 50.4378 34.2375 50.4378C33.6585 50.4378 33.189 50.9076 33.189 51.4866C33.189 52.0658 33.6585 52.5351 34.2375 52.5351C34.6151 52.5351 34.9453 52.3349 35.13 52.0353H41.6664L45.2724 54.8757H55.1377L57.2087 50.8544H71.5539V49.7575H56.54V49.7573Z" fill="white"/>
</svg>
