<svg width="80" height="80" viewBox="0 0 80 80" fill="none" xmlns="http://www.w3.org/2000/svg">
<rect width="80" height="80" rx="11" fill="#FFC107"/>
<path fill-rule="evenodd" clip-rule="evenodd" d="M34.2759 29.694C34.2759 33.1163 31.4547 35.8901 27.9713 35.8901C24.4901 35.8901 21.6667 33.1163 21.6667 29.694C21.6667 26.2738 24.4901 23.5 27.9713 23.5C31.4547 23.5 34.2759 26.2738 34.2759 29.694ZM55.5712 26.9803C57.0949 26.9803 58.3334 28.197 58.3334 29.694C58.3334 31.193 57.0949 32.4098 55.5712 32.4098H43.5161C41.9904 32.4098 40.7518 31.193 40.7518 29.694C40.7518 28.197 41.9904 26.9803 43.5161 26.9803H55.5712ZM24.431 47.2563H36.4861C38.0118 47.2563 39.2504 48.4731 39.2504 49.9721C39.2504 51.469 38.0118 52.6878 36.4861 52.6878H24.431C22.9053 52.6878 21.6667 51.469 21.6667 49.9721C21.6667 48.4731 22.9053 47.2563 24.431 47.2563ZM52.0288 56.0926C55.5121 56.0926 58.3334 53.3188 58.3334 49.8985C58.3334 46.4763 55.5121 43.7025 52.0288 43.7025C48.5475 43.7025 45.7242 46.4763 45.7242 49.8985C45.7242 53.3188 48.5475 56.0926 52.0288 56.0926Z" fill="white"/>
</svg>
