<svg width="70" height="70" viewBox="0 0 70 70" fill="none" xmlns="http://www.w3.org/2000/svg">
<path d="M34.9998 5.59668C18.7613 5.59668 5.59595 18.7616 5.59595 35.0001C5.59595 51.2397 18.7613 64.4041 34.9998 64.4041C51.2396 64.4041 64.4046 51.2397 64.4046 35.0001C64.4046 18.7616 51.2396 5.59668 34.9998 5.59668Z" fill="#EDF3FC"/>
<path d="M34.9997 0.136719C15.7761 0.136719 0.136719 15.7765 0.136719 35C0.136719 54.2235 15.7761 69.8633 34.9997 69.8633C54.2236 69.8633 69.8633 54.2235 69.8633 35C69.8633 15.7765 54.2236 0.136719 34.9997 0.136719ZM34.9997 68.7459C16.392 68.7459 1.25357 53.6077 1.25357 35C1.25357 16.3923 16.392 1.25412 34.9997 1.25412C53.6077 1.25412 68.7464 16.3924 68.7464 35C68.7464 53.6076 53.6077 68.7459 34.9997 68.7459Z" fill="#EDF3FC"/>
<path d="M54.1698 41.1907C52.7579 40.8372 51.6549 39.7338 51.3012 38.3224L51.2409 38.0811L51.1807 38.3224C50.8266 39.7337 49.7237 40.8372 48.3122 41.1907L48.0708 41.2516L48.3122 41.3119C49.7237 41.6654 50.8268 42.7682 51.1807 44.1798L51.2409 44.4212L51.3012 44.1798C51.655 42.7683 52.7579 41.6654 54.1698 41.3119L54.4111 41.2516L54.1698 41.1907Z" fill="#330D84"/>
<path d="M40.5559 12.1652C39.0254 11.7821 37.8309 10.5876 37.448 9.05798L37.3827 8.79712L37.3168 9.05798C36.9338 10.5876 35.7396 11.7821 34.2092 12.1652L33.9487 12.2311L34.2092 12.2955C35.7395 12.6794 36.9337 13.8739 37.3168 15.4042L37.3827 15.6641L37.448 15.4042C37.8309 13.8739 39.0255 12.6792 40.5559 12.2955L40.8164 12.2311L40.5559 12.1652Z" fill="#FFBE1B"/>
<path d="M23.0283 44.3333C20.9694 43.8184 19.3623 42.211 18.8469 40.1537L18.7594 39.8027L18.6704 40.1537C18.1552 42.211 16.5485 43.8186 14.4901 44.3333L14.1396 44.4222L14.4901 44.5085C16.5486 45.0246 18.1552 46.6321 18.6704 48.691L18.7594 49.0406L18.8469 48.691C19.3622 46.6321 20.9694 45.0247 23.0283 44.5085L23.3784 44.4222L23.0283 44.3333Z" fill="#5D8EF9"/>
<path d="M61.2643 37.3051C59.5854 36.8845 58.2744 35.5733 57.8534 33.8947L57.7822 33.6084L57.7096 33.8947C57.289 35.5733 55.9786 36.8845 54.2997 37.3051L54.0137 37.3769L54.2997 37.4487C55.9786 37.8688 57.289 39.1794 57.7096 40.859L57.7822 41.1454L57.8534 40.859C58.2744 39.1794 59.5854 37.8688 61.2643 37.4487L61.551 37.3769L61.2643 37.3051Z" fill="#330D84"/>
<path d="M21.2528 28.957L18.6555 29.018C18.7799 29.4641 18.7894 29.9344 18.6864 30.3849L21.2429 30.3249C21.1856 29.8706 21.1884 29.4104 21.2528 28.957Z" fill="#330D84"/>
<path d="M25.6642 22.009L25.6033 24.6063C26.0566 24.5417 26.5168 24.5393 26.971 24.5963L27.031 22.0402C26.5805 22.1432 26.1104 22.1336 25.6642 22.009Z" fill="#330D84"/>
<path d="M38.6171 28.8315H31.3831C31.4587 29.2835 31.4744 29.7436 31.4286 30.1987H38.5716C38.5258 29.7436 38.5415 29.2835 38.6171 28.8315Z" fill="#330D84"/>
<path d="M44.3355 22.009C43.8894 22.1334 43.4191 22.143 42.9688 22.0402L43.0288 24.5963C43.4829 24.5393 43.9431 24.5419 44.3965 24.6063L44.3355 22.009Z" fill="#330D84"/>
<path d="M51.3446 29.0179L48.7473 28.9568C48.8117 29.4103 48.8143 29.8706 48.7572 30.3248L51.3137 30.3848C51.2106 29.9343 51.2201 29.464 51.3446 29.0179Z" fill="#330D84"/>
<path d="M40.7568 33.8982L37.761 39.0871C38.1536 39.3386 38.5101 39.6416 38.8199 39.9875L41.9759 34.5212C41.5493 34.3721 41.1395 34.1634 40.7568 33.8982Z" fill="#330D84"/>
<path d="M29.2411 33.8997C28.8583 34.1648 28.4483 34.3731 28.0217 34.5221L31.1783 39.9894C31.488 39.6434 31.8442 39.3401 32.2368 39.0884L29.2411 33.8997Z" fill="#330D84"/>
<path d="M30.9492 46.5474L29.0991 48.3125C29.4904 48.5582 29.8162 48.8974 30.0437 49.3009L31.9233 47.5077C31.5572 47.2326 31.23 46.9088 30.9492 46.5474Z" fill="#330D84"/>
<path d="M39.0505 46.5474C38.7697 46.909 38.4425 47.2326 38.0764 47.5075L39.9559 49.3006C40.1834 48.8974 40.5092 48.5581 40.9006 48.3123L39.0505 46.5474Z" fill="#330D84"/>
<path d="M42.3713 47.8875C40.8398 47.8875 39.5986 49.1287 39.5986 50.6602C39.5986 52.1918 40.8398 53.4325 42.3713 53.4325C43.9027 53.4325 45.1439 52.1918 45.1439 50.6602C45.1439 49.1287 43.9027 47.8875 42.3713 47.8875Z" fill="#FFBE1B"/>
<path d="M27.6286 47.8875C26.0972 47.8875 24.856 49.1287 24.856 50.6602C24.856 52.1918 26.0972 53.4325 27.6286 53.4325C29.1601 53.4325 30.4013 52.1918 30.4013 50.6602C30.4013 49.1287 29.1601 47.8875 27.6286 47.8875Z" fill="#FFBE1B"/>
<path d="M35 38.2793C32.1681 38.2793 29.873 40.5745 29.873 43.4061C29.873 46.2382 32.1681 48.5327 35 48.5327C37.8316 48.5327 40.127 46.2382 40.127 43.4061C40.127 40.5745 37.8316 38.2793 35 38.2793Z" fill="#8AC9F9"/>
<path d="M28.3716 17.3798C27.2885 16.2967 25.5335 16.2971 24.4505 17.3799C23.3676 18.4631 23.3673 20.2179 24.4504 21.301C25.5332 22.3838 27.2885 22.3839 28.3716 21.301C29.4544 20.218 29.4544 18.4626 28.3716 17.3798Z" fill="#FFBE1B"/>
<path d="M17.947 27.8041C16.8639 26.7211 15.1089 26.7213 14.0259 27.8043C12.9431 28.8872 12.9427 30.6424 14.0258 31.7254C15.1086 32.8082 16.864 32.8082 17.947 31.7254C19.0298 30.6424 19.0297 28.887 17.947 27.8041Z" fill="#FFBE1B"/>
<path d="M29.9533 26.0567C27.9508 24.054 24.7053 24.0546 22.7031 26.057C20.7009 28.0592 20.7003 31.3045 22.7028 33.3069C24.7052 35.3091 27.9509 35.3093 29.9534 33.3069C31.9554 31.3048 31.9557 28.0588 29.9533 26.0567Z" fill="#8AC9F9"/>
<path d="M45.5493 17.3799C44.4665 16.2971 42.7115 16.2967 41.6284 17.3798C40.5454 18.4626 40.5454 20.218 41.6284 21.301C42.7113 22.3839 44.4667 22.3838 45.5496 21.301C46.6327 20.2179 46.6324 18.4631 45.5493 17.3799Z" fill="#FFBE1B"/>
<path d="M55.9739 27.8043C54.8909 26.7213 53.136 26.7211 52.0529 27.8041C50.97 28.887 50.97 30.6424 52.0529 31.7254C53.1357 32.8082 54.8912 32.8082 55.9742 31.7254C57.0573 30.6424 57.0568 28.8872 55.9739 27.8043Z" fill="#FFBE1B"/>
<path d="M47.2969 26.057C45.2945 24.0546 42.0492 24.054 40.0467 26.0567C38.0443 28.0588 38.0444 31.3048 40.0467 33.3069C42.049 35.3093 45.2947 35.3091 47.2971 33.3069C49.2996 31.3045 49.2992 28.0591 47.2969 26.057Z" fill="#8AC9F9"/>
</svg>
