<svg width="45" height="44" viewBox="0 0 45 44" fill="none" xmlns="http://www.w3.org/2000/svg">
<rect x="0.5" y="0.000610352" width="44" height="44" rx="22" fill="url(#paint0_linear_21_194)"/>
<path d="M29.5 25.0006C27.29 25.0006 25.5 26.7906 25.5 29.0006C25.5 29.7506 25.71 30.4606 26.08 31.0606C26.77 32.2206 28.04 33.0006 29.5 33.0006C30.96 33.0006 32.23 32.2206 32.92 31.0606C33.29 30.4606 33.5 29.7506 33.5 29.0006C33.5 26.7906 31.71 25.0006 29.5 25.0006ZM31.57 28.5706L29.44 30.5406C29.3 30.6706 29.11 30.7406 28.93 30.7406C28.74 30.7406 28.55 30.6706 28.4 30.5206L27.41 29.5306C27.12 29.2406 27.12 28.7606 27.41 28.4706C27.7 28.1806 28.18 28.1806 28.47 28.4706L28.95 28.9506L30.55 27.4706C30.85 27.1906 31.33 27.2106 31.61 27.5106C31.89 27.8106 31.87 28.2806 31.57 28.5706Z" fill="white"/>
<path d="M32.5 17.5506V18.0006C32.5 18.5506 32.05 19.0006 31.5 19.0006H13.5C12.95 19.0006 12.5 18.5506 12.5 18.0006V17.5406C12.5 15.2506 14.35 13.4006 16.64 13.4006H28.35C30.64 13.4006 32.5 15.2606 32.5 17.5506Z" fill="white"/>
<path d="M12.5 21.5006V26.4606C12.5 28.7506 14.35 30.6006 16.64 30.6006H22.9C23.48 30.6006 23.98 30.1106 23.93 29.5306C23.79 28.0006 24.28 26.3406 25.64 25.0206C26.2 24.4706 26.89 24.0506 27.64 23.8106C28.89 23.4106 30.1 23.4606 31.17 23.8206C31.82 24.0406 32.5 23.5706 32.5 22.8806V21.4906C32.5 20.9406 32.05 20.4906 31.5 20.4906H13.5C12.95 20.5006 12.5 20.9506 12.5 21.5006ZM18.5 27.2506H16.5C16.09 27.2506 15.75 26.9106 15.75 26.5006C15.75 26.0906 16.09 25.7506 16.5 25.7506H18.5C18.91 25.7506 19.25 26.0906 19.25 26.5006C19.25 26.9106 18.91 27.2506 18.5 27.2506Z" fill="white"/>
<defs>
<linearGradient id="paint0_linear_21_194" x1="22.688" y1="0.000610331" x2="22.688" y2="44.0006" gradientUnits="userSpaceOnUse">
<stop stop-color="#5270FC"/>
<stop offset="1" stop-color="#3859F2"/>
</linearGradient>
</defs>
</svg>
