<svg width="70" height="70" viewBox="0 0 70 70" fill="none" xmlns="http://www.w3.org/2000/svg">
<path d="M34.9998 5.59595C18.7613 5.59595 5.59595 18.7606 5.59595 34.9998C5.59595 51.239 18.7613 64.404 34.9998 64.404C51.2396 64.404 64.4047 51.239 64.4047 34.9998C64.4047 18.7606 51.2396 5.59595 34.9998 5.59595Z" fill="#EDF3FC"/>
<path d="M34.9997 0.136719C15.7761 0.136719 0.136719 15.7765 0.136719 34.9999C0.136719 54.2233 15.7761 69.8633 34.9997 69.8633C54.2236 69.8633 69.8633 54.2233 69.8633 34.9999C69.8633 15.7765 54.2236 0.136719 34.9997 0.136719ZM34.9997 68.7459C16.392 68.7459 1.25357 53.6074 1.25357 34.9999C1.25357 16.3923 16.3922 1.25357 34.9997 1.25357C53.6077 1.25357 68.7466 16.3923 68.7466 34.9999C68.7466 53.6076 53.6077 68.7459 34.9997 68.7459Z" fill="#EDF3FC"/>
<path d="M28.3862 14.351C27.2207 14.0586 26.31 13.148 26.0177 11.9829L25.9679 11.7837L25.9183 11.9829C25.6261 13.148 24.7153 14.0587 23.5499 14.351L23.3506 14.4013L23.5499 14.4511C24.7153 14.743 25.6263 15.6538 25.9183 16.8192L25.9679 17.0184L26.0177 16.8192C26.31 15.6538 27.2207 14.7428 28.3862 14.4511L28.5858 14.4013L28.3862 14.351Z" fill="#330D84"/>
<path d="M23.2354 16.7604C21.6099 16.3527 20.34 15.0829 19.9325 13.4582L19.863 13.1804L19.7938 13.4582C19.3863 15.083 18.1164 16.3527 16.4912 16.7604L16.2134 16.8307L16.4912 16.9001C18.1165 17.3071 19.3865 18.5771 19.7938 20.2022L19.863 20.4798L19.9325 20.2022C20.34 18.577 21.6101 17.307 23.2354 16.9001L23.5136 16.8307L23.2354 16.7604Z" fill="#330D84"/>
<path d="M56.599 35.7119C55.1873 35.3584 54.0841 34.2551 53.7304 32.8436L53.6701 32.6025L53.6101 32.8436C53.256 34.2551 52.1529 35.3585 50.7414 35.7119L50.5 35.7722L50.7414 35.8325C52.1529 36.1866 53.2561 37.2894 53.6101 38.7014L53.6701 38.942L53.7304 38.7014C54.0842 37.2894 55.1873 36.1865 56.599 35.8325L56.8405 35.7722L56.599 35.7119Z" fill="#FFBE1B"/>
<path d="M58.7589 41.6349C57.8341 41.4031 57.1117 40.6808 56.8801 39.7563L56.8406 39.5984L56.8011 39.7563C56.5694 40.6808 55.8467 41.4031 54.9223 41.6349L54.7644 41.6745L54.9223 41.714C55.8468 41.9458 56.5694 42.6681 56.8011 43.5929L56.8406 43.7504L56.8801 43.5929C57.1117 42.6681 57.8341 41.9458 58.7589 41.714L58.917 41.6745L58.7589 41.6349Z" fill="#FFBE1B"/>
<path d="M20.4637 43.2267C18.6132 42.7631 17.1683 41.3182 16.7045 39.468L16.6258 39.1523L16.5459 39.468C16.0826 41.3182 14.6383 42.7632 12.7881 43.2267L12.4727 43.306L12.7881 43.3853C14.6383 43.8481 16.0827 45.2927 16.5459 47.1437L16.6258 47.4592L16.7045 47.1437C17.1683 45.2927 18.6132 43.8481 20.4637 43.3853L20.7794 43.306L20.4637 43.2267Z" fill="#5D8EF9"/>
<path d="M45.8131 18.165H24.1874C23.0347 18.165 22.1003 19.0994 22.1003 20.2515V50.4318C22.1003 51.5844 23.0347 52.5185 24.1874 52.5185H41.5495C39.8211 51.1487 38.7111 49.0326 38.7111 46.6559C38.7111 42.5246 42.0599 39.1763 46.1905 39.1763C46.7788 39.1763 47.3504 39.2464 47.8996 39.3748V20.2515C47.8997 19.0994 46.9657 18.165 45.8131 18.165Z" fill="#5932AE"/>
<path d="M45.1295 18.8486H24.8709C23.7183 18.8486 22.7839 19.783 22.7839 20.9351V49.7482C22.7839 50.9008 23.7183 51.835 24.8709 51.835H40.7977C39.5064 50.491 38.7111 48.6669 38.7111 46.6559C38.7111 42.5246 42.0599 39.1763 46.1905 39.1763C46.5385 39.1763 46.8806 39.2021 47.216 39.2479V20.9351C47.2161 19.783 46.2821 18.8486 45.1295 18.8486Z" fill="#330D84"/>
<path d="M35 22.6477C30.0921 22.6477 26.1133 26.6265 26.1133 31.5346C26.1133 34.5306 27.5974 37.1783 29.8689 38.7882L30.618 37.6905C30.6492 37.6414 30.6832 37.5941 30.721 37.55L30.7267 37.5423L30.7277 37.5427C30.9422 37.2963 31.2575 37.14 31.6096 37.14C32.2562 37.14 32.7804 37.6643 32.7804 38.3108C32.7804 38.4379 32.7595 38.56 32.7219 38.6748L32.7225 38.675L32.3498 40.0195C33.1868 40.2806 34.077 40.4214 35 40.4214C39.9079 40.4214 43.8867 36.4426 43.8867 31.5346C43.8867 26.6265 39.9079 22.6477 35 22.6477Z" fill="white"/>
<path d="M35 33.5852C36.1326 33.5852 37.0508 32.667 37.0508 31.5344C37.0508 30.4018 36.1326 29.4836 35 29.4836C33.8674 29.4836 32.9492 30.4018 32.9492 31.5344C32.9492 32.667 33.8674 33.5852 35 33.5852Z" fill="#330D84"/>
<path d="M42.2758 27.7466L37.4441 30.3133C37.6284 30.6811 37.7344 31.095 37.7344 31.5344C37.7344 32.2232 37.4778 32.8507 37.0576 33.3315L41.2974 36.7901C42.4867 35.3666 43.2033 33.5344 43.2033 31.5344C43.2031 30.1676 42.8671 28.88 42.2758 27.7466Z" fill="#EDF3FC"/>
<path d="M32.2655 31.5345C32.2655 31.3718 32.2815 31.213 32.3091 31.0582L26.9874 29.7766C26.8635 30.3432 26.7966 30.9308 26.7966 31.5345C26.7966 33.0855 27.2273 34.5355 27.9751 35.7724L32.5805 32.807C32.3802 32.4268 32.2655 31.9943 32.2655 31.5345Z" fill="#EDF3FC"/>
<path d="M36.0863 34.0436C35.7531 34.188 35.3863 34.2689 35.0001 34.2689C34.5998 34.2689 34.2208 34.1807 33.8782 34.0264L32.3115 37.3752C32.5958 37.5888 32.7805 37.9278 32.7805 38.3107C32.7805 38.4379 32.7596 38.56 32.722 38.6748L32.7226 38.6749L32.5338 39.3561C33.3126 39.602 34.1401 39.7379 35.0001 39.7379C36.2276 39.7379 37.3913 39.4664 38.4369 38.9832L36.0863 34.0436Z" fill="#EDF3FC"/>
<path d="M28.7485 26.2261C28.1879 26.8853 27.7314 27.635 27.4001 28.449L32.4669 30.5128C32.5186 30.3859 32.5782 30.2631 32.6473 30.1463L28.7485 26.2261Z" fill="#EDF3FC"/>
<path d="M35 23.3313C33.5355 23.3313 32.1616 23.7168 30.9714 24.3895L33.8544 29.0541C34.2033 28.8927 34.5904 28.8002 35 28.8002C35.0621 28.8002 35.1226 28.8054 35.1837 28.8095L35.8121 23.3716C35.545 23.3454 35.2742 23.3313 35 23.3313Z" fill="#EDF3FC"/>
<path d="M25.7715 23.3789C26.5266 23.3789 27.1387 22.7668 27.1387 22.0117C27.1387 21.2566 26.5266 20.6445 25.7715 20.6445C25.0164 20.6445 24.4043 21.2566 24.4043 22.0117C24.4043 22.7668 25.0164 23.3789 25.7715 23.3789Z" fill="#FFBE1B"/>
<path d="M44.2285 23.3789C44.9836 23.3789 45.5957 22.7668 45.5957 22.0117C45.5957 21.2566 44.9836 20.6445 44.2285 20.6445C43.4734 20.6445 42.8613 21.2566 42.8613 22.0117C42.8613 22.7668 43.4734 23.3789 44.2285 23.3789Z" fill="#FFBE1B"/>
<path d="M46.1905 39.1763C42.06 39.1763 38.7112 42.5247 38.7112 46.6559C38.7112 50.7866 42.06 54.1347 46.1905 54.1347C50.3215 54.1347 53.6704 50.7866 53.6704 46.6559C53.6703 42.5247 50.3213 39.1763 46.1905 39.1763Z" fill="#FFBE1B"/>
<path d="M46.1905 41.0417C43.0899 41.0417 40.5762 43.5548 40.5762 46.656C40.5762 49.7563 43.09 52.27 46.1905 52.27C49.2913 52.27 51.8047 49.7563 51.8047 46.656C51.8047 43.5548 49.2912 41.0417 46.1905 41.0417Z" fill="#FFE37B"/>
<path d="M48.4542 47.0058C48.2536 46.7749 47.9853 46.6228 47.6479 46.5502C47.7411 46.5087 47.8062 46.4789 47.8425 46.4604C47.8786 46.4424 47.944 46.397 48.0375 46.3241C48.3128 46.1166 48.4504 45.7994 48.4504 45.3735C48.4504 45.0201 48.3283 44.7039 48.0843 44.4234C47.9492 44.2725 47.7478 44.1532 47.48 44.0641C47.4007 44.0382 47.3145 44.0168 47.2253 43.9987V43.3059H46.2699V43.9324H45.6289V43.3059H44.6731V43.9324H44.4062H43.627V44.9605H44.4061V48.35H43.627V49.3787H44.4061H44.673V50.0053H45.6288V49.3787H46.2697V50.0053H47.2251V49.3554C47.7448 49.2994 48.1257 49.1398 48.3645 48.8725C48.624 48.5817 48.7542 48.2467 48.7542 47.8671C48.7542 47.5244 48.654 47.2375 48.4542 47.0058ZM45.6221 44.9603H46.206C46.5644 44.9603 46.8185 44.9994 46.9692 45.0772C47.1201 45.1552 47.1953 45.3147 47.1953 45.5566C47.1953 45.798 47.1134 45.9555 46.95 46.0278C46.786 46.1006 46.5355 46.1371 46.1985 46.1371H45.622V44.9603H45.6221ZM47.2388 48.2214C47.0642 48.3072 46.8032 48.3499 46.4554 48.3499H45.6222V47.0956H46.3389C46.7437 47.0956 47.0382 47.1361 47.2229 47.2162C47.4074 47.2971 47.4996 47.4634 47.4996 47.7152C47.4996 47.9671 47.4127 48.1358 47.2388 48.2214Z" fill="white"/>
<path d="M32.7803 38.3106C32.7803 37.6641 32.2562 37.1399 31.6096 37.1399C31.2574 37.1399 30.9422 37.2962 30.7276 37.5425L30.7267 37.5421L30.7209 37.5499C30.6832 37.5939 30.6492 37.6412 30.618 37.6903L25.1874 45.6494C25.1821 45.6564 25.177 45.6638 25.1717 45.6709L25.1702 45.6729C24.8274 46.1384 24.6245 46.7138 24.6245 47.3364C24.6245 48.8879 25.8825 50.1461 27.4342 50.1461C28.7069 50.1461 29.7814 49.2995 30.1268 48.1392L30.1269 48.1388C30.1682 48.0001 30.1988 47.857 30.2184 47.7103L32.7225 38.6748L32.7218 38.6747C32.7593 38.5599 32.7803 38.4378 32.7803 38.3106Z" fill="#5D8EF9"/>
</svg>
