<svg width="72" height="72" viewBox="0 0 72 72" fill="none" xmlns="http://www.w3.org/2000/svg">
<circle cx="36" cy="36" r="36" fill="#0D3EFF"/>
<circle cx="36" cy="36" r="36" fill="white" fill-opacity="0.15"/>
<path d="M49.2915 36.7292C50.1896 36.7292 51.0527 36.4697 51.8138 35.9588C53.0755 35.106 53.9513 33.559 53.9853 31.9502C54.0245 31.1324 53.9853 30.2662 53.8658 29.3011C53.8319 29.022 53.6877 28.7686 53.4662 28.5966C53.2437 28.4256 52.9656 28.3494 52.6854 28.3834C51.6117 28.5216 50.5113 29.0324 49.5947 29.8319C49.5513 29.4833 49.472 29.1284 49.399 28.7777C50.4288 28.2763 51.2267 27.4649 51.6367 26.447C52.2248 25.036 52.0405 23.2932 51.1537 21.8987C50.6603 21.121 50.1289 20.4073 49.5758 19.7749C49.1916 19.3371 48.5284 19.2929 48.0886 19.676C47.1349 20.5093 46.4921 21.7185 46.2295 23.1831C46.0081 24.4942 46.1368 25.7075 46.6157 26.7993C47.1044 27.8716 47.6015 29.6789 47.6015 31.4908C47.6015 35.3418 45.7526 38.7047 43.0923 40.6503C42.358 41.2879 41.9036 41.3142 41.5233 42.0376H37.0545V39.6024C41.429 37.9964 44.4373 33.8066 44.4373 29.0951V23.0534C44.4373 22.6774 44.2374 22.3304 43.912 22.1408C43.5875 21.9534 43.1859 21.9503 42.8593 22.1377C42.8429 22.147 41.2144 23.0533 39.6911 23.0533C38.585 23.0533 37.1924 21.7566 36.7918 21.3024C36.3922 20.8493 35.6073 20.8493 35.2077 21.3024C34.8071 21.7566 33.4146 23.0533 32.3084 23.0533C30.7758 23.0533 29.1547 22.1459 29.1382 22.1367C28.8117 21.9513 28.409 21.9534 28.0866 22.1429C27.7622 22.3314 27.5624 22.6785 27.5624 23.0534V29.09C27.5624 33.7978 30.5698 37.9845 34.9451 39.5956V42.0376H30.4299C30.1673 41.5955 29.7806 41.2897 29.4287 41.0406C24.569 37.5785 23.2726 31.563 25.451 26.7004L25.4406 26.6954C25.8818 25.6387 26.0032 24.459 25.7878 23.1707C25.5251 21.7175 24.8834 20.5094 23.9307 19.6762C23.4951 19.2951 22.8256 19.3352 22.4435 19.775C21.8863 20.4116 21.3549 21.1264 20.8656 21.8977C19.9789 23.2923 19.7924 25.035 20.3764 26.4358C20.7899 27.4615 21.5875 28.2744 22.6162 28.7765C22.5445 29.1304 22.4777 29.4832 22.4342 29.8413C21.5122 29.0358 20.39 28.5219 19.3139 28.3834C19.0358 28.3484 18.7536 28.4246 18.5322 28.5976C18.3108 28.7696 18.1666 29.024 18.1336 29.3022C18.0151 30.2683 17.977 31.1355 18.0131 31.9327C18.0574 33.6002 18.9643 35.1513 20.2147 35.9671C20.947 36.4718 21.8132 36.7302 22.7185 36.7302C22.9315 36.7302 23.1476 36.7047 23.3637 36.676C23.4962 37.0041 23.6367 37.3268 23.7947 37.6436C22.8439 37.5188 21.6526 37.5468 20.4855 38.1258C20.2301 38.2525 20.0375 38.4759 19.95 38.7458C19.8624 39.0167 19.8871 39.3112 20.02 39.5625C20.3898 40.266 20.8305 41.0787 21.3548 41.7883C22.2482 43.0924 23.7176 43.9893 25.453 43.9893C26.5049 43.9893 27.5156 43.585 28.3494 42.8602C28.4756 42.9498 28.5948 43.0341 28.6149 43.049L28.617 50.4751H27.5624C26.9794 50.4751 26.5077 50.9468 26.5077 51.5298C26.5077 52.1128 26.9794 52.5845 27.5624 52.5845H44.4373C45.0202 52.5845 45.4919 52.1128 45.4919 51.5298C45.4919 50.9468 45.0202 50.4751 44.4373 50.4751H43.3826V43.0923C43.3826 43.0755 43.3738 43.0615 43.3731 43.0448C43.4703 42.9834 43.5631 42.9184 43.6585 42.8545C44.4842 43.598 45.4778 44.0019 46.6733 43.9956C48.1884 43.9956 49.6767 43.1902 50.6891 41.7946C51.1838 41.0415 51.6665 40.3247 52.0394 39.5153C52.2783 38.9972 52.0611 38.3823 51.5491 38.1289C50.5897 37.6527 49.5009 37.5129 48.2441 37.6654C48.4065 37.3438 48.5573 37.0156 48.6949 36.6791C48.8947 36.7044 49.0945 36.7292 49.2915 36.7292V36.7292ZM31.7811 29.09V28.3062C31.7811 27.7552 32.2044 27.2979 32.7534 27.2546C33.6567 27.1846 34.5805 26.8972 35.4993 26.4018C35.8103 26.2329 36.1893 26.2329 36.5004 26.4018C37.4191 26.8972 38.343 27.1846 39.2463 27.2546C39.7953 27.2979 40.2185 27.7552 40.2185 28.3062V29.0952C40.2185 31.6835 38.7951 34.0534 36.5045 35.2791C36.349 35.3625 36.178 35.4036 36.0071 35.4036C35.8371 35.4036 35.6661 35.3624 35.5116 35.28C33.2107 34.0544 31.7811 31.6824 31.7811 29.09V29.09ZM38.1092 48.3658H33.8905C33.3075 48.3658 32.8358 47.894 32.8358 47.3111C32.8358 46.7281 33.3075 46.2564 33.8905 46.2564H38.1092C38.6921 46.2564 39.1639 46.7281 39.1639 47.3111C39.1639 47.894 38.6921 48.3658 38.1092 48.3658Z" fill="white"/>
<path d="M38.1072 29.2207C37.4017 29.0785 36.6972 28.8416 35.9999 28.511C35.3026 28.8416 34.5981 29.0785 33.8926 29.2207C33.9338 30.7872 34.7237 32.2271 36.0061 33.115C37.2822 32.2261 38.0681 30.7872 38.1072 29.2207Z" fill="white"/>
</svg>
