<svg width="30" height="31" viewBox="0 0 30 31" fill="none" xmlns="http://www.w3.org/2000/svg">
<path d="M14.925 3.26253L11.9125 10.275H8.9C8.4 10.275 7.9125 10.3125 7.4375 10.4125L8.6875 7.41253L8.7375 7.30003L8.8125 7.10003C8.85 7.01253 8.875 6.93753 8.9125 6.87503C10.3625 3.51253 11.9875 2.46253 14.925 3.26253Z" fill="#6CE1F5"/>
<path d="M23.4124 10.6125L23.3874 10.6C22.6374 10.3875 21.8749 10.275 21.0999 10.275H13.2749L16.0874 3.73752L16.1249 3.65002C16.2999 3.71252 16.4874 3.80002 16.6749 3.86252L19.4374 5.02502C20.9749 5.66252 22.0499 6.32502 22.7124 7.12503C22.8249 7.27503 22.9249 7.41252 23.0249 7.57502C23.1374 7.75002 23.2249 7.92503 23.2749 8.11253C23.3249 8.22503 23.3624 8.32502 23.3874 8.43752C23.5749 9.07502 23.5874 9.80003 23.4124 10.6125Z" fill="#6CE1F5"/>
<path d="M15.6499 22.575H15.9624C16.3374 22.575 16.6499 22.2375 16.6499 21.825C16.6499 21.3 16.4999 21.225 16.1749 21.1L15.6499 20.9125V22.575Z" fill="#6CE1F5"/>
<path d="M22.8626 12.4C22.3001 12.2375 21.7125 12.15 21.1 12.15H8.90005C8.05005 12.15 7.25005 12.3125 6.50005 12.6375C4.32505 13.575 2.80005 15.7375 2.80005 18.25V20.6875C2.80005 20.9875 2.82505 21.275 2.86255 21.575C3.13755 25.55 5.26255 27.675 9.23755 27.9375C9.52505 27.975 9.81255 28 10.125 28H19.875C24.5 28 26.9375 25.8 27.175 21.425C27.1875 21.1875 27.2 20.9375 27.2 20.6875V18.25C27.2 15.4875 25.3626 13.1625 22.8626 12.4ZM16.6 19.875C17.175 20.075 17.95 20.5 17.95 21.825C17.95 22.9625 17.0625 23.875 15.9625 23.875H15.65V24.15C15.65 24.5125 15.3625 24.8 15 24.8C14.6375 24.8 14.35 24.5125 14.35 24.15V23.875H14.2375C13.0375 23.875 12.05 22.8625 12.05 21.6125C12.05 21.25 12.3375 20.9625 12.7 20.9625C13.0625 20.9625 13.35 21.25 13.35 21.6125C13.35 22.1375 13.75 22.575 14.2375 22.575H14.35V20.4625L13.4 20.125C12.825 19.925 12.05 19.5 12.05 18.175C12.05 17.0375 12.9375 16.125 14.0375 16.125H14.35V15.85C14.35 15.4875 14.6375 15.2 15 15.2C15.3625 15.2 15.65 15.4875 15.65 15.85V16.125H15.7625C16.9625 16.125 17.95 17.1375 17.95 18.3875C17.95 18.75 17.6625 19.0375 17.3 19.0375C16.9375 19.0375 16.65 18.75 16.65 18.3875C16.65 17.8625 16.25 17.425 15.7625 17.425H15.65V19.5375L16.6 19.875Z" fill="#6CE1F5"/>
<path d="M13.3501 18.175C13.3501 18.7 13.5001 18.775 13.8251 18.9L14.3501 19.0875V17.425H14.0376C13.6501 17.425 13.3501 17.7625 13.3501 18.175Z" fill="#6CE1F5"/>
</svg>
