<svg width="45" height="44" viewBox="0 0 45 44" fill="none" xmlns="http://www.w3.org/2000/svg">
<rect x="0.5" y="0.000610352" width="44" height="44" rx="22" fill="url(#paint0_linear_21_207)"/>
<path d="M31.5 32.7506H13.5C13.09 32.7506 12.75 32.4106 12.75 32.0006C12.75 31.5906 13.09 31.2506 13.5 31.2506H31.5C31.91 31.2506 32.25 31.5906 32.25 32.0006C32.25 32.4106 31.91 32.7506 31.5 32.7506Z" fill="white"/>
<path d="M16.1 18.3806H14.5C13.95 18.3806 13.5 18.8306 13.5 19.3806V28.0006C13.5 28.5506 13.95 29.0006 14.5 29.0006H16.1C16.65 29.0006 17.1 28.5506 17.1 28.0006V19.3806C17.1 18.8206 16.65 18.3806 16.1 18.3806Z" fill="white"/>
<path d="M23.3002 15.1906H21.7002C21.1502 15.1906 20.7002 15.6406 20.7002 16.1906V28.0006C20.7002 28.5506 21.1502 29.0006 21.7002 29.0006H23.3002C23.8502 29.0006 24.3002 28.5506 24.3002 28.0006V16.1906C24.3002 15.6406 23.8502 15.1906 23.3002 15.1906Z" fill="white"/>
<path d="M30.4999 12.0006H28.8999C28.3499 12.0006 27.8999 12.4506 27.8999 13.0006V28.0006C27.8999 28.5506 28.3499 29.0006 28.8999 29.0006H30.4999C31.0499 29.0006 31.4999 28.5506 31.4999 28.0006V13.0006C31.4999 12.4506 31.0499 12.0006 30.4999 12.0006Z" fill="white"/>
<defs>
<linearGradient id="paint0_linear_21_207" x1="22.688" y1="0.000610331" x2="22.688" y2="44.0006" gradientUnits="userSpaceOnUse">
<stop stop-color="#5270FC"/>
<stop offset="1" stop-color="#3859F2"/>
</linearGradient>
</defs>
</svg>
