<svg width="52" height="52" viewBox="0 0 52 52" fill="none" xmlns="http://www.w3.org/2000/svg">
<path d="M45.5 49.2916H6.5C5.61167 49.2916 4.875 48.555 4.875 47.6666C4.875 46.7783 5.61167 46.0416 6.5 46.0416H45.5C46.3883 46.0416 47.125 46.7783 47.125 47.6666C47.125 48.555 46.3883 49.2916 45.5 49.2916Z" fill="#6CE1F5"/>
<path d="M12.1333 18.1566H8.66667C7.475 18.1566 6.5 19.1316 6.5 20.3233V39C6.5 40.1916 7.475 41.1666 8.66667 41.1666H12.1333C13.325 41.1666 14.3 40.1916 14.3 39V20.3233C14.3 19.1099 13.325 18.1566 12.1333 18.1566Z" fill="#6CE1F5"/>
<path d="M27.7333 11.245H24.2666C23.075 11.245 22.1 12.22 22.1 13.4117V39C22.1 40.1917 23.075 41.1667 24.2666 41.1667H27.7333C28.925 41.1667 29.9 40.1917 29.9 39V13.4117C29.9 12.22 28.925 11.245 27.7333 11.245Z" fill="#6CE1F5"/>
<path d="M43.3333 4.33337H39.8666C38.675 4.33337 37.7 5.30837 37.7 6.50004V39C37.7 40.1917 38.675 41.1667 39.8666 41.1667H43.3333C44.525 41.1667 45.5 40.1917 45.5 39V6.50004C45.5 5.30837 44.525 4.33337 43.3333 4.33337Z" fill="#6CE1F5"/>
</svg>
