<svg width="56" height="56" viewBox="0 0 56 56" fill="none" xmlns="http://www.w3.org/2000/svg">
<circle cx="28" cy="28" r="28" fill="white"/>
<g clip-path="url(#clip0_21_358)">
<path d="M39.9168 27.9334C39.9168 31.8161 36.7578 34.9751 32.8752 34.9751C28.9925 34.9751 25.8335 31.8161 25.8335 27.9334C25.8335 24.0507 28.9925 20.8917 32.8752 20.8917C36.7578 20.8917 39.9168 24.0507 39.9168 27.9334ZM32.3335 26.6756C32.3335 26.4135 32.5003 26.2315 32.6498 26.2315H34.2293C34.6778 26.2315 35.0418 25.8675 35.0418 25.419C35.0418 24.9705 34.6778 24.6065 34.2293 24.6065H33.6877V24.4126C33.6877 23.9641 33.3237 23.6001 32.8752 23.6001C32.4267 23.6001 32.0627 23.9641 32.0627 24.4126V24.7137C31.2805 24.9802 30.7085 25.7537 30.7085 26.6756C30.7085 27.8175 31.5795 28.7459 32.6498 28.7459H33.1016C33.2511 28.7459 33.4179 28.929 33.4179 29.1911C33.4179 29.4533 33.2511 29.6353 33.1016 29.6353H31.521C31.0725 29.6353 30.7085 29.9993 30.7085 30.4478C30.7085 30.8963 31.0725 31.2603 31.521 31.2603H32.0627V31.4542C32.0627 31.9027 32.4267 32.2667 32.8752 32.2667C33.3237 32.2667 33.6877 31.9027 33.6877 31.4542V31.1531C34.4698 30.8866 35.0418 30.1131 35.0418 29.1911C35.0418 28.0493 34.1708 27.1209 33.1005 27.1209H32.6487C32.5003 27.1209 32.3335 26.9378 32.3335 26.6756Z" fill="url(#paint0_linear_21_358)"/>
<path d="M31.2502 18.8767V18.1833C31.2502 17.5875 30.7627 17.1 30.1668 17.1H29.6252C29.0293 17.1 28.5418 17.5875 28.5418 18.1833C28.5418 18.7792 28.0543 19.2667 27.4585 19.2667H22.0418C21.446 19.2667 20.9585 18.7792 20.9585 18.1833C20.9585 17.5875 20.471 17.1 19.8752 17.1H19.3335C18.7377 17.1 18.2502 17.5875 18.2502 18.1833V37.6834C18.2502 38.2792 18.7377 38.7667 19.3335 38.7667H30.1668C30.7627 38.7667 31.2502 38.2792 31.2502 37.6834V37.0009C31.781 37.0875 32.3227 37.1417 32.8752 37.1417C33.0593 37.1417 33.2327 37.1417 33.4168 37.1309V37.6834C33.4168 39.4709 31.9543 40.9334 30.1668 40.9334H19.3335C17.546 40.9334 16.0835 39.4709 16.0835 37.6834V18.1833C16.0835 16.3958 17.546 14.9333 19.3335 14.9333H30.1668C31.9543 14.9333 33.4168 16.3958 33.4168 18.1833V18.7358C33.2327 18.725 33.0593 18.725 32.8752 18.725C32.3227 18.725 31.781 18.7792 31.2502 18.8767Z" fill="url(#paint1_linear_21_358)"/>
</g>
<defs>
<linearGradient id="paint0_linear_21_358" x1="32.9353" y1="20.8917" x2="32.9353" y2="34.9751" gradientUnits="userSpaceOnUse">
<stop stop-color="#5270FC"/>
<stop offset="1" stop-color="#3859F2"/>
</linearGradient>
<linearGradient id="paint1_linear_21_358" x1="24.8242" y1="14.9333" x2="24.8242" y2="40.9333" gradientUnits="userSpaceOnUse">
<stop stop-color="#5270FC"/>
<stop offset="1" stop-color="#3859F2"/>
</linearGradient>
<clipPath id="clip0_21_358">
<rect width="26" height="26" fill="white" transform="translate(15 14.9333)"/>
</clipPath>
</defs>
</svg>
