<svg width="45" height="44" viewBox="0 0 45 44" fill="none" xmlns="http://www.w3.org/2000/svg">
<rect x="0.5" y="0.000610352" width="44" height="44" rx="22" fill="url(#paint0_linear_21_216)"/>
<path d="M32.5 25.0006C32.5 28.8706 29.37 32.0006 25.5 32.0006L26.55 30.2506" stroke="white" stroke-width="1.5" stroke-linecap="round" stroke-linejoin="round"/>
<path d="M12.5 19.0006C12.5 15.1306 15.63 12.0006 19.5 12.0006L18.45 13.7506" stroke="white" stroke-width="1.5" stroke-linecap="round" stroke-linejoin="round"/>
<path d="M32.5 14.2006V14.3106C32.5 14.5906 32.28 14.8106 32 14.8106H23C22.72 14.8106 22.5 14.5906 22.5 14.3106V14.2006C22.5 12.4406 22.94 12.0006 24.72 12.0006H30.28C32.06 12.0006 32.5 12.4406 32.5 14.2006Z" fill="white"/>
<path d="M23 15.8107C22.72 15.8107 22.5 16.0307 22.5 16.3107V17.3107V18.3007C22.5 20.0607 22.94 20.5007 24.72 20.5007H30.28C32.06 20.5007 32.5 20.0607 32.5 18.3007V17.3107V16.3107C32.5 16.0307 32.28 15.8107 32 15.8107H23Z" fill="white"/>
<path d="M22.5 25.7006V25.8106C22.5 26.0906 22.28 26.3106 22 26.3106H13C12.72 26.3106 12.5 26.0906 12.5 25.8106V25.7006C12.5 23.9406 12.94 23.5006 14.72 23.5006H20.28C22.06 23.5006 22.5 23.9406 22.5 25.7006Z" fill="white"/>
<path d="M13 27.3107C12.72 27.3107 12.5 27.5307 12.5 27.8107V28.8107V29.8007C12.5 31.5607 12.94 32.0007 14.72 32.0007H20.28C22.06 32.0007 22.5 31.5607 22.5 29.8007V28.8107V27.8107C22.5 27.5307 22.28 27.3107 22 27.3107H13Z" fill="white"/>
<defs>
<linearGradient id="paint0_linear_21_216" x1="22.688" y1="0.000610331" x2="22.688" y2="44.0006" gradientUnits="userSpaceOnUse">
<stop stop-color="#5270FC"/>
<stop offset="1" stop-color="#3859F2"/>
</linearGradient>
</defs>
</svg>
