<svg width="30" height="31" viewBox="0 0 30 31" fill="none" xmlns="http://www.w3.org/2000/svg">
<path fill-rule="evenodd" clip-rule="evenodd" d="M14.6601 27.8921C14.7986 27.9644 14.9534 28.0012 15.1081 27.9999C15.2629 27.9987 15.4165 27.9607 15.5561 27.8872L20.016 25.5031C21.2807 24.8289 22.2711 24.0751 23.0438 23.1974C24.7237 21.2853 25.6411 18.8448 25.6248 16.3283L25.5719 8.02748C25.5669 7.07139 24.9389 6.21826 24.0102 5.90815L15.7134 3.12446C15.2138 2.9553 14.6664 2.95898 14.1756 3.13304L5.91033 6.01601C4.98665 6.33839 4.37002 7.19764 4.37505 8.15496L4.42791 16.4496C4.44427 18.9698 5.39312 21.3992 7.1008 23.2918C7.88102 24.1572 8.88021 24.9 10.1588 25.5631L14.6601 27.8921ZM13.4795 18.1362C13.6657 18.3151 13.9074 18.4034 14.149 18.4009C14.3906 18.3997 14.631 18.309 14.8147 18.1276L19.6886 13.3226C20.0548 12.961 20.051 12.38 19.681 12.0233C19.3098 11.6666 18.712 11.6691 18.3458 12.0307L14.1351 16.1811L12.4111 14.5239C12.0399 14.1672 11.4434 14.1709 11.0759 14.5325C10.7097 14.8941 10.7135 15.4751 11.0847 15.8318L13.4795 18.1362Z" fill="#6CE1F5"/>
</svg>
