<svg width="52" height="52" viewBox="0 0 52 52" fill="none" xmlns="http://www.w3.org/2000/svg">
<path d="M47.6667 32.5C47.6667 40.885 40.885 47.6667 32.5 47.6667L34.775 43.875" stroke="#6CE1F5" stroke-width="1.5" stroke-linecap="round" stroke-linejoin="round"/>
<path d="M4.33337 19.5C4.33337 11.115 11.115 4.33337 19.5 4.33337L17.225 8.12504" stroke="#6CE1F5" stroke-width="1.5" stroke-linecap="round" stroke-linejoin="round"/>
<path d="M47.6667 9.10004V9.33837C47.6667 9.94504 47.19 10.4217 46.5833 10.4217H27.0833C26.4767 10.4217 26 9.94504 26 9.33837V9.10004C26 5.28671 26.9533 4.33337 30.81 4.33337H42.8567C46.7133 4.33337 47.6667 5.28671 47.6667 9.10004Z" fill="#6CE1F5"/>
<path d="M27.0833 12.5884C26.4767 12.5884 26 13.065 26 13.6717V15.8384V17.9834C26 21.7967 26.9533 22.75 30.81 22.75H42.8567C46.7133 22.75 47.6667 21.7967 47.6667 17.9834V15.8384V13.6717C47.6667 13.065 47.19 12.5884 46.5833 12.5884H27.0833Z" fill="#6CE1F5"/>
<path d="M26 34.0167V34.255C26 34.8617 25.5234 35.3383 24.9167 35.3383H5.41671C4.81004 35.3383 4.33337 34.8617 4.33337 34.255V34.0167C4.33337 30.2033 5.28671 29.25 9.14337 29.25H21.19C25.0467 29.25 26 30.2033 26 34.0167Z" fill="#6CE1F5"/>
<path d="M5.41671 37.505C4.81004 37.505 4.33337 37.9817 4.33337 38.5883V40.755V42.9C4.33337 46.7133 5.28671 47.6667 9.14337 47.6667H21.19C25.0467 47.6667 26 46.7133 26 42.9V40.755V38.5883C26 37.9817 25.5234 37.505 24.9167 37.505H5.41671Z" fill="#6CE1F5"/>
</svg>
