<svg width="44" height="44" viewBox="0 0 44 44" fill="none" xmlns="http://www.w3.org/2000/svg">
<rect width="44" height="44" rx="22" fill="url(#paint0_linear_90_1386)"/>
<path d="M30.91 21.1199V16.7299C30.91 15.9099 30.29 14.9799 29.52 14.6699L23.95 12.3899C22.7 11.8799 21.29 11.8799 20.04 12.3899L14.47 14.6699C13.71 14.9799 13.09 15.9099 13.09 16.7299V21.1199C13.09 26.0099 16.64 30.5899 21.49 31.9299C21.82 32.0199 22.18 32.0199 22.51 31.9299C27.36 30.5899 30.91 26.0099 30.91 21.1199ZM22.75 22.8699V25.4999C22.75 25.9099 22.41 26.2499 22 26.2499C21.59 26.2499 21.25 25.9099 21.25 25.4999V22.8699C20.24 22.5499 19.5 21.6099 19.5 20.4999C19.5 19.1199 20.62 17.9999 22 17.9999C23.38 17.9999 24.5 19.1199 24.5 20.4999C24.5 21.6199 23.76 22.5499 22.75 22.8699Z" fill="white"/>
<defs>
<linearGradient id="paint0_linear_90_1386" x1="22" y1="0" x2="22" y2="44" gradientUnits="userSpaceOnUse">
<stop stop-color="#5E8BFF"/>
<stop offset="1" stop-color="#9541FF"/>
</linearGradient>
</defs>
</svg>
