<svg width="26" height="27" viewBox="0 0 26 27" fill="none" xmlns="http://www.w3.org/2000/svg">
<g clip-path="url(#clip0_12_168)">
<path d="M24.9166 13.5C24.9166 17.3827 21.7576 20.5417 17.8749 20.5417C13.9923 20.5417 10.8333 17.3827 10.8333 13.5C10.8333 9.61737 13.9923 6.45837 17.8749 6.45837C21.7576 6.45837 24.9166 9.61737 24.9166 13.5ZM17.3333 12.2423C17.3333 11.9801 17.5001 11.7981 17.6496 11.7981H19.2291C19.6776 11.7981 20.0416 11.4341 20.0416 10.9856C20.0416 10.5371 19.6776 10.1731 19.2291 10.1731H18.6874V9.97921C18.6874 9.53071 18.3234 9.16671 17.8749 9.16671C17.4264 9.16671 17.0624 9.53071 17.0624 9.97921V10.2804C16.2803 10.5469 15.7083 11.3204 15.7083 12.2423C15.7083 13.3841 16.5793 14.3125 17.6496 14.3125H18.1013C18.2508 14.3125 18.4177 14.4956 18.4177 14.7578C18.4177 15.02 18.2508 15.202 18.1013 15.202H16.5208C16.0723 15.202 15.7083 15.566 15.7083 16.0145C15.7083 16.463 16.0723 16.827 16.5208 16.827H17.0624V17.0209C17.0624 17.4694 17.4264 17.8334 17.8749 17.8334C18.3234 17.8334 18.6874 17.4694 18.6874 17.0209V16.7197C19.4696 16.4532 20.0416 15.6797 20.0416 14.7578C20.0416 13.616 19.1706 12.6875 18.1003 12.6875H17.6485C17.5001 12.6875 17.3333 12.5045 17.3333 12.2423Z" fill="#6CE1F5"/>
<path d="M16.2499 4.44333V3.75C16.2499 3.15417 15.7624 2.66667 15.1666 2.66667H14.6249C14.0291 2.66667 13.5416 3.15417 13.5416 3.75C13.5416 4.34583 13.0541 4.83333 12.4582 4.83333H7.04158C6.44575 4.83333 5.95825 4.34583 5.95825 3.75C5.95825 3.15417 5.47075 2.66667 4.87492 2.66667H4.33325C3.73742 2.66667 3.24992 3.15417 3.24992 3.75V23.25C3.24992 23.8458 3.73742 24.3333 4.33325 24.3333H15.1666C15.7624 24.3333 16.2499 23.8458 16.2499 23.25V22.5675C16.7807 22.6542 17.3224 22.7083 17.8749 22.7083C18.0591 22.7083 18.2324 22.7083 18.4166 22.6975V23.25C18.4166 25.0375 16.9541 26.5 15.1666 26.5H4.33325C2.54575 26.5 1.08325 25.0375 1.08325 23.25V3.75C1.08325 1.9625 2.54575 0.5 4.33325 0.5H15.1666C16.9541 0.5 18.4166 1.9625 18.4166 3.75V4.3025C18.2324 4.29167 18.0591 4.29167 17.8749 4.29167C17.3224 4.29167 16.7807 4.34583 16.2499 4.44333Z" fill="#6CE1F5"/>
</g>
<defs>
<clipPath id="clip0_12_168">
<rect width="26" height="26" fill="white" transform="translate(0 0.5)"/>
</clipPath>
</defs>
</svg>
