<svg width="80" height="80" viewBox="0 0 80 80" fill="none" xmlns="http://www.w3.org/2000/svg">
<rect width="80" height="80" rx="11" fill="#3772FF"/>
<g clip-path="url(#clip0_170_405)">
<path d="M59.25 41C59.25 47.272 54.147 52.375 47.875 52.375C41.603 52.375 36.5 47.272 36.5 41C36.5 34.728 41.603 29.625 47.875 29.625C54.147 29.625 59.25 34.728 59.25 41ZM47 38.9682C47 38.5447 47.2695 38.2507 47.511 38.2507H50.0625C50.787 38.2507 51.375 37.6628 51.375 36.9382C51.375 36.2137 50.787 35.6257 50.0625 35.6257H49.1875V35.3125C49.1875 34.588 48.5995 34 47.875 34C47.1505 34 46.5625 34.588 46.5625 35.3125V35.799C45.299 36.2295 44.375 37.479 44.375 38.9682C44.375 40.8127 45.782 42.3125 47.511 42.3125H48.2408C48.4823 42.3125 48.7517 42.6083 48.7517 43.0318C48.7517 43.4553 48.4823 43.7493 48.2408 43.7493H45.6875C44.963 43.7493 44.375 44.3372 44.375 45.0618C44.375 45.7863 44.963 46.3743 45.6875 46.3743H46.5625V46.6875C46.5625 47.412 47.1505 48 47.875 48C48.5995 48 49.1875 47.412 49.1875 46.6875V46.201C50.451 45.7705 51.375 44.521 51.375 43.0318C51.375 41.1873 49.968 39.6875 48.239 39.6875H47.5093C47.2695 39.6875 47 39.3917 47 38.9682Z" fill="white"/>
<path d="M45.25 26.37V25.25C45.25 24.2875 44.4625 23.5 43.5 23.5H42.625C41.6625 23.5 40.875 24.2875 40.875 25.25C40.875 26.2125 40.0875 27 39.125 27H30.375C29.4125 27 28.625 26.2125 28.625 25.25C28.625 24.2875 27.8375 23.5 26.875 23.5H26C25.0375 23.5 24.25 24.2875 24.25 25.25V56.75C24.25 57.7125 25.0375 58.5 26 58.5H43.5C44.4625 58.5 45.25 57.7125 45.25 56.75V55.6475C46.1075 55.7875 46.9825 55.875 47.875 55.875C48.1725 55.875 48.4525 55.875 48.75 55.8575V56.75C48.75 59.6375 46.3875 62 43.5 62H26C23.1125 62 20.75 59.6375 20.75 56.75V25.25C20.75 22.3625 23.1125 20 26 20H43.5C46.3875 20 48.75 22.3625 48.75 25.25V26.1425C48.4525 26.125 48.1725 26.125 47.875 26.125C46.9825 26.125 46.1075 26.2125 45.25 26.37Z" fill="white"/>
</g>
<defs>
<clipPath id="clip0_170_405">
<rect width="42" height="42" fill="white" transform="translate(19 20)"/>
</clipPath>
</defs>
</svg>
