<svg width="45" height="44" viewBox="0 0 45 44" fill="none" xmlns="http://www.w3.org/2000/svg">
<rect x="0.5" width="44" height="44" rx="22" fill="url(#paint0_linear_90_1389)"/>
<path d="M31.5 32.75H13.5C13.09 32.75 12.75 32.41 12.75 32C12.75 31.59 13.09 31.25 13.5 31.25H31.5C31.91 31.25 32.25 31.59 32.25 32C32.25 32.41 31.91 32.75 31.5 32.75Z" fill="white"/>
<path d="M16.1 18.38H14.5C13.95 18.38 13.5 18.83 13.5 19.38V28C13.5 28.55 13.95 29 14.5 29H16.1C16.65 29 17.1 28.55 17.1 28V19.38C17.1 18.82 16.65 18.38 16.1 18.38Z" fill="white"/>
<path d="M23.3 15.1899H21.7C21.15 15.1899 20.7 15.6399 20.7 16.1899V27.9999C20.7 28.5499 21.15 28.9999 21.7 28.9999H23.3C23.85 28.9999 24.3 28.5499 24.3 27.9999V16.1899C24.3 15.6399 23.85 15.1899 23.3 15.1899Z" fill="white"/>
<path d="M30.5 12H28.9C28.35 12 27.9 12.45 27.9 13V28C27.9 28.55 28.35 29 28.9 29H30.5C31.05 29 31.5 28.55 31.5 28V13C31.5 12.45 31.05 12 30.5 12Z" fill="white"/>
<defs>
<linearGradient id="paint0_linear_90_1389" x1="22.5" y1="0" x2="22.5" y2="44" gradientUnits="userSpaceOnUse">
<stop stop-color="#5E8BFF"/>
<stop offset="1" stop-color="#9541FF"/>
</linearGradient>
</defs>
</svg>
