<svg width="115" height="30" viewBox="0 0 115 30" fill="none" xmlns="http://www.w3.org/2000/svg">
<path d="M43.3435 17.7723V18.7178C43.3453 19.1792 43.2536 19.6362 43.074 20.0611C42.9002 20.4789 42.6511 20.861 42.3391 21.1883C42.0247 21.519 41.6495 21.7859 41.2342 21.9741C40.8075 22.1689 40.3435 22.2678 39.8746 22.2639C39.4445 22.2649 39.0161 22.2088 38.6007 22.0969C38.1758 21.9841 37.781 21.7787 37.4444 21.4952C37.0861 21.1911 36.7971 20.8134 36.5968 20.3877C36.3569 19.8475 36.243 19.2596 36.2636 18.6687V10.2258C36.2553 9.74862 36.3385 9.27427 36.5086 8.8285C36.6744 8.40938 36.9246 8.02901 37.2435 7.71114C37.5656 7.39284 37.9479 7.14235 38.368 6.97441C38.8284 6.79093 39.3204 6.69999 39.8158 6.70674C40.2812 6.68901 40.7451 6.76973 41.1773 6.94363C41.6095 7.11752 42.0004 7.38071 42.3244 7.71605C42.6425 8.05532 42.8921 8.4531 43.0593 8.88745C43.2418 9.35695 43.3333 9.85704 43.3288 10.3609V11.2204H41.1411V10.4837C41.1492 10.0805 41.0205 9.68658 40.7761 9.36631C40.6624 9.21478 40.514 9.09287 40.3435 9.01082C40.173 8.92877 39.9853 8.88897 39.7962 8.89481C39.2524 8.89481 38.8914 9.05852 38.7134 9.38596C38.5217 9.78426 38.43 10.2235 38.4464 10.6654V18.4894C38.4324 18.8829 38.5328 19.2719 38.7354 19.6092C38.929 19.9088 39.2744 20.0586 39.7766 20.0586C39.9329 20.0565 40.088 20.0317 40.2372 19.985C40.4048 19.9332 40.5612 19.8498 40.6977 19.7394C40.8377 19.6066 40.9473 19.4449 41.0186 19.2654C41.1121 19.0263 41.1563 18.7707 41.1485 18.514V17.7625L43.3435 17.7723Z" fill="white"/>
<path d="M45.1221 22.136V6.82935H48.6449C51.2171 6.82935 52.5033 8.32735 52.5033 11.3234C52.5246 12.1102 52.3828 12.8929 52.0868 13.6219C51.7806 14.2812 51.2632 14.8189 50.6169 15.1494L52.9761 22.136H50.6537L48.6179 15.6013H47.3097V22.136H45.1221ZM47.3097 8.89462V13.6661H48.5542C48.8693 13.6793 49.1836 13.624 49.4754 13.5041C49.6949 13.4053 49.8812 13.2449 50.0119 13.0424C50.1383 12.8141 50.2214 12.5643 50.2568 12.3057C50.3418 11.6273 50.3418 10.9409 50.2568 10.2625C50.2273 9.99473 50.144 9.73577 50.0119 9.5012C49.7399 9.09846 49.2255 8.89954 48.4685 8.89954L47.3097 8.89462Z" fill="white"/>
<path d="M55.9085 22.136V15.6651L52.9075 6.82446H55.2225L56.9741 12.9147H57.0158L58.7747 6.82938H61.0897L58.0888 15.6701V22.1409L55.9085 22.136Z" fill="white"/>
<path d="M62.1921 22.1361V6.82943H65.4724C66.0114 6.82319 66.5478 6.90616 67.0599 7.075C67.5367 7.24666 67.9635 7.53442 68.3019 7.91241C68.672 8.30971 68.9373 8.79339 69.0736 9.31954C69.2368 10.0353 69.3092 10.7688 69.2892 11.5027C69.2966 12.0853 69.2573 12.6676 69.1716 13.2438C69.0925 13.7165 68.921 14.1688 68.6669 14.5748C68.378 15.0662 67.9637 15.4714 67.4665 15.7487C66.8545 16.0513 66.1763 16.1949 65.4945 16.1662H64.3773V22.1435L62.1921 22.1361ZM64.3773 8.8947V14.096H65.4283C65.7819 14.1151 66.1348 14.0485 66.4572 13.902C66.6896 13.7859 66.8779 13.5971 66.9937 13.3642C67.1179 13.1176 67.1873 12.847 67.1971 12.571C67.2191 12.2542 67.2314 11.903 67.2314 11.5174C67.2314 11.1319 67.2314 10.8176 67.2093 10.4959C67.2017 10.2026 67.1359 9.91371 67.0158 9.64616C66.9078 9.40961 66.7277 9.21355 66.5013 9.08626C66.1953 8.94294 65.8588 8.87716 65.5214 8.8947H64.3773Z" fill="white"/>
<path d="M72.3539 22.136V8.89462H69.8257V6.82935H77.0624V8.89462H74.5415V22.136H72.3539Z" fill="white"/>
<path d="M78.0422 22.136V6.82935H80.2299V19.943H84.5611V22.136H78.0422Z" fill="white"/>
<path d="M86.0361 22.136V6.82935H88.2238V22.136H86.0361Z" fill="white"/>
<path d="M90.2179 10.4418C90.2059 9.8806 90.3154 9.32346 90.5388 8.80874C90.7366 8.3571 91.029 7.9534 91.3962 7.62507C91.7393 7.32453 92.1357 7.09129 92.5648 6.93746C93.4163 6.62306 94.3517 6.62306 95.2032 6.93746C95.6373 7.0946 96.0404 7.32738 96.3938 7.62507C96.7489 7.95924 97.033 8.36185 97.2292 8.80874C97.4512 9.32388 97.5607 9.88072 97.5501 10.4418V11.2154H95.3624V10.4418C95.3795 10.2263 95.3491 10.0096 95.2734 9.80714C95.1976 9.60469 95.0783 9.42146 94.9239 9.27042C94.6316 9.02741 94.2637 8.8944 93.884 8.8944C93.5042 8.8944 93.1364 9.02741 92.844 9.27042C92.6881 9.42041 92.5676 9.60342 92.4913 9.80609C92.415 10.0088 92.3849 10.226 92.4031 10.4418V18.5237C92.3849 18.7395 92.415 18.9567 92.4913 19.1594C92.5676 19.3621 92.6881 19.5451 92.844 19.6951C93.1364 19.9381 93.5042 20.0711 93.884 20.0711C94.2637 20.0711 94.6316 19.9381 94.9239 19.6951C95.0783 19.544 95.1976 19.3608 95.2734 19.1583C95.3491 18.9559 95.3795 18.7392 95.3624 18.5237V15.6431H93.6255V13.708H97.5452V18.5237C97.5601 19.0923 97.4505 19.6572 97.2243 20.1788C97.0276 20.6126 96.7431 21.0006 96.3889 21.3183C96.0402 21.6281 95.6363 21.8689 95.1983 22.028C94.3468 22.3424 93.4114 22.3424 92.5599 22.028C92.127 21.872 91.7297 21.6307 91.3913 21.3183C91.0252 21.0065 90.7324 20.6174 90.5339 20.1788C90.3065 19.6576 90.1969 19.0924 90.213 18.5237L90.2179 10.4418Z" fill="white"/>
<path d="M99.4805 22.136V6.82935H101.668V13.3862H104.363V6.82935H106.548V22.136H104.363V15.3213H101.668V22.136H99.4805Z" fill="white"/>
<path d="M110.051 22.136V8.89462H107.521V6.82935H114.77V8.89462H112.239V22.136H110.051Z" fill="white"/>
<path d="M14.4489 28.968C22.4287 28.968 28.8977 22.4833 28.8977 14.484C28.8977 6.4847 22.4287 0 14.4489 0C6.46897 0 0 6.4847 0 14.484C0 22.4833 6.46897 28.968 14.4489 28.968Z" fill="#1D5FEF"/>
<path d="M14.3093 22.2736C18.601 22.2736 22.08 18.7861 22.08 14.484C22.08 10.1819 18.601 6.69434 14.3093 6.69434C10.0176 6.69434 6.53857 10.1819 6.53857 14.484C6.53857 18.7861 10.0176 22.2736 14.3093 22.2736Z" fill="white" fill-opacity="0.4"/>
<path d="M19.7355 16.8734V17.5242C18.7729 18.6199 17.7436 19.6549 16.6537 20.6234C15.8227 21.3622 14.9006 21.9911 13.9099 22.4947C13.1093 22.9099 12.2242 23.1351 11.323 23.1528C10.6781 23.1704 10.0395 23.0215 9.46846 22.7206C8.95476 22.4376 8.54517 21.9969 8.29991 21.4632C8.02179 20.8467 7.88693 20.175 7.9055 19.4986C7.91145 18.8589 8.00711 18.2232 8.18967 17.6102C8.39347 16.9121 8.66933 16.2372 9.0128 15.5965C9.40481 14.867 9.84769 14.1662 10.3381 13.4993C10.8591 12.7773 11.4732 12.0193 12.1804 11.2252C12.8524 10.4654 13.5768 9.75398 14.3484 9.09611C14.9561 8.57516 15.605 8.10457 16.2887 7.68897C16.799 7.3814 17.3391 7.12633 17.9006 6.92768C18.2938 6.78296 18.707 6.70012 19.1255 6.6821C19.4273 6.67451 19.7241 6.76026 19.9756 6.92768C20.2201 7.10369 20.4076 7.34797 20.5146 7.63003C20.6476 7.96751 20.7126 8.32809 20.7056 8.6909C20.7056 9.44563 20.4492 10.2855 19.9364 11.2105C19.3959 12.1713 18.7518 13.0698 18.0158 13.8897C17.3498 14.6569 16.616 15.3621 15.8232 15.9967C15.1275 16.5419 14.6261 16.8145 14.319 16.8145C14.1033 16.8109 13.8975 16.7227 13.7458 16.5689C13.6644 16.501 13.5986 16.4162 13.553 16.3204C13.5073 16.2246 13.4828 16.1201 13.4812 16.0139C13.4812 15.6308 13.6821 15.1716 14.0839 14.6314C14.4795 14.0974 14.9214 13.5994 15.4043 13.1432C15.8796 12.6913 16.1637 12.4678 16.2593 12.4678C16.3058 12.4678 16.3279 12.4875 16.3279 12.5268C16.313 12.6366 16.2773 12.7424 16.2225 12.8387C16.1752 12.9234 16.1397 13.0143 16.1172 13.1088C16.1172 13.1604 16.1392 13.1874 16.1784 13.1874C16.2911 13.1874 16.6169 12.8853 17.1583 12.2763C17.7106 11.6519 18.2066 10.9797 18.6405 10.2675C19.0912 9.53896 19.3166 8.93976 19.3166 8.46989C19.3271 8.31174 19.283 8.15479 19.1917 8.0254C19.1455 7.97222 19.0875 7.93055 19.0225 7.9037C18.9574 7.87684 18.887 7.86555 18.8169 7.87069C18.3481 7.87069 17.6401 8.24888 16.6929 9.00524C15.6314 9.87596 14.6545 10.8454 13.7752 11.9006C12.8171 13.0152 11.9811 14.2295 11.2813 15.5228C10.628 16.7703 10.3014 17.8689 10.3014 18.8184C10.2876 19.2872 10.371 19.7539 10.5464 20.1887C10.6956 20.5388 10.9466 20.8357 11.2666 21.0409C11.6112 21.2491 12.0085 21.3531 12.4107 21.3404C13.3759 21.3404 14.4717 20.9631 15.6983 20.2084C17.1661 19.2542 18.5206 18.1353 19.7355 16.8734Z" fill="white"/>
</svg>
