<?xml version="1.0" encoding="utf-8"?>
<!-- Generator: Adobe Illustrator 27.5.0, SVG Export Plug-In . SVG Version: 6.00 Build 0)  -->
<svg version="1.1" xmlns="http://www.w3.org/2000/svg" xmlns:xlink="http://www.w3.org/1999/xlink" x="0px" y="0px"
	 viewBox="0 0 500 500" style="enable-background:new 0 0 500 500;" xml:space="preserve">
<g id="Floor">
	<path id="Floor_15_" style="fill:#F5F5F5;" d="M85.455,418.008c88.758,45.379,232.662,45.38,321.418,0.001
		c88.758-45.38,88.758-118.954,0-164.333c-88.757-45.38-232.662-45.38-321.42-0.001C-3.303,299.054-3.303,372.629,85.455,418.008z"
		/>
</g>
<g id="Shadows">
	<path id="Shadow_37_" style="fill:#EBEBEB;" d="M375.731,345.512c4.864,2.808,14.424,1.842,21.352-2.158l39.936-23.194
		c6.928-4,8.593-9.524,3.719-12.338c-4.875-2.814-14.441-1.85-21.368,2.153l-39.905,23.204
		C372.539,337.182,370.867,342.703,375.731,345.512z"/>
	<polygon id="Shadow_36_" style="fill:#EBEBEB;" points="135.311,366.901 94.691,343.448 135.311,319.996 	"/>
	<polygon id="Shadow_35_" style="fill:#EBEBEB;" points="250.119,380.932 184.649,343.108 250.135,305.358 	"/>
</g>
<g id="Plants">
	<g id="Plants_14_">
		<g id="XMLID_3252_">
			<g id="XMLID_3255_">
				<path id="XMLID_3276_" style="fill:#27DEBF;" d="M80.361,312.066c0.114-9.501-6.521-29.264-16.232-41.719
					c-9.711-12.455-25.104-21.662-36.16-18.027c-10.298,3.385-9.349,16.853,2.987,25.918c12.336,9.065,30.905,20.49,36.191,35.967
					l11.254,19.047L80.361,312.066z"/>
				<path id="XMLID_3256_" style="opacity:0.1;" d="M80.361,312.066c0.114-9.501-6.521-29.264-16.232-41.719
					c-9.711-12.455-25.104-21.662-36.16-18.027c-10.298,3.385-9.349,16.853,2.987,25.918c12.336,9.065,30.905,20.49,36.191,35.967
					l11.254,19.047L80.361,312.066z"/>
			</g>
			<g id="XMLID_3253_">
				<path id="XMLID_3254_" style="fill:#FFFFFF;" d="M80.906,325.076c-0.302-0.028-0.561-0.254-0.619-0.566
					c-5.972-32.509-31.892-59.187-47.526-65.201c-0.357-0.138-0.536-0.54-0.399-0.897c0.136-0.356,0.53-0.543,0.897-0.399
					c15.931,6.127,42.331,33.243,48.393,66.246c0.07,0.377-0.18,0.738-0.557,0.807C81.032,325.079,80.968,325.082,80.906,325.076z"
					/>
			</g>
		</g>
		<g id="XMLID_3246_">
			<g id="XMLID_3250_">
				<path id="XMLID_3251_" style="fill:#27DEBF;" d="M75.82,345.778c-1.462-5.359-7.88-14.251-18.343-21.658
					c-11.575-8.194-26.301-12.075-29.631-18.384c-4-7.579,2.433-14.618,14.404-12.987c11.971,1.631,32.855,18.243,35.928,42.912
					L75.82,345.778z"/>
			</g>
			<g id="XMLID_3247_">
				<path id="XMLID_3249_" style="fill:#FFFFFF;" d="M78.207,340.202c-0.263-0.024-0.5-0.199-0.593-0.466
					c-9.612-27.905-30.694-37.912-40.497-39.305c-0.379-0.053-0.643-0.406-0.59-0.785c0.054-0.381,0.39-0.645,0.785-0.59
					c10.841,1.54,31.804,11.745,41.615,40.228c0.125,0.362-0.069,0.758-0.431,0.883C78.401,340.2,78.302,340.21,78.207,340.202z"/>
			</g>
		</g>
	</g>
	<g id="Plants_15_">
		<g id="XMLID_3135_">
			<path id="XMLID_3120_" style="fill:#27DEBF;" d="M434.925,285.023c0,0,1.333-20.032,13.138-34.901
				c11.805-14.87,11.079-20.993,2.94-23.995c-8.139-3.002-27.046,14.919-22.839,38.917S434.925,285.023,434.925,285.023z"/>
			<path id="XMLID_3134_" style="opacity:0.1;" d="M434.925,285.023c0,0,1.333-20.032,13.138-34.901
				c11.805-14.87,11.079-20.993,2.94-23.995c-8.139-3.002-27.046,14.919-22.839,38.917S434.925,285.023,434.925,285.023z"/>
			<g id="XMLID_3136_">
				<path id="XMLID_3137_" style="fill:#FFFFFF;" d="M431.319,273.581c-0.244,0-0.449-0.19-0.464-0.436
					c-1.379-22.059,14.2-40.158,20.031-44.254c0.208-0.147,0.5-0.097,0.648,0.113c0.148,0.21,0.097,0.5-0.113,0.648
					c-5.717,4.016-20.991,21.772-19.637,43.435c0.016,0.256-0.179,0.477-0.435,0.493
					C431.338,273.581,431.328,273.581,431.319,273.581z"/>
			</g>
		</g>
		<g id="XMLID_3036_">
			<g id="XMLID_3073_">
				<path id="XMLID_3119_" style="fill:#27DEBF;" d="M431.716,301.565c0,0,7.114,2.465,16.255,3.913
					c9.141,1.447,13.175-2.924,13.175-2.924s-3.6-8.574-8.791-10.979c0,0,8.801,1.794,15.865,6.507c0,0,5.582,0.085,7.804-8.435
					c0,0-3.307-5.127-14.403-7.897c0,0,6.751-1.699,16.479,0.782c0.729,0.29,3.839-10.725,4.78-15.807
					c0.94-5.082-1.102-5.028-5.063-6.086c-3.962-1.058-17.083-4.005-19.563-1.826c-2.48,2.179-3.74,9.629-3.74,9.629
					s-1.634-4.396-0.372-9.443c0,0-3.565-1.393-9.098,0.216c-4.526,1.317-4.746,4.396-4.541,7.877
					c0.15,2.544,0.763,5.254,1.959,8.835c0,0-3.528-4.521-3.637-14.325c0,0-9.261,4.601-10.842,13.793
					C427.127,280.365,425.915,294.962,431.716,301.565z"/>
				<g id="XMLID_3093_">
					<path id="XMLID_3118_" style="fill:#FFFFFF;" d="M433.462,299.777c0.191,0,0.375-0.107,0.463-0.291
						c7.377-15.325,34.802-33.133,44.626-35.044c0.278-0.054,0.461-0.324,0.407-0.603c-0.054-0.279-0.327-0.458-0.603-0.406
						c-9.986,1.943-37.862,20.038-45.355,35.608c-0.123,0.256-0.016,0.563,0.24,0.686
						C433.312,299.761,433.387,299.777,433.462,299.777z"/>
				</g>
			</g>
		</g>
	</g>
</g>
<g id="Computer_Screen">
	<g id="XMLID_1118_">
		<g id="XMLID_1204_">
			<g id="XMLID_1203_">
				<path style="fill:#FAFAFA;" d="M76.781,352.864c-1.134,0-1.812-0.937-1.812-2.506V182.149L280.964,63.218l0.001,167.532
					c0,2.57-1.812,5.708-4.038,6.994L78.422,352.351C77.841,352.686,77.273,352.864,76.781,352.864L76.781,352.864z"/>
				<path style="fill:#E0E0E0;" d="M280.379,64.231l0.001,166.519c0,2.344-1.715,5.315-3.745,6.487L78.13,351.844
					c-0.493,0.284-0.959,0.435-1.349,0.435c-1.107,0-1.227-1.344-1.227-1.921V182.486L280.379,64.231 M281.548,62.204
					L74.385,181.811v168.546c0,1.959,0.976,3.091,2.396,3.091c0.582,0,1.239-0.19,1.934-0.591L277.219,238.25
					c2.391-1.381,4.33-4.739,4.33-7.5L281.548,62.204L281.548,62.204z"/>
			</g>
			<polygon id="XMLID_2173_" style="fill:#27DEBF;" points="74.385,181.811 74.385,209.955 281.547,90.35 281.548,62.204 			"/>
			<path id="XMLID_1167_" style="fill:#FAFAFA;" d="M90.632,183.313l0.001,4.036c0,0.825,0.585,1.162,1.299,0.75l63.693-36.773
				l-0.001-7.036l-63.693,36.773C91.216,181.475,90.632,182.488,90.632,183.313z"/>
			<path id="XMLID_1189_" style="fill:#455A64;" d="M162.45,140.349c0.717-0.414,1.299-0.078,1.299,0.75v4.036
				c0,0.828-0.582,1.836-1.299,2.25l-6.825,3.941l-0.001-7.036L162.45,140.349z"/>
			<path id="XMLID_2992_" style="fill:#455A64;" d="M74.385,172.74c0-2.762,1.939-6.119,4.33-7.5L277.218,50.633
				c2.392-1.381,4.33-0.261,4.33,2.5v9.071L74.385,181.811V172.74z"/>
			<g id="XMLID_1202_">
				<path id="XMLID_1201_" style="fill:#27DEBF;" d="M258.525,66.136c-1.122,0.648-2.031,2.223-2.031,3.518s0.909,1.821,2.031,1.173
					c1.122-0.648,2.031-2.223,2.031-3.518C260.556,66.013,259.646,65.488,258.525,66.136z"/>
				<path id="XMLID_1198_" style="fill:#27DEBF;" d="M264.959,62.416c-1.122,0.648-2.031,2.223-2.031,3.518s0.909,1.821,2.031,1.173
					c1.122-0.648,2.031-2.223,2.031-3.518C266.99,62.293,266.081,61.768,264.959,62.416z"/>
				<path id="XMLID_1196_" style="fill:#27DEBF;" d="M271.393,58.696c-1.122,0.648-2.031,2.223-2.031,3.518
					c0,1.296,0.909,1.821,2.031,1.173c1.122-0.648,2.031-2.223,2.031-3.518C273.424,58.573,272.515,58.048,271.393,58.696z"/>
			</g>
			<g id="XMLID_1168_" style="opacity:0.1;">
				<path id="XMLID_1187_" d="M216.555,108.675c-2.452,1.416-4.44,4.859-4.44,7.691c0,2.832,1.988,3.98,4.44,2.564
					c2.452-1.416,4.44-4.859,4.44-7.691S219.007,107.259,216.555,108.675z"/>
				<path id="XMLID_1188_" d="M196.245,120.401c-2.452,1.416-4.44,4.859-4.44,7.691c0,2.832,1.988,3.98,4.44,2.564
					c2.452-1.416,4.44-4.859,4.44-7.691C200.685,120.133,198.697,118.985,196.245,120.401z"/>
				<path id="XMLID_1186_" d="M236.865,96.948c-2.452,1.416-4.44,4.859-4.44,7.691c0,2.832,1.988,3.98,4.44,2.564
					c2.452-1.416,4.44-4.859,4.44-7.691C241.305,96.681,239.317,95.533,236.865,96.948z"/>
				<path id="XMLID_1190_" d="M257.176,85.2c-2.452,1.416-4.44,4.859-4.44,7.691c0,2.832,1.988,3.98,4.44,2.564
					c2.452-1.416,4.44-4.859,4.44-7.691C261.615,84.932,259.628,83.784,257.176,85.2z"/>
			</g>
		</g>
		<path id="XMLID_2170_" style="fill:#E0E0E0;" d="M94.962,212.146l48.208-27.833c2.391-1.381,4.33-0.261,4.33,2.5v46.285
			c0,2.761-1.939,6.119-4.33,7.5l-48.207,27.834c-2.391,1.381-4.33,0.261-4.33-2.5l-0.001-46.286
			C90.632,216.885,92.571,213.527,94.962,212.146z"/>
		<path id="XMLID_3029_" style="fill:#E0E0E0;" d="M164.021,172.277l101.011-58.322c2.391-1.381,4.33-0.261,4.33,2.5v46.285
			c0,2.761-1.939,6.119-4.33,7.5l-101.01,58.322c-2.391,1.381-4.33,0.262-4.33-2.5l-0.001-46.286
			C159.691,177.016,161.629,173.658,164.021,172.277z"/>
		<g id="XMLID_3030_">
			<path id="XMLID_3117_" style="fill:#E0E0E0;" d="M94.963,282.503l76.642-44.249c2.391-1.381,4.33-0.4,4.331,2.19
				c0,2.59-1.938,5.809-4.33,7.19l-76.643,44.25c-2.391,1.381-4.33,0.4-4.33-2.19C90.633,287.103,92.571,283.884,94.963,282.503z"/>
			<path id="XMLID_3095_" style="fill:#E0E0E0;" d="M94.963,298.917l76.642-44.249c2.391-1.381,4.33-0.4,4.331,2.19
				c0,2.59-1.938,5.809-4.33,7.19l-76.643,44.25c-2.391,1.381-4.33,0.4-4.33-2.19C90.633,303.517,92.571,300.298,94.963,298.917z"/>
			<path id="XMLID_3094_" style="fill:#E0E0E0;" d="M94.963,315.332l76.642-44.249c2.391-1.381,4.33-0.4,4.331,2.19
				c0,2.59-1.938,5.809-4.33,7.19l-76.643,44.25c-2.391,1.381-4.33,0.4-4.33-2.19C90.633,319.931,92.571,316.712,94.963,315.332z"/>
		</g>
	</g>
</g>
<g id="Envelope">
	<g id="XMLID_3248_">
		<g id="Letter_2_">
			<g id="XMLID_3260_">
				<g id="XMLID_3261_">
					<path id="XMLID_3262_" style="fill:#27DEBF;" d="M131.253,259.673c0-1.657,1.163-3.672,2.598-4.5l132.911-76.736
						c1.435-0.828,3.761-0.829,5.196,0l2.928,1.691c1.435,0.828,2.598,2.843,2.598,4.5v101.879c0,1.65-1.169,3.675-2.598,4.5
						l-132.911,76.736c-1.429,0.825-3.767,0.825-5.196,0l-2.928-1.69c-1.429-0.825-2.598-2.85-2.598-4.5L131.253,259.673z"/>
				</g>
			</g>
			<path id="XMLID_3259_" style="opacity:0.4;fill:#FFFFFF;" d="M132.011,257.114l7.374,4.253l137.336-79.299
				c-0.467-0.811-1.118-1.524-1.831-1.942l-2.938-1.684c-1.426-0.836-3.761-0.836-5.187,0l-132.911,76.731
				C133.129,255.589,132.478,256.302,132.011,257.114z"/>
			<path id="XMLID_3258_" style="opacity:0.1;" d="M131.249,259.67v101.877c0,1.659,1.168,3.675,2.606,4.498l2.925,1.696
				c0.221,0.123,0.455,0.234,0.713,0.32c0.332,0.111,0.688,0.197,1.069,0.246c0.676,0.086,1.389,0.062,2.053-0.074
				c0.172-0.037,0.344-0.086,0.504-0.135c0.111-0.037,0.209-0.074,0.307-0.123c-0.479,0.172-0.897,0.147-1.241-0.025
				c-0.492-0.258-0.799-0.848-0.799-1.708V264.365c0-1.069,0.541-1.881,1.352-2.212l-1.352-0.786l-7.374-4.253
				C131.544,257.925,131.249,258.846,131.249,259.67z"/>
			<path id="XMLID_3257_" style="opacity:0.2;" d="M139.385,261.366l61.552,22.996c4.388,1.635,9.316,0.012,11.873-3.908
				l9.884-15.143l54.519-83.526l-52.548,84.095l52.818,20.671c-0.012,0.836-0.32,1.77-0.811,2.593l-52.155-23.028l-11.486,18.382
				c-2.642,4.216-7.977,5.863-12.524,3.847l-8.178-3.61l-52.144,83.216c-0.492-0.258-0.799-0.848-0.799-1.708v-1.696l52.688-79.924
				L139.385,261.366z"/>
		</g>
	</g>
</g>
<g id="Mobile_Screen">
	<g id="XMLID_2171_">
		<path id="XMLID_2869_" style="fill:#FAFAFA;stroke:#E0E0E0;stroke-width:1.1698;stroke-miterlimit:10;" d="M249.052,144.405
			v233.903c0,2.761,1.939,3.881,4.33,2.5l105.078-60.666c2.391-1.381,4.33-4.739,4.33-7.5V78.739c0-2.761-1.939-3.881-4.33-2.5
			l-105.078,60.666C250.991,138.286,249.052,141.644,249.052,144.405z"/>
		<path id="XMLID_2970_" style="fill:#455A64;" d="M255.142,148.764c0-0.648,0.504-1.464,1.126-1.823l11.97-6.908
			c0.622-0.359,1.126-0.125,1.126,0.523c0,0.647-0.504,1.463-1.126,1.822l-11.969,6.909
			C255.646,149.645,255.142,149.411,255.142,148.764z"/>
		<path id="XMLID_2972_" style="fill:#455A64;" d="M255.142,153.422c0-0.648,0.504-1.464,1.126-1.823l11.97-6.908
			c0.622-0.359,1.126-0.125,1.126,0.523c0,0.648-0.504,1.463-1.126,1.822l-11.969,6.909
			C255.646,154.303,255.142,154.069,255.142,153.422z"/>
		<path id="XMLID_2973_" style="fill:#455A64;" d="M255.142,158.08c0-0.648,0.504-1.464,1.126-1.823l11.97-6.908
			c0.622-0.359,1.126-0.125,1.126,0.523c0,0.648-0.504,1.463-1.126,1.822l-11.969,6.909
			C255.646,158.961,255.142,158.727,255.142,158.08z"/>
		<path id="XMLID_2989_" style="fill:#37474F;" d="M354.665,98.101v-1.868c0-0.112-0.082-0.165-0.184-0.119l-1.44,0.649
			c-0.102,0.046-0.206-0.005-0.24-0.111c-0.084-0.265-0.192-0.503-0.321-0.714c-0.058-0.095-0.071-0.249-0.022-0.349l0.96-1.935
			c0.05-0.1,0.011-0.226-0.085-0.282l-1.042-0.601c-0.096-0.056-0.225-0.026-0.287,0.067l-1.196,1.799
			c-0.062,0.093-0.202,0.158-0.313,0.155c-0.247-0.006-0.508,0.019-0.779,0.079c-0.109,0.024-0.205-0.041-0.216-0.152l-0.158-1.571
			c-0.011-0.111-0.098-0.156-0.195-0.1l-1.618,0.934c-0.096,0.056-0.183,0.191-0.193,0.302l-0.162,1.8
			c-0.01,0.111-0.086,0.261-0.168,0.336c-0.315,0.29-0.616,0.609-0.899,0.951c-0.071,0.086-0.213,0.127-0.318,0.09l-1.039-0.363
			c-0.105-0.037-0.236,0.012-0.291,0.108l-1.189,2.06c-0.056,0.097-0.032,0.234,0.052,0.307l0.833,0.718
			c0.085,0.073,0.12,0.216,0.081,0.32c-0.154,0.416-0.281,0.836-0.374,1.254c-0.024,0.109-0.116,0.249-0.207,0.314l-1.478,1.04
			c-0.091,0.064-0.165,0.207-0.165,0.318v1.868c0,0.112,0.082,0.165,0.184,0.119l1.44-0.649c0.102-0.046,0.206,0.005,0.24,0.111
			c0.084,0.265,0.192,0.503,0.321,0.714c0.058,0.095,0.071,0.249,0.022,0.349l-0.96,1.935c-0.05,0.1-0.011,0.226,0.085,0.282
			l1.042,0.601c0.096,0.056,0.225,0.026,0.287-0.067l1.196-1.799c0.062-0.093,0.202-0.158,0.313-0.156
			c0.247,0.006,0.508-0.019,0.779-0.079c0.109-0.024,0.205,0.041,0.216,0.152l0.158,1.572c0.011,0.111,0.099,0.156,0.195,0.1
			l1.618-0.934c0.096-0.056,0.183-0.191,0.193-0.302l0.162-1.8c0.01-0.111,0.086-0.261,0.168-0.336
			c0.315-0.29,0.615-0.609,0.898-0.951c0.071-0.086,0.213-0.127,0.318-0.09l1.038,0.362c0.105,0.037,0.236-0.012,0.292-0.108
			l1.189-2.06c0.056-0.096,0.032-0.234-0.052-0.307l-0.833-0.718c-0.085-0.073-0.12-0.216-0.081-0.32
			c0.154-0.416,0.281-0.836,0.374-1.254c0.024-0.109,0.116-0.249,0.207-0.314l1.478-1.04
			C354.591,98.355,354.665,98.213,354.665,98.101z M348.34,103.975c-1.509,0.871-2.733,0.165-2.733-1.578
			c0-1.743,1.224-3.862,2.733-4.733c1.509-0.871,2.733-0.165,2.733,1.578C351.072,100.984,349.849,103.103,348.34,103.975z"/>
		<g id="XMLID_3074_">
			<path id="XMLID_3091_" style="fill:#455A64;" d="M305.921,144.201c12.278-7.089,22.231-1.342,22.231,12.835
				s-9.953,31.416-22.231,38.505c-12.278,7.089-22.231,1.342-22.231-12.835C283.691,168.528,293.644,151.289,305.921,144.201z"/>
			<path id="XMLID_3076_" style="fill:#27DEBF;" d="M305.765,155.358c3.983-2.3,7.212-0.436,7.212,4.163
				c0,4.6-3.229,10.193-7.212,12.492c-3.983,2.299-7.212,0.436-7.212-4.164C298.553,163.25,301.782,157.657,305.765,155.358z"/>
			<path id="XMLID_3075_" style="fill:#27DEBF;" d="M319.979,179.883c0-7.557-5.306-10.62-11.849-6.841l-4.091,2.362
				c-6.543,3.778-11.849,12.967-11.849,20.523v2.061c1.181,0.392,2.464,0.586,3.819,0.589c2.985,0.006,6.345-0.977,9.912-3.036
				c5.334-3.08,10.227-8.078,14.058-13.905V179.883z"/>
		</g>
		<path id="XMLID_3140_" style="fill:#27DEBF;" d="M285.856,216.634l40.131-23.17c1.196-0.69,2.165-0.2,2.165,1.095
			c0,1.295-0.969,2.905-2.165,3.595l-40.131,23.17c-1.196,0.69-2.165,0.2-2.165-1.095S284.66,217.325,285.856,216.634z"/>
		<path id="XMLID_3142_" style="fill:#455A64;" d="M281.549,233.207l48.745-28.173c1.196-0.69,2.165-0.2,2.165,1.095
			s-0.969,2.905-2.165,3.595l-48.745,28.173c-1.196,0.69-2.165,0.2-2.165-1.095C279.384,235.507,280.353,233.897,281.549,233.207z"
			/>
		<path id="XMLID_3148_" style="fill:#37474F;" d="M331.593,227.745l13.649-7.881c0.717-0.414,1.299-0.225,1.299,0.423
			c0,0.648-0.582,1.509-1.299,1.923l-13.649,7.881c-0.717,0.414-1.299,0.225-1.299-0.423S330.876,228.159,331.593,227.745z"/>
		<g id="XMLID_3157_">
			<path id="XMLID_3141_" style="fill:#27DEBF;" d="M263.404,262.43l20.042-11.571c1.196-0.69,2.165-0.131,2.165,1.25v13.762
				c0,1.381-0.969,3.06-2.165,3.75l-20.042,11.571c-1.196,0.69-2.165,0.131-2.165-1.25V266.18
				C261.239,264.799,262.208,263.12,263.404,262.43z"/>
			<path id="XMLID_3143_" style="fill:#FAFAFA;" d="M266.601,264.353l13.649-7.881c0.717-0.414,1.299-0.225,1.299,0.423
				c0,0.648-0.582,1.509-1.299,1.923l-13.649,7.881c-0.717,0.414-1.299,0.225-1.299-0.423
				C265.302,265.628,265.883,264.767,266.601,264.353z"/>
			<path id="XMLID_3146_" style="fill:#FAFAFA;" d="M265.302,271.294v4.035c0,0.828,0.582,1.164,1.299,0.75l13.649-7.881
				c0.717-0.414,1.299-1.422,1.299-2.25l0-4.036c0-0.828-0.581-1.164-1.299-0.75l-13.65,7.881
				C265.883,269.458,265.302,270.465,265.302,271.294z"/>
		</g>
		<g id="XMLID_3149_">
			<path id="XMLID_3155_" style="fill:#27DEBF;" d="M295.9,243.668l20.042-11.571c1.196-0.69,2.165-0.131,2.165,1.25l0,13.762
				c0,1.381-0.969,3.06-2.165,3.75L295.9,262.43c-1.196,0.69-2.165,0.131-2.165-1.25l0-13.762
				C293.735,246.038,294.704,244.359,295.9,243.668z"/>
			<path id="XMLID_3154_" style="fill:#FAFAFA;" d="M299.097,245.592l13.649-7.881c0.717-0.414,1.299-0.225,1.299,0.423
				c0,0.648-0.582,1.509-1.299,1.923l-13.649,7.881c-0.717,0.414-1.299,0.225-1.299-0.423S298.379,246.006,299.097,245.592z"/>
			<path id="XMLID_3153_" style="fill:#FAFAFA;" d="M297.798,252.533v4.035c0,0.828,0.582,1.164,1.299,0.75l13.649-7.881
				c0.717-0.414,1.299-1.422,1.299-2.25l0.001-4.036c0-0.828-0.582-1.164-1.299-0.75l-13.65,7.881
				C298.379,250.697,297.798,251.704,297.798,252.533z"/>
		</g>
		<g id="XMLID_3159_">
			<path id="XMLID_3176_" style="fill:#27DEBF;" d="M328.396,224.906l20.042-11.571c1.196-0.69,2.165-0.131,2.165,1.25v13.762
				c0,1.381-0.969,3.06-2.165,3.75l-20.042,11.571c-1.196,0.69-2.165,0.131-2.165-1.25v-13.762
				C326.231,227.275,327.201,225.596,328.396,224.906z"/>
			<path id="XMLID_3173_" style="fill:#FAFAFA;" d="M331.593,226.829l13.649-7.881c0.717-0.414,1.299-0.225,1.299,0.423
				c0,0.648-0.581,1.509-1.299,1.923l-13.649,7.881c-0.717,0.414-1.299,0.225-1.299-0.423S330.876,227.244,331.593,226.829z"/>
			<path id="XMLID_3163_" style="fill:#FAFAFA;" d="M330.294,233.77v4.035c0,0.828,0.582,1.164,1.299,0.75l13.649-7.881
				c0.717-0.414,1.299-1.422,1.299-2.25l0-4.036c0-0.828-0.581-1.164-1.299-0.75l-13.65,7.881
				C330.876,231.934,330.294,232.942,330.294,233.77z"/>
		</g>
		<path id="XMLID_3144_" style="fill:#E0E0E0;" d="M265.569,294.013l80.704-46.595c2.392-1.381,4.33-0.4,4.33,2.19
			c0,2.59-1.939,5.81-4.33,7.19l-80.704,46.595c-2.391,1.381-4.33,0.4-4.33-2.19C261.239,298.612,263.178,295.393,265.569,294.013z"
			/>
		<path id="XMLID_3147_" style="fill:#E0E0E0;" d="M265.569,312.774l80.704-46.595c2.392-1.381,4.33-0.4,4.33,2.19
			s-1.939,5.81-4.33,7.19l-80.704,46.595c-2.391,1.381-4.33,0.4-4.33-2.19C261.239,317.374,263.178,314.155,265.569,312.774z"/>
		<path id="XMLID_3178_" style="fill:#27DEBF;" d="M291.839,321.06l28.166-16.262c1.196-0.69,2.165-0.131,2.165,1.25l0,9.071
			c0,1.381-0.969,3.06-2.165,3.75l-28.166,16.262c-1.196,0.69-2.165,0.131-2.165-1.25l0-9.071
			C289.673,323.429,290.643,321.75,291.839,321.06z"/>
		<g id="XMLID_3180_">
			<path id="XMLID_3027_" style="fill:#FAFAFA;" d="M267.332,295.391c-1.122,0.648-2.031,2.223-2.031,3.518
				c0,1.295,0.909,1.82,2.031,1.173c1.122-0.647,2.031-2.223,2.031-3.518C269.363,295.268,268.454,294.743,267.332,295.391z"/>
			<path id="XMLID_3023_" style="fill:#FAFAFA;" d="M273.766,291.67c-1.122,0.648-2.031,2.223-2.031,3.518
				c0,1.295,0.909,1.821,2.031,1.173c1.122-0.648,2.031-2.223,2.031-3.518C275.797,291.548,274.888,291.023,273.766,291.67z"/>
			<path id="XMLID_3021_" style="fill:#FAFAFA;" d="M280.201,287.95c-1.122,0.648-2.031,2.223-2.031,3.518
				c0,1.295,0.909,1.821,2.031,1.173c1.122-0.648,2.031-2.223,2.031-3.518S281.322,287.303,280.201,287.95z"/>
			<path id="XMLID_2993_" style="fill:#FAFAFA;" d="M286.635,284.23c-1.122,0.648-2.031,2.223-2.031,3.518
				c0,1.295,0.909,1.82,2.031,1.173c1.122-0.648,2.031-2.223,2.031-3.518C288.666,284.108,287.757,283.582,286.635,284.23z"/>
			<path id="XMLID_2176_" style="fill:#FAFAFA;" d="M293.069,280.51c-1.122,0.648-2.031,2.223-2.031,3.518
				c0,1.295,0.909,1.821,2.031,1.173c1.122-0.648,2.031-2.223,2.031-3.518C295.1,280.388,294.191,279.862,293.069,280.51z"/>
			<path id="XMLID_2175_" style="fill:#FAFAFA;" d="M299.504,276.79c-1.122,0.648-2.031,2.223-2.031,3.518
				c0,1.295,0.909,1.821,2.031,1.173c1.122-0.648,2.031-2.223,2.031-3.518S300.625,276.142,299.504,276.79z"/>
			<path id="XMLID_2174_" style="fill:#FAFAFA;" d="M305.938,273.07c-1.122,0.648-2.031,2.223-2.031,3.518
				c0,1.295,0.909,1.82,2.031,1.173c1.122-0.648,2.031-2.223,2.031-3.518C307.969,272.947,307.06,272.422,305.938,273.07z"/>
		</g>
		<g id="XMLID_2172_">
			<path id="XMLID_3020_" style="fill:#FAFAFA;" d="M267.332,314.173c-1.122,0.648-2.031,2.223-2.031,3.518
				c0,1.295,0.909,1.821,2.031,1.173c1.122-0.648,2.031-2.223,2.031-3.518S268.454,313.525,267.332,314.173z"/>
			<path id="XMLID_3017_" style="fill:#FAFAFA;" d="M273.766,310.453c-1.122,0.648-2.031,2.223-2.031,3.518
				c0,1.295,0.909,1.82,2.031,1.173c1.122-0.648,2.031-2.223,2.031-3.518C275.797,310.33,274.888,309.805,273.766,310.453z"/>
			<path id="XMLID_3016_" style="fill:#FAFAFA;" d="M280.201,306.733c-1.122,0.648-2.031,2.223-2.031,3.518
				c0,1.295,0.909,1.821,2.031,1.173c1.122-0.648,2.031-2.223,2.031-3.518C282.232,306.61,281.322,306.085,280.201,306.733z"/>
			<path id="XMLID_3015_" style="fill:#FAFAFA;" d="M286.635,303.012c-1.122,0.648-2.031,2.223-2.031,3.518
				c0,1.295,0.909,1.821,2.031,1.173c1.122-0.648,2.031-2.223,2.031-3.518S287.757,302.365,286.635,303.012z"/>
			<path id="XMLID_3008_" style="fill:#FAFAFA;" d="M293.069,299.292c-1.122,0.648-2.031,2.223-2.031,3.518
				c0,1.295,0.909,1.82,2.031,1.173c1.122-0.648,2.031-2.223,2.031-3.518C295.1,299.17,294.191,298.645,293.069,299.292z"/>
			<path id="XMLID_2995_" style="fill:#FAFAFA;" d="M299.504,295.572c-1.122,0.648-2.031,2.223-2.031,3.518
				c0,1.295,0.909,1.821,2.031,1.173c1.122-0.648,2.031-2.223,2.031-3.518C301.534,295.45,300.625,294.924,299.504,295.572z"/>
			<path id="XMLID_2994_" style="fill:#FAFAFA;" d="M305.938,291.852c-1.122,0.648-2.031,2.223-2.031,3.518
				c0,1.295,0.909,1.821,2.031,1.173c1.122-0.647,2.031-2.223,2.031-3.518C307.969,291.729,307.06,291.204,305.938,291.852z"/>
		</g>
	</g>
</g>
<g id="Key">
	<g id="XMLID_1166_">
		<g id="XMLID_1191_">
			<g id="XMLID_1192_">
				<path id="XMLID_2975_" style="fill:#455A64;" d="M396.186,334.13c-3.508,0-6.835-0.865-9.848-2.604
					c-7.206-4.161-11.339-12.869-11.339-23.891c0-19.382,12.319-41.679,28.046-50.758c8.468-4.888,16.877-5.419,23.682-1.49
					c7.207,4.161,11.339,12.869,11.339,23.891c0,19.382-12.319,41.679-28.046,50.758C405.302,332.759,400.601,334.13,396.186,334.13
					z M416.846,266.746c-2.522,0-5.187,1.267-6.826,2.213c-11.421,6.594-21.07,24.305-21.07,38.676
					c0,5.817,1.631,10.231,4.363,11.809c3.111,1.796,7.432-0.164,9.731-1.49c11.421-6.594,21.07-24.305,21.07-38.676
					c0-5.817-1.631-10.231-4.363-11.809C418.857,266.952,417.863,266.746,416.846,266.746z"/>
			</g>
			<path id="XMLID_2986_" style="fill:#37474F;" d="M426.61,282.381c0-10.887-6.859-14.912-6.859-14.912l0,0
				c2.732,1.578,4.363,5.992,4.363,11.809c0,14.37-9.649,32.081-21.07,38.676c-2.299,1.326-6.62,3.286-9.73,1.491
				c0,0,5.788,3.592,13.785-0.77C418.677,312.358,426.61,296.751,426.61,282.381z"/>
		</g>
		<path id="XMLID_2978_" style="fill:#37474F;" d="M415.608,146.294c0-3.984-3.229-7.213-7.213-7.213
			c-3.984,0-7.213,3.229-7.213,7.213c0,0.007,0.001,0.013,0.001,0.019h-0.001v114.708l0,0c0,1.066,0.704,2.132,2.113,2.945
			c2.817,1.626,7.384,1.626,10.201,0c1.408-0.813,2.113-1.879,2.113-2.945l0,0V146.314h-0.001
			C415.607,146.307,415.608,146.301,415.608,146.294z"/>
		<path id="XMLID_2974_" style="fill:#455A64;" d="M409.846,171.927c0-2.656-1.865-5.887-4.165-7.215
			c-1.17-0.676-2.224-0.723-2.98-0.263l-0.004-0.006l-17.798,10.254l-0.431,0.256c-0.062,0.031-0.123,0.062-0.174,0.103
			c-0.308,0.205-0.595,0.441-0.851,0.697c-1.077,1.066-1.743,2.553-1.743,4.184c0,2.235,1.241,4.184,3.066,5.189
			c0.841,0.451,1.795,0.707,2.82,0.707c1.015,0,1.979-0.256,2.81-0.707c0.113-0.062,0.226-0.133,0.338-0.195l17.911-10.315
			l-0.003-0.005C409.385,174.171,409.846,173.245,409.846,171.927z"/>
		<path id="XMLID_2971_" style="fill:#455A64;" d="M409.846,200.652c0-2.656-1.865-5.887-4.165-7.215
			c-1.17-0.675-2.224-0.723-2.98-0.263l-0.004-0.006l-20.86,11.979l-0.431,0.256c-0.062,0.031-0.123,0.062-0.174,0.103
			c-0.308,0.205-0.595,0.441-0.851,0.697c-1.077,1.066-1.743,2.553-1.743,4.184c0,2.235,1.241,4.184,3.066,5.189
			c0.841,0.451,1.794,0.708,2.82,0.708c1.015,0,1.979-0.256,2.81-0.708c0.113-0.062,0.225-0.133,0.338-0.195l20.973-12.041
			l-0.003-0.005C409.385,202.897,409.846,201.97,409.846,200.652z"/>
	</g>
</g>
</svg>
