<svg width="25" height="24" viewBox="0 0 25 24" fill="none" xmlns="http://www.w3.org/2000/svg">
<path d="M15.47 12.75H14.7H10.03V15.58H11.34H15.47C16.42 15.58 17.2 14.94 17.2 14.16C17.2 13.38 16.42 12.75 15.47 12.75Z" fill="white"/>
<path d="M12.5 2C6.98 2 2.5 6.48 2.5 12C2.5 17.52 6.98 22 12.5 22C18.02 22 22.5 17.52 22.5 12C22.5 6.48 18.02 2 12.5 2ZM15.47 17.08H13.82V18.5C13.82 18.91 13.48 19.25 13.07 19.25C12.66 19.25 12.32 18.91 12.32 18.5V17.08H11.34H11.11V18.5C11.11 18.91 10.77 19.25 10.36 19.25C9.95 19.25 9.61 18.91 9.61 18.5V17.08H9.28H7.55C7.14 17.08 6.8 16.74 6.8 16.33C6.8 15.92 7.14 15.58 7.55 15.58H8.53V12V8.42H7.55C7.14 8.42 6.8 8.08 6.8 7.67C6.8 7.26 7.14 6.92 7.55 6.92H9.28H9.61V5.5C9.61 5.09 9.95 4.75 10.36 4.75C10.77 4.75 11.11 5.09 11.11 5.5V6.92H11.34H12.32V5.5C12.32 5.09 12.66 4.75 13.07 4.75C13.48 4.75 13.82 5.09 13.82 5.5V6.92H14.7C16.25 6.92 17.62 8.28 17.62 9.84C17.62 10.51 17.38 11.12 17 11.62C18.01 12.11 18.7 13.07 18.7 14.18C18.7 15.77 17.25 17.08 15.47 17.08Z" fill="white"/>
<path d="M16.12 9.82997C16.12 9.16997 15.5 8.40997 14.7 8.40997H11.34H10.03V11.24H14.7C15.48 11.25 16.12 10.61 16.12 9.82997Z" fill="white"/>
</svg>
