<svg width="65" height="40" viewBox="0 0 65 40" fill="none" xmlns="http://www.w3.org/2000/svg">
<rect x="0.5" width="64" height="40" rx="6" fill="#9545FA"/>
<path d="M31.7301 15.2905V11.2815C31.7301 10.8552 32.0701 10.5 32.5001 10.5C32.8851 10.5 33.2113 10.7985 33.263 11.1766L33.2701 11.2815V15.2905L38.05 15.2908C40.43 15.2908 42.3853 17.2398 42.4951 19.6704L42.5 19.8861V24.9254C42.5 27.373 40.6127 29.3822 38.268 29.495L38.06 29.5H26.94C24.56 29.5 22.6141 27.5608 22.5048 25.1213L22.5 24.9047L22.5 19.8758C22.5 17.4281 24.3779 15.4092 26.722 15.2958L26.93 15.2908H31.73V21.6932L30.13 20.041C29.83 19.7312 29.34 19.7312 29.04 20.041C28.89 20.1959 28.82 20.4024 28.82 20.6089C28.82 20.7659 28.8648 20.9295 28.9595 21.0679L29.04 21.1666L31.95 24.1819C32.09 24.3368 32.29 24.4194 32.5 24.4194C32.6667 24.4194 32.8333 24.362 32.9653 24.2533L33.04 24.1819L35.95 21.1666C36.25 20.8568 36.25 20.3508 35.95 20.041C35.6773 19.7594 35.2475 19.7338 34.9462 19.9642L34.86 20.041L33.27 21.6932V15.2908L31.7301 15.2905Z" fill="white"/>
</svg>
