<svg width="36" height="36" viewBox="0 0 36 36" fill="none" xmlns="http://www.w3.org/2000/svg">
<rect width="36" height="36" rx="6" fill="#33343B"/>
<path d="M28.9339 13.4648C28.8803 12.2939 28.6944 11.4943 28.4224 10.7947C28.1463 10.0607 27.7133 9.39584 27.1537 8.84631C26.6043 8.28671 25.9393 7.8535 25.2053 7.57722C24.5056 7.30548 23.7061 7.11967 22.5352 7.06647C21.3621 7.01276 20.9873 7 18 7C15.0127 7 14.6379 7.01276 13.4648 7.06613C12.2939 7.11967 11.4944 7.30565 10.7947 7.57756C10.0607 7.85367 9.39584 8.28671 8.84631 8.84631C8.28671 9.39568 7.8535 10.0605 7.57722 10.7945C7.30548 11.4943 7.11967 12.2939 7.06647 13.4646C7.01276 14.6379 7 15.0125 7 17.9998C7 20.9873 7.01276 21.3621 7.06647 22.5352C7.11984 23.7059 7.30582 24.5056 7.57773 25.2053C7.85384 25.9391 8.28688 26.6042 8.84648 27.1535C9.39584 27.7131 10.0609 28.1462 10.7948 28.4223C11.4944 28.6944 12.2941 28.8802 13.465 28.9337C14.6382 28.9872 15.0128 28.9998 18.0002 28.9998C20.9875 28.9998 21.3623 28.9872 22.5354 28.9337C23.7063 28.8802 24.5057 28.6944 25.2055 28.4223C26.683 27.8509 27.8511 26.6829 28.4224 25.2053C28.6945 24.5056 28.8803 23.7059 28.9339 22.5352C28.9872 21.362 29 20.9873 29 18C29 15.0125 28.9872 14.6379 28.9339 13.4648ZM26.9538 22.4451C26.9049 23.5176 26.7257 24.1001 26.5751 24.4876C26.205 25.447 25.4469 26.2052 24.4874 26.5753C24.0999 26.7258 23.5175 26.9051 22.4449 26.9539C21.2853 27.007 20.9373 27.0181 18 27.0181C15.0625 27.0181 14.7147 27.007 13.5549 26.9539C12.4825 26.9051 11.9001 26.7258 11.5124 26.5753C11.0347 26.3989 10.6025 26.1177 10.2477 25.7523C9.88226 25.3975 9.60112 24.9655 9.42471 24.4876C9.27415 24.1001 9.09489 23.5176 9.04605 22.4451C8.99318 21.2853 8.98193 20.9373 8.98193 18.0002C8.98193 15.0629 8.99318 14.7151 9.04605 13.5551C9.09506 12.4825 9.27415 11.9001 9.42471 11.5126C9.60112 11.0347 9.88243 10.6025 10.2477 10.2477C10.6025 9.88226 11.0347 9.60112 11.5126 9.42488C11.9001 9.27415 12.4825 9.09506 13.5551 9.04605C14.7149 8.99318 15.0629 8.98193 18 8.98193H17.9998C20.937 8.98193 21.2849 8.99318 22.4449 9.04622C23.5175 9.09506 24.0997 9.27432 24.4874 9.42488C24.9651 9.60129 25.3973 9.88243 25.7522 10.2477C26.1176 10.6025 26.3987 11.0347 26.575 11.5126C26.7257 11.9001 26.9049 12.4825 26.9538 13.5551C27.0067 14.7149 27.0179 15.0629 27.0179 18C27.0179 20.9373 27.0068 21.2851 26.9538 22.4451Z" fill="url(#paint0_linear_1_3961)"/>
<path d="M17.9998 12.3513C14.8802 12.3513 12.3513 14.8804 12.3513 18C12.3513 21.1196 14.8802 23.6486 17.9998 23.6486C21.1196 23.6486 23.6485 21.1196 23.6485 18C23.6485 14.8804 21.1196 12.3513 17.9998 12.3513ZM17.9998 21.6666C15.9749 21.6665 14.3332 20.0249 14.3334 17.9999C14.3334 15.975 15.9749 14.3333 18 14.3333C20.025 14.3334 21.6666 15.975 21.6666 17.9999C21.6666 20.0249 20.0249 21.6666 17.9998 21.6666Z" fill="url(#paint1_linear_1_3961)"/>
<path d="M25.1918 12.1282C25.1918 12.8572 24.6008 13.4482 23.8718 13.4482C23.1427 13.4482 22.5517 12.8572 22.5517 12.1282C22.5517 11.3991 23.1427 10.8081 23.8718 10.8081C24.6008 10.8081 25.1918 11.3991 25.1918 12.1282Z" fill="url(#paint2_linear_1_3961)"/>
<defs>
<linearGradient id="paint0_linear_1_3961" x1="8.8462" y1="27.1536" x2="27.1538" y2="8.84602" gradientUnits="userSpaceOnUse">
<stop stop-color="#FFD600"/>
<stop offset="0.5" stop-color="#FF0100"/>
<stop offset="1" stop-color="#D800B9"/>
</linearGradient>
<linearGradient id="paint1_linear_1_3961" x1="14.0057" y1="21.9941" x2="21.9941" y2="14.0058" gradientUnits="userSpaceOnUse">
<stop stop-color="#FF6400"/>
<stop offset="0.5" stop-color="#FF0100"/>
<stop offset="1" stop-color="#FD0056"/>
</linearGradient>
<linearGradient id="paint2_linear_1_3961" x1="22.9384" y1="13.0615" x2="24.8051" y2="11.1948" gradientUnits="userSpaceOnUse">
<stop stop-color="#F30072"/>
<stop offset="1" stop-color="#E50097"/>
</linearGradient>
</defs>
</svg>
