<svg width="22" height="22" viewBox="0 0 22 22" fill="none" xmlns="http://www.w3.org/2000/svg">
<path d="M21.9339 6.46478C21.8803 5.29388 21.6944 4.49426 21.4224 3.79468C21.1463 3.06068 20.7133 2.39584 20.1537 1.84631C19.6043 1.28671 18.9393 0.8535 18.2053 0.577225C17.5056 0.305481 16.7061 0.119675 15.5352 0.0664673C14.3621 0.0127563 13.9873 0 11 0C8.01266 0 7.63786 0.0127563 6.46478 0.0661316C5.29388 0.119675 4.49443 0.305649 3.79468 0.57756C3.06068 0.853668 2.39584 1.28671 1.84631 1.84631C1.28671 2.39568 0.8535 3.06052 0.577225 3.79451C0.305481 4.49426 0.119675 5.29388 0.0664673 6.46461C0.0127563 7.63786 0 8.0125 0 10.9998C0 13.9873 0.0127563 14.3621 0.0664673 15.5352C0.119843 16.7059 0.305817 17.5056 0.577728 18.2053C0.853836 18.9391 1.28688 19.6042 1.84648 20.1535C2.39584 20.7131 3.06085 21.1462 3.79485 21.4223C4.49443 21.6944 5.29405 21.8802 6.46495 21.9337C7.6382 21.9872 8.01283 21.9998 11.0002 21.9998C13.9875 21.9998 14.3623 21.9872 15.5354 21.9337C16.7063 21.8802 17.5057 21.6944 18.2055 21.4223C19.683 20.8509 20.8511 19.6829 21.4224 18.2053C21.6945 17.5056 21.8803 16.7059 21.9339 15.5352C21.9872 14.362 22 13.9873 22 11C22 8.0125 21.9872 7.63786 21.9339 6.46478ZM19.9538 15.4451C19.9049 16.5176 19.7257 17.1001 19.5751 17.4876C19.205 18.447 18.4469 19.2052 17.4874 19.5753C17.0999 19.7258 16.5175 19.9051 15.4449 19.9539C14.2853 20.007 13.9373 20.0181 11 20.0181C8.06252 20.0181 7.71474 20.007 6.55492 19.9539C5.48254 19.9051 4.90012 19.7258 4.51239 19.5753C4.0347 19.3989 3.60249 19.1177 3.24767 18.7523C2.88226 18.3975 2.60112 17.9655 2.42471 17.4876C2.27415 17.1001 2.09489 16.5176 2.04605 15.4451C1.99318 14.2853 1.98193 13.9373 1.98193 11.0002C1.98193 8.06285 1.99318 7.71507 2.04605 6.55508C2.09506 5.48254 2.27415 4.90012 2.42471 4.51256C2.60112 4.0347 2.88243 3.60249 3.24767 3.24767C3.60249 2.88226 4.0347 2.60112 4.51256 2.42488C4.90012 2.27415 5.48254 2.09506 6.55508 2.04605C7.7149 1.99318 8.06285 1.98193 11 1.98193H10.9998C13.937 1.98193 14.2849 1.99318 15.4449 2.04622C16.5175 2.09506 17.0997 2.27432 17.4874 2.42488C17.9651 2.60129 18.3973 2.88243 18.7522 3.24767C19.1176 3.60249 19.3987 4.0347 19.575 4.51256C19.7257 4.90012 19.9049 5.48254 19.9538 6.55508C20.0067 7.7149 20.0179 8.06285 20.0179 11C20.0179 13.9373 20.0068 14.2851 19.9538 15.4451Z" fill="url(#paint0_linear_1_1418)"/>
<path d="M10.9999 5.35132C7.88026 5.35132 5.35132 7.88043 5.35132 11C5.35132 14.1196 7.88026 16.6486 10.9999 16.6486C14.1196 16.6486 16.6486 14.1196 16.6486 11C16.6486 7.88043 14.1196 5.35132 10.9999 5.35132ZM10.9999 14.6666C8.97496 14.6665 7.33325 13.0249 7.33342 10.9999C7.33342 8.97496 8.97496 7.33325 11 7.33325C13.0251 7.33342 14.6666 8.97496 14.6666 10.9999C14.6666 13.0249 13.0249 14.6666 10.9999 14.6666Z" fill="url(#paint1_linear_1_1418)"/>
<path d="M18.1918 5.12822C18.1918 5.85718 17.6008 6.44817 16.8719 6.44817C16.1427 6.44817 15.5518 5.85718 15.5518 5.12822C15.5518 4.39909 16.1427 3.80811 16.8719 3.80811C17.6008 3.80811 18.1918 4.39909 18.1918 5.12822Z" fill="url(#paint2_linear_1_1418)"/>
<defs>
<linearGradient id="paint0_linear_1_1418" x1="1.8462" y1="20.1536" x2="20.1538" y2="1.84602" gradientUnits="userSpaceOnUse">
<stop stop-color="#FFD600"/>
<stop offset="0.5" stop-color="#FF0100"/>
<stop offset="1" stop-color="#D800B9"/>
</linearGradient>
<linearGradient id="paint1_linear_1_1418" x1="7.00578" y1="14.9941" x2="14.9941" y2="7.00578" gradientUnits="userSpaceOnUse">
<stop stop-color="#FF6400"/>
<stop offset="0.5" stop-color="#FF0100"/>
<stop offset="1" stop-color="#FD0056"/>
</linearGradient>
<linearGradient id="paint2_linear_1_1418" x1="15.9385" y1="6.0615" x2="17.8052" y2="4.19478" gradientUnits="userSpaceOnUse">
<stop stop-color="#F30072"/>
<stop offset="1" stop-color="#E50097"/>
</linearGradient>
</defs>
</svg>
