<svg width="25" height="24" viewBox="0 0 25 24" fill="none" xmlns="http://www.w3.org/2000/svg">
<path d="M18.32 8.70003C19.03 8.31003 19.9 8.82004 19.89 9.63004L19.85 15.05C19.84 15.87 18.95 16.37 18.25 15.95L13.57 13.15C12.87 12.73 12.89 11.71 13.6 11.32L18.32 8.70003Z" fill="white"/>
<path d="M19.75 6.28004C19.9 6.66004 19.67 7.05004 19.31 7.25004L13.68 10.36C12.88 10.8 11.94 10.0901 12.14 9.21005L13.36 3.68004C13.51 2.98004 14.3 2.64005 14.92 2.99005L18.8401 5.23004C19.2701 5.48004 19.58 5.85004 19.75 6.28004Z" fill="white"/>
<path d="M12.51 2.67001L10.44 11.97C10.41 12.11 10.41 12.26 10.44 12.41L12.17 21.09C12.29 21.69 11.78 22.26 11.28 21.89L5.98999 18.12C5.42999 17.72 5.09998 17.08 5.09998 16.4V7.09C5.09998 6.33 5.49998 5.63001 6.16998 5.25001L11.46 2.24001C11.61 2.15001 11.77 2.09 11.93 2.04C12.31 1.91 12.59 2.29001 12.51 2.67001Z" fill="white"/>
<path d="M18.13 16.81C18.78 17.2 18.82 18.13 18.21 18.57L14.74 21.09C14.12 21.54 13.23 21.2 13.08 20.44L12.06 15.24C11.88 14.34 12.85 13.66 13.64 14.13L18.13 16.81Z" fill="white"/>
</svg>
