<svg width="36" height="36" viewBox="0 0 36 36" fill="none" xmlns="http://www.w3.org/2000/svg">
<rect width="36" height="36" rx="6" fill="#33343B"/>
<g clip-path="url(#clip0_1_3954)">
<path d="M27.995 27.9999V27.999H28V20.664C28 17.0757 27.2275 14.3115 23.0325 14.3115C21.0158 14.3115 19.6625 15.4182 19.11 16.4674H19.0517V14.6465H15.0742V27.999H19.2158V21.3874C19.2158 19.6465 19.5458 17.9632 21.7017 17.9632C23.8258 17.9632 23.8575 19.9499 23.8575 21.499V27.9999H27.995Z" fill="#0077B5"/>
<path d="M8.33002 14.6477H12.4767V28.0002H8.33002V14.6477Z" fill="#0077B5"/>
<path d="M10.4017 8C9.07583 8 8 9.07583 8 10.4017C8 11.7275 9.07583 12.8258 10.4017 12.8258C11.7275 12.8258 12.8033 11.7275 12.8033 10.4017C12.8025 9.07583 11.7267 8 10.4017 8V8Z" fill="#0077B5"/>
</g>
<defs>
<clipPath id="clip0_1_3954">
<rect width="20" height="20" fill="white" transform="translate(8 8)"/>
</clipPath>
</defs>
</svg>
