<svg width="36" height="36" viewBox="0 0 36 36" fill="none" xmlns="http://www.w3.org/2000/svg">
<rect width="36" height="36" rx="6" fill="white"/>
<g clip-path="url(#clip0_1_1061)">
<path d="M27.9951 27.9999V27.999H28.0001V20.664C28.0001 17.0757 27.2276 14.3115 23.0326 14.3115C21.0159 14.3115 19.6626 15.4182 19.1101 16.4674H19.0517V14.6465H15.0742V27.999H19.2159V21.3874C19.2159 19.6465 19.5459 17.9632 21.7017 17.9632C23.8259 17.9632 23.8576 19.9499 23.8576 21.499V27.9999H27.9951Z" fill="#0077B5"/>
<path d="M8.32996 14.6477H12.4766V28.0002H8.32996V14.6477Z" fill="#0077B5"/>
<path d="M10.4017 8C9.07583 8 8 9.07583 8 10.4017C8 11.7275 9.07583 12.8258 10.4017 12.8258C11.7275 12.8258 12.8033 11.7275 12.8033 10.4017C12.8025 9.07583 11.7267 8 10.4017 8V8Z" fill="#0077B5"/>
</g>
<defs>
<clipPath id="clip0_1_1061">
<rect width="20" height="20" fill="white" transform="translate(8 8)"/>
</clipPath>
</defs>
</svg>
