<svg width="25" height="24" viewBox="0 0 25 24" fill="none" xmlns="http://www.w3.org/2000/svg">
<path d="M19.5 7C19.5 7.18 19.49 7.34999 19.47 7.51999C19.35 8.96999 18.71 10.28 17.74 11.24C16.66 12.33 15.16 13 13.5 13H10.37C9.86999 13 9.45 13.37 9.38 13.86L8.61999 19.14C8.55999 19.53 8.28 19.85 7.91 19.95C7.82 19.99 7.73 20 7.63 20H5.67999C5.05999 20 4.59 19.45 4.69 18.84L7.07998 4.51001C7.31998 3.06001 8.57001 2 10.04 2H14.5C17.26 2 19.5 4.24 19.5 7Z" fill="white"/>
<path d="M21.5 11C21.5 12.38 20.94 13.63 20.04 14.54C19.13 15.44 17.88 16 16.5 16H14.35C13.86 16 13.44 16.35 13.36 16.84L12.64 21.16C12.56 21.65 12.14 22 11.65 22H8.72001C8.54001 22 8.38 21.96 8.24 21.88C8.02 21.76 8.16001 21.47 8.40001 21.37C9.30001 21.08 9.96002 20.31 10.1 19.35L10.74 14.93C10.78 14.68 10.99 14.5 11.23 14.5H13.5C15.51 14.5 17.4 13.72 18.8 12.31C19.63 11.49 20.25 10.48 20.61 9.39004C20.69 9.14004 21.02 9.09003 21.13 9.32003C21.37 9.84003 21.5 10.4 21.5 11Z" fill="white"/>
</svg>
