<svg width="25" height="24" viewBox="0 0 25 24" fill="none" xmlns="http://www.w3.org/2000/svg">
<path d="M19.9 10.53C20.42 10.43 20.78 11.02 20.46 11.44L13.51 20.29C13.16 20.74 12.44 20.45 12.5 19.89L13.2 12.29C13.22 12.04 13.41 11.83 13.66 11.78L19.9 10.53Z" fill="white"/>
<path d="M22.14 7.69002C22.36 7.93002 22.24 8.32002 21.93 8.39002L13.49 10.08C12.94 10.19 12.58 9.52002 12.98 9.12002L18 4.10002C18.23 3.87002 18.6 3.88002 18.82 4.11002L22.14 7.69002Z" fill="white"/>
<path d="M15.19 3.19C15.66 3.25 15.85 3.82 15.52 4.16L11.96 7.72C11.75 7.93 11.41 7.94 11.18 7.74L5.84 2.99C5.42 2.62 5.73995 1.93 6.28995 2L15.19 3.19Z" fill="white"/>
<path d="M11.22 10.07C11.49 10.31 11.62 10.66 11.6 11.01L10.74 21.47C10.69 22.07 9.86003 22.19 9.64003 21.63L2.78999 3.96C2.56999 3.4 3.25003 2.93 3.70003 3.33L11.22 10.07Z" fill="white"/>
</svg>
