<svg width="36" height="36" viewBox="0 0 36 36" fill="none" xmlns="http://www.w3.org/2000/svg">
<rect width="36" height="36" rx="6" fill="white"/>
<g clip-path="url(#clip0_1_1053)">
<path d="M28 12.7988C27.2563 13.125 26.4637 13.3412 25.6375 13.4462C26.4875 12.9388 27.1363 12.1412 27.4412 11.18C26.6488 11.6525 25.7738 11.9863 24.8412 12.1725C24.0887 11.3713 23.0162 10.875 21.8462 10.875C19.5763 10.875 17.7487 12.7175 17.7487 14.9763C17.7487 15.3012 17.7762 15.6137 17.8438 15.9112C14.435 15.745 11.4188 14.1113 9.3925 11.6225C9.03875 12.2363 8.83125 12.9388 8.83125 13.695C8.83125 15.115 9.5625 16.3737 10.6525 17.1025C9.99375 17.09 9.3475 16.8988 8.8 16.5975C8.8 16.61 8.8 16.6262 8.8 16.6425C8.8 18.635 10.2212 20.29 12.085 20.6712C11.7512 20.7625 11.3875 20.8062 11.01 20.8062C10.7475 20.8062 10.4825 20.7913 10.2337 20.7362C10.765 22.36 12.2725 23.5538 14.065 23.5925C12.67 24.6838 10.8988 25.3412 8.98125 25.3412C8.645 25.3412 8.3225 25.3263 8 25.285C9.81625 26.4563 11.9688 27.125 14.29 27.125C21.835 27.125 25.96 20.875 25.96 15.4575C25.96 15.2762 25.9538 15.1013 25.945 14.9275C26.7588 14.35 27.4425 13.6288 28 12.7988Z" fill="#03A9F4"/>
</g>
<defs>
<clipPath id="clip0_1_1053">
<rect width="20" height="20" fill="white" transform="translate(8 9)"/>
</clipPath>
</defs>
</svg>
